<?xml version="1.0" encoding="UTF-8"?>
<svg xmlns="http://www.w3.org/2000/svg" xmlns:xlink="http://www.w3.org/1999/xlink" width="60pt" height="37pt" viewBox="0 0 60 37" version="1.1">
<defs>
<filter id="alpha" filterUnits="objectBoundingBox" x="0%" y="0%" width="100%" height="100%">
  <feColorMatrix type="matrix" in="SourceGraphic" values="0 0 0 0 1 0 0 0 0 1 0 0 0 0 1 0 0 0 1 0"/>
</filter>
<mask id="mask0">
  <g filter="url(#alpha)">
<rect x="0" y="0" width="60" height="37" style="fill:rgb(0%,0%,0%);fill-opacity:0.101961;stroke:none;"/>
  </g>
</mask>
<clipPath id="clip1">
  <rect x="0" y="0" width="60" height="37"/>
</clipPath>
<g id="surface5" clip-path="url(#clip1)">
<path style=" stroke:none;fill-rule:nonzero;fill:rgb(0%,0%,0%);fill-opacity:1;" d="M 13.21875 26.117188 C 13.238281 30.449219 10.226562 33.976562 10.226562 33.976562 C 10.226562 33.976562 7.179688 30.480469 7.160156 26.144531 C 7.140625 21.8125 10.15625 18.289062 10.15625 18.289062 C 10.15625 18.289062 13.199219 21.785156 13.21875 26.117188 Z M 13.21875 26.117188 "/>
</g>
</defs>
<g id="surface1">
<path style=" stroke:none;fill-rule:nonzero;fill:rgb(24.705882%,23.921569%,33.72549%);fill-opacity:1;" d="M 7.25 37.007812 L 7.148438 36.984375 C 8.296875 31.816406 11.179688 27.125 15.273438 23.773438 C 21.558594 18.628906 30.023438 17.128906 37.664062 19.800781 C 45.308594 22.476562 51.046875 28.945312 52.851562 36.917969 L 52.75 36.941406 C 50.320312 26.148438 40.96875 18.605469 30.007812 18.605469 C 19.191406 18.605469 9.621094 26.34375 7.25 37.007812 Z M 7.25 37.007812 "/>
<path style=" stroke:none;fill-rule:nonzero;fill:rgb(100%,39.607843%,51.764706%);fill-opacity:1;" d="M 24.878906 3.707031 C 24.878906 5.308594 23.59375 6.605469 22.011719 6.605469 C 20.429688 6.605469 19.144531 5.308594 19.144531 3.707031 C 19.144531 2.105469 20.429688 0.804688 22.011719 0.804688 C 23.59375 0.804688 24.878906 2.105469 24.878906 3.707031 Z M 24.878906 3.707031 "/>
<path style=" stroke:none;fill-rule:nonzero;fill:rgb(24.705882%,23.921569%,33.72549%);fill-opacity:1;" d="M 9.664062 36.347656 C 9.753906 36.679688 10.058594 36.886719 10.058594 36.886719 C 10.058594 36.886719 10.222656 36.554688 10.132812 36.21875 C 10.042969 35.886719 9.734375 35.679688 9.734375 35.679688 C 9.734375 35.679688 9.574219 36.011719 9.664062 36.347656 Z M 9.664062 36.347656 "/>
<path style=" stroke:none;fill-rule:nonzero;fill:rgb(11.372549%,38.431373%,9.411765%);fill-opacity:1;" d="M 9.796875 36.273438 C 10.039062 36.515625 10.070312 36.886719 10.070312 36.886719 C 10.070312 36.886719 9.703125 36.867188 9.457031 36.625 C 9.210938 36.386719 9.183594 36.011719 9.183594 36.011719 C 9.183594 36.011719 9.550781 36.035156 9.796875 36.273438 Z M 9.796875 36.273438 "/>
<path style=" stroke:none;fill-rule:nonzero;fill:rgb(24.705882%,23.921569%,33.72549%);fill-opacity:1;" d="M 16.472656 36.347656 C 16.5625 36.679688 16.867188 36.886719 16.867188 36.886719 C 16.867188 36.886719 17.027344 36.554688 16.9375 36.21875 C 16.847656 35.886719 16.542969 35.679688 16.542969 35.679688 C 16.542969 35.679688 16.382812 36.011719 16.472656 36.347656 Z M 16.472656 36.347656 "/>
<path style=" stroke:none;fill-rule:nonzero;fill:rgb(11.372549%,38.431373%,9.411765%);fill-opacity:1;" d="M 16.601562 36.273438 C 16.847656 36.515625 16.878906 36.886719 16.878906 36.886719 C 16.878906 36.886719 16.511719 36.867188 16.265625 36.625 C 16.019531 36.386719 15.988281 36.011719 15.988281 36.011719 C 15.988281 36.011719 16.355469 36.035156 16.601562 36.273438 Z M 16.601562 36.273438 "/>
<path style=" stroke:none;fill-rule:nonzero;fill:rgb(24.705882%,23.921569%,33.72549%);fill-opacity:1;" d="M 17.820312 9.714844 L 16.742188 8.84375 L 22.777344 3.390625 L 38.082031 3.390625 L 38.082031 8.191406 L 28.167969 14.949219 Z M 17.820312 9.714844 "/>
<path style=" stroke:none;fill-rule:nonzero;fill:rgb(80%,80%,80%);fill-opacity:1;" d="M 40.875 6.449219 L 40.875 3.5 L 38.839844 3.5 L 38.839844 4.222656 L 38.082031 3.390625 L 33.125 8.84375 L 31.183594 10.152344 L 28.175781 32.386719 L 32.714844 36.976562 L 43.257812 36.976562 L 43.257812 9.0625 Z M 40.875 6.449219 "/>
<path style=" stroke:none;fill-rule:nonzero;fill:rgb(94.901961%,94.901961%,94.901961%);fill-opacity:1;" d="M 16.742188 8.84375 L 33.125 8.84375 L 33.125 36.976562 L 16.742188 36.976562 Z M 16.742188 8.84375 "/>
<path style=" stroke:none;fill-rule:nonzero;fill:rgb(80%,80%,80%);fill-opacity:1;" d="M 23.101562 30.109375 L 26.121094 30.109375 L 26.121094 36.976562 L 23.101562 36.976562 Z M 23.101562 30.109375 "/>
<path style=" stroke:none;fill-rule:nonzero;fill:rgb(24.705882%,23.921569%,33.72549%);fill-opacity:1;" d="M 19.867188 32.070312 L 19.867188 30.980469 L 18.574219 30.980469 L 18.574219 32.070312 Z M 19.867188 32.070312 "/>
<path style=" stroke:none;fill-rule:nonzero;fill:rgb(24.705882%,23.921569%,33.72549%);fill-opacity:1;" d="M 19.761719 32.941406 L 18.574219 32.941406 L 18.574219 34.035156 L 19.867188 34.035156 L 19.867188 32.941406 Z M 19.761719 32.941406 "/>
<path style=" stroke:none;fill-rule:nonzero;fill:rgb(24.705882%,23.921569%,33.72549%);fill-opacity:1;" d="M 20.730469 30.980469 L 22.023438 30.980469 L 22.023438 32.070312 L 20.730469 32.070312 Z M 20.730469 30.980469 "/>
<path style=" stroke:none;fill-rule:nonzero;fill:rgb(24.705882%,23.921569%,33.72549%);fill-opacity:1;" d="M 20.730469 32.941406 L 22.023438 32.941406 L 22.023438 34.035156 L 20.730469 34.035156 Z M 20.730469 32.941406 "/>
<path style=" stroke:none;fill-rule:nonzero;fill:rgb(24.705882%,23.921569%,33.72549%);fill-opacity:1;" d="M 28.707031 32.070312 L 28.707031 30.980469 L 27.414062 30.980469 L 27.414062 32.070312 Z M 28.707031 32.070312 "/>
<path style=" stroke:none;fill-rule:nonzero;fill:rgb(24.705882%,23.921569%,33.72549%);fill-opacity:1;" d="M 28.597656 32.941406 L 27.414062 32.941406 L 27.414062 34.035156 L 28.707031 34.035156 L 28.707031 32.941406 Z M 28.597656 32.941406 "/>
<path style=" stroke:none;fill-rule:nonzero;fill:rgb(24.705882%,23.921569%,33.72549%);fill-opacity:1;" d="M 29.570312 30.980469 L 30.863281 30.980469 L 30.863281 32.070312 L 29.570312 32.070312 Z M 29.570312 30.980469 "/>
<path style=" stroke:none;fill-rule:nonzero;fill:rgb(24.705882%,23.921569%,33.72549%);fill-opacity:1;" d="M 29.570312 32.941406 L 30.863281 32.941406 L 30.863281 34.035156 L 29.570312 34.035156 Z M 29.570312 32.941406 "/>
<path style=" stroke:none;fill-rule:nonzero;fill:rgb(24.705882%,23.921569%,33.72549%);fill-opacity:1;" d="M 37.761719 10.261719 L 37.761719 9.171875 L 36.464844 9.171875 L 36.464844 10.261719 Z M 37.761719 10.261719 "/>
<path style=" stroke:none;fill-rule:nonzero;fill:rgb(24.705882%,23.921569%,33.72549%);fill-opacity:1;" d="M 37.652344 11.132812 L 36.464844 11.132812 L 36.464844 12.222656 L 37.761719 12.222656 L 37.761719 11.132812 Z M 37.652344 11.132812 "/>
<path style=" stroke:none;fill-rule:nonzero;fill:rgb(24.705882%,23.921569%,33.72549%);fill-opacity:1;" d="M 38.621094 9.171875 L 39.914062 9.171875 L 39.914062 10.261719 L 38.621094 10.261719 Z M 38.621094 9.171875 "/>
<path style=" stroke:none;fill-rule:nonzero;fill:rgb(24.705882%,23.921569%,33.72549%);fill-opacity:1;" d="M 38.621094 11.132812 L 39.914062 11.132812 L 39.914062 12.222656 L 38.621094 12.222656 Z M 38.621094 11.132812 "/>
<path style=" stroke:none;fill-rule:nonzero;fill:rgb(24.705882%,23.921569%,33.72549%);fill-opacity:1;" d="M 37.761719 16.367188 L 37.761719 15.277344 L 36.464844 15.277344 L 36.464844 16.367188 Z M 37.761719 16.367188 "/>
<path style=" stroke:none;fill-rule:nonzero;fill:rgb(24.705882%,23.921569%,33.72549%);fill-opacity:1;" d="M 37.652344 17.242188 L 36.464844 17.242188 L 36.464844 18.332031 L 37.761719 18.332031 L 37.761719 17.242188 Z M 37.652344 17.242188 "/>
<path style=" stroke:none;fill-rule:nonzero;fill:rgb(24.705882%,23.921569%,33.72549%);fill-opacity:1;" d="M 38.621094 15.277344 L 39.914062 15.277344 L 39.914062 16.367188 L 38.621094 16.367188 Z M 38.621094 15.277344 "/>
<path style=" stroke:none;fill-rule:nonzero;fill:rgb(24.705882%,23.921569%,33.72549%);fill-opacity:1;" d="M 38.621094 17.242188 L 39.914062 17.242188 L 39.914062 18.332031 L 38.621094 18.332031 Z M 38.621094 17.242188 "/>
<path style=" stroke:none;fill-rule:nonzero;fill:rgb(24.705882%,23.921569%,33.72549%);fill-opacity:1;" d="M 37.761719 22.476562 L 37.761719 21.382812 L 36.464844 21.382812 L 36.464844 22.476562 Z M 37.761719 22.476562 "/>
<path style=" stroke:none;fill-rule:nonzero;fill:rgb(24.705882%,23.921569%,33.72549%);fill-opacity:1;" d="M 37.652344 23.347656 L 36.464844 23.347656 L 36.464844 24.4375 L 37.761719 24.4375 L 37.761719 23.347656 Z M 37.652344 23.347656 "/>
<path style=" stroke:none;fill-rule:nonzero;fill:rgb(24.705882%,23.921569%,33.72549%);fill-opacity:1;" d="M 38.621094 21.382812 L 39.914062 21.382812 L 39.914062 22.476562 L 38.621094 22.476562 Z M 38.621094 21.382812 "/>
<path style=" stroke:none;fill-rule:nonzero;fill:rgb(24.705882%,23.921569%,33.72549%);fill-opacity:1;" d="M 38.621094 23.347656 L 39.914062 23.347656 L 39.914062 24.4375 L 38.621094 24.4375 Z M 38.621094 23.347656 "/>
<path style=" stroke:none;fill-rule:nonzero;fill:rgb(24.705882%,23.921569%,33.72549%);fill-opacity:1;" d="M 37.761719 28.582031 L 37.761719 27.492188 L 36.464844 27.492188 L 36.464844 28.582031 Z M 37.761719 28.582031 "/>
<path style=" stroke:none;fill-rule:nonzero;fill:rgb(24.705882%,23.921569%,33.72549%);fill-opacity:1;" d="M 37.652344 29.453125 L 36.464844 29.453125 L 36.464844 30.542969 L 37.761719 30.542969 L 37.761719 29.453125 Z M 37.652344 29.453125 "/>
<path style=" stroke:none;fill-rule:nonzero;fill:rgb(24.705882%,23.921569%,33.72549%);fill-opacity:1;" d="M 38.621094 27.492188 L 39.914062 27.492188 L 39.914062 28.582031 L 38.621094 28.582031 Z M 38.621094 27.492188 "/>
<path style=" stroke:none;fill-rule:nonzero;fill:rgb(24.705882%,23.921569%,33.72549%);fill-opacity:1;" d="M 38.621094 29.453125 L 39.914062 29.453125 L 39.914062 30.542969 L 38.621094 30.542969 Z M 38.621094 29.453125 "/>
<path style=" stroke:none;fill-rule:nonzero;fill:rgb(24.705882%,23.921569%,33.72549%);fill-opacity:1;" d="M 18.574219 10.261719 L 31.078125 10.261719 L 31.078125 12.878906 L 18.574219 12.878906 Z M 18.574219 10.261719 "/>
<path style=" stroke:none;fill-rule:nonzero;fill:rgb(24.705882%,23.921569%,33.72549%);fill-opacity:1;" d="M 18.574219 15.496094 L 31.078125 15.496094 L 31.078125 18.113281 L 18.574219 18.113281 Z M 18.574219 15.496094 "/>
<path style=" stroke:none;fill-rule:nonzero;fill:rgb(24.705882%,23.921569%,33.72549%);fill-opacity:1;" d="M 18.574219 20.730469 L 31.078125 20.730469 L 31.078125 23.347656 L 18.574219 23.347656 Z M 18.574219 20.730469 "/>
<path style=" stroke:none;fill-rule:nonzero;fill:rgb(24.705882%,23.921569%,33.72549%);fill-opacity:1;" d="M 18.574219 25.964844 L 31.078125 25.964844 L 31.078125 28.582031 L 18.574219 28.582031 Z M 18.574219 25.964844 "/>
<path style=" stroke:none;fill-rule:nonzero;fill:rgb(24.705882%,23.921569%,33.72549%);fill-opacity:1;" d="M 0 36.867188 L 60 36.867188 L 60 36.976562 L 0 36.976562 Z M 0 36.867188 "/>
<path style=" stroke:none;fill-rule:nonzero;fill:rgb(24.705882%,23.921569%,33.72549%);fill-opacity:1;" d="M 10.046875 24.539062 L 10.359375 24.539062 L 10.359375 36.929688 L 10.046875 36.929688 Z M 10.046875 24.539062 "/>
<path style=" stroke:none;fill-rule:nonzero;fill:rgb(11.372549%,38.431373%,9.411765%);fill-opacity:1;" d="M 13.21875 26.117188 C 13.238281 30.449219 10.226562 33.976562 10.226562 33.976562 C 10.226562 33.976562 7.179688 30.480469 7.160156 26.144531 C 7.140625 21.8125 10.15625 18.289062 10.15625 18.289062 C 10.15625 18.289062 13.199219 21.785156 13.21875 26.117188 Z M 13.21875 26.117188 "/>
<use xlink:href="#surface5" mask="url(#mask0)"/>
<path style=" stroke:none;fill-rule:nonzero;fill:rgb(24.705882%,23.921569%,33.72549%);fill-opacity:1;" d="M 6.015625 24.539062 L 6.328125 24.539062 L 6.328125 36.929688 L 6.015625 36.929688 Z M 6.015625 24.539062 "/>
<path style=" stroke:none;fill-rule:nonzero;fill:rgb(11.372549%,38.431373%,9.411765%);fill-opacity:1;" d="M 9.1875 26.117188 C 9.207031 30.449219 6.195312 33.976562 6.195312 33.976562 C 6.195312 33.976562 3.152344 30.480469 3.132812 26.144531 C 3.113281 21.8125 6.125 18.289062 6.125 18.289062 C 6.125 18.289062 9.167969 21.785156 9.1875 26.117188 Z M 9.1875 26.117188 "/>
<path style=" stroke:none;fill-rule:nonzero;fill:rgb(94.901961%,94.901961%,94.901961%);fill-opacity:1;" d="M 49.898438 8.828125 C 47.457031 8.839844 45.46875 8.875 45.46875 8.875 C 45.46875 8.875 47.832031 5.707031 49.886719 6.882812 C 51.945312 8.054688 54.3125 8.832031 54.3125 8.832031 C 54.3125 8.832031 52.339844 8.816406 49.898438 8.828125 Z M 49.898438 8.828125 "/>
<path style=" stroke:none;fill-rule:nonzero;fill:rgb(94.901961%,94.901961%,94.901961%);fill-opacity:1;" d="M 9.210938 14.914062 C 6.769531 14.925781 4.78125 14.960938 4.78125 14.960938 C 4.78125 14.960938 7.144531 11.792969 9.203125 12.96875 C 11.261719 14.140625 13.625 14.917969 13.625 14.917969 C 13.625 14.917969 11.652344 14.902344 9.210938 14.914062 Z M 9.210938 14.914062 "/>
<path style=" stroke:none;fill-rule:nonzero;fill:rgb(94.901961%,94.901961%,94.901961%);fill-opacity:1;" d="M 18.078125 2.207031 C 15.632812 2.21875 13.648438 2.253906 13.648438 2.253906 C 13.648438 2.253906 16.007812 -0.914062 18.066406 0.261719 C 20.125 1.433594 22.492188 2.210938 22.492188 2.210938 C 22.492188 2.210938 20.519531 2.195312 18.078125 2.207031 Z M 18.078125 2.207031 "/>
<path style=" stroke:none;fill-rule:nonzero;fill:rgb(24.705882%,23.921569%,33.72549%);fill-opacity:1;" d="M 54.621094 24.539062 L 54.929688 24.539062 L 54.929688 36.929688 L 54.621094 36.929688 Z M 54.621094 24.539062 "/>
<path style=" stroke:none;fill-rule:nonzero;fill:rgb(11.372549%,38.431373%,9.411765%);fill-opacity:1;" d="M 57.789062 26.117188 C 57.808594 30.449219 54.796875 33.976562 54.796875 33.976562 C 54.796875 33.976562 51.753906 30.480469 51.734375 26.144531 C 51.714844 21.8125 54.726562 18.289062 54.726562 18.289062 C 54.726562 18.289062 57.769531 21.785156 57.789062 26.117188 Z M 57.789062 26.117188 "/>
<path style=" stroke:none;fill-rule:nonzero;fill:rgb(24.705882%,23.921569%,33.72549%);fill-opacity:1;" d="M 43.519531 29.238281 L 46.648438 29.238281 L 46.648438 28.472656 L 48.371094 28.472656 L 48.371094 29.238281 L 51.609375 29.238281 L 51.609375 32.621094 L 48.371094 32.621094 L 48.371094 36.878906 L 46.648438 36.878906 L 46.648438 32.621094 L 43.519531 32.621094 L 41.898438 30.765625 Z M 43.519531 29.238281 "/>
</g>
</svg>
