<?xml version="1.0" encoding="UTF-8"?>
<svg xmlns="http://www.w3.org/2000/svg" xmlns:xlink="http://www.w3.org/1999/xlink" width="59pt" height="43pt" viewBox="0 0 59 43" version="1.1">
<defs>
<filter id="alpha" filterUnits="objectBoundingBox" x="0%" y="0%" width="100%" height="100%">
  <feColorMatrix type="matrix" in="SourceGraphic" values="0 0 0 0 1 0 0 0 0 1 0 0 0 0 1 0 0 0 1 0"/>
</filter>
<mask id="mask0">
  <g filter="url(#alpha)">
<rect x="0" y="0" width="59" height="43" style="fill:rgb(0%,0%,0%);fill-opacity:0.0509804;stroke:none;"/>
  </g>
</mask>
<clipPath id="clip1">
  <rect x="0" y="0" width="59" height="43"/>
</clipPath>
<g id="surface5" clip-path="url(#clip1)">
<path style=" stroke:none;fill-rule:nonzero;fill:rgb(0%,0%,0%);fill-opacity:1;" d="M 16.503906 36.148438 L 14.792969 35.742188 L 15.984375 30.625 L 17.695312 31.03125 Z M 16.503906 36.148438 "/>
</g>
<linearGradient id="linear0" gradientUnits="userSpaceOnUse" x1="-450.78971" y1="2803.04671" x2="-450.78971" y2="2729.34772" gradientTransform="matrix(0.0664804,0.0332963,-0.0329856,0.0671066,139.69496,-140.963508)">
<stop offset="0" style="stop-color:rgb(50.196078%,50.196078%,50.196078%);stop-opacity:0.25098;"/>
<stop offset="0.53514" style="stop-color:rgb(50.196078%,50.196078%,50.196078%);stop-opacity:0.121569;"/>
<stop offset="1" style="stop-color:rgb(50.196078%,50.196078%,50.196078%);stop-opacity:0.101961;"/>
</linearGradient>
<mask id="mask1">
  <g filter="url(#alpha)">
<rect x="0" y="0" width="59" height="43" style="fill:rgb(0%,0%,0%);fill-opacity:0.0509804;stroke:none;"/>
  </g>
</mask>
<clipPath id="clip2">
  <rect x="0" y="0" width="59" height="43"/>
</clipPath>
<g id="surface8" clip-path="url(#clip2)">
<path style=" stroke:none;fill-rule:nonzero;fill:rgb(0%,0%,0%);fill-opacity:1;" d="M 17.597656 26.28125 L 20.28125 27.625 L 17.964844 32.332031 L 15.28125 30.988281 Z M 17.597656 26.28125 "/>
</g>
<mask id="mask2">
  <g filter="url(#alpha)">
<rect x="0" y="0" width="59" height="43" style="fill:rgb(0%,0%,0%);fill-opacity:0.0509804;stroke:none;"/>
  </g>
</mask>
<clipPath id="clip3">
  <rect x="0" y="0" width="59" height="43"/>
</clipPath>
<g id="surface11" clip-path="url(#clip3)">
<path style=" stroke:none;fill-rule:nonzero;fill:rgb(0%,0%,0%);fill-opacity:1;" d="M 18.066406 26.511719 L 19.699219 27.332031 L 17.382812 32.042969 L 15.75 31.222656 Z M 18.066406 26.511719 "/>
</g>
<mask id="mask3">
  <g filter="url(#alpha)">
<rect x="0" y="0" width="59" height="43" style="fill:rgb(0%,0%,0%);fill-opacity:0.501961;stroke:none;"/>
  </g>
</mask>
<clipPath id="clip4">
  <rect x="0" y="0" width="59" height="43"/>
</clipPath>
<g id="surface14" clip-path="url(#clip4)">
<path style=" stroke:none;fill-rule:nonzero;fill:rgb(27.843137%,90.196078%,69.411765%);fill-opacity:1;" d="M 2.179688 36.109375 L 2.402344 36.109375 L 2.402344 37.382812 L 2.179688 37.382812 Z M 2.179688 36.109375 "/>
<path style=" stroke:none;fill-rule:nonzero;fill:rgb(27.843137%,90.196078%,69.411765%);fill-opacity:1;" d="M 2.921875 36.632812 L 2.921875 36.855469 L 1.660156 36.855469 L 1.660156 36.632812 Z M 2.921875 36.632812 "/>
</g>
<mask id="mask4">
  <g filter="url(#alpha)">
<rect x="0" y="0" width="59" height="43" style="fill:rgb(0%,0%,0%);fill-opacity:0.501961;stroke:none;"/>
  </g>
</mask>
<clipPath id="clip5">
  <rect x="0" y="0" width="59" height="43"/>
</clipPath>
<g id="surface17" clip-path="url(#clip5)">
<path style=" stroke:none;fill-rule:nonzero;fill:rgb(27.843137%,90.196078%,69.411765%);fill-opacity:1;" d="M 58.289062 20.226562 L 58.511719 20.226562 L 58.511719 21.5 L 58.289062 21.5 Z M 58.289062 20.226562 "/>
<path style=" stroke:none;fill-rule:nonzero;fill:rgb(27.843137%,90.196078%,69.411765%);fill-opacity:1;" d="M 59.027344 20.75 L 59.027344 20.976562 L 57.769531 20.976562 L 57.769531 20.75 Z M 59.027344 20.75 "/>
</g>
<mask id="mask5">
  <g filter="url(#alpha)">
<rect x="0" y="0" width="59" height="43" style="fill:rgb(0%,0%,0%);fill-opacity:0.501961;stroke:none;"/>
  </g>
</mask>
<clipPath id="clip6">
  <rect x="0" y="0" width="59" height="43"/>
</clipPath>
<g id="surface20" clip-path="url(#clip6)">
<path style=" stroke:none;fill-rule:nonzero;fill:rgb(27.843137%,90.196078%,69.411765%);fill-opacity:1;" d="M 3.515625 4.417969 L 3.738281 4.417969 L 3.738281 5.695312 L 3.515625 5.695312 Z M 3.515625 4.417969 "/>
<path style=" stroke:none;fill-rule:nonzero;fill:rgb(27.843137%,90.196078%,69.411765%);fill-opacity:1;" d="M 4.257812 4.945312 L 4.257812 5.167969 L 2.996094 5.167969 L 2.996094 4.945312 Z M 4.257812 4.945312 "/>
</g>
<mask id="mask6">
  <g filter="url(#alpha)">
<rect x="0" y="0" width="59" height="43" style="fill:rgb(0%,0%,0%);fill-opacity:0.501961;stroke:none;"/>
  </g>
</mask>
<clipPath id="clip7">
  <rect x="0" y="0" width="59" height="43"/>
</clipPath>
<g id="surface23" clip-path="url(#clip7)">
<path style=" stroke:none;fill-rule:nonzero;fill:rgb(27.843137%,90.196078%,69.411765%);fill-opacity:1;" d="M 51.609375 2.472656 L 51.832031 2.472656 L 51.832031 3.746094 L 51.609375 3.746094 Z M 51.609375 2.472656 "/>
<path style=" stroke:none;fill-rule:nonzero;fill:rgb(27.843137%,90.196078%,69.411765%);fill-opacity:1;" d="M 52.351562 2.996094 L 52.351562 3.222656 L 51.089844 3.222656 L 51.089844 2.996094 Z M 52.351562 2.996094 "/>
</g>
<mask id="mask7">
  <g filter="url(#alpha)">
<rect x="0" y="0" width="59" height="43" style="fill:rgb(0%,0%,0%);fill-opacity:0.501961;stroke:none;"/>
  </g>
</mask>
<clipPath id="clip8">
  <rect x="0" y="0" width="59" height="43"/>
</clipPath>
<g id="surface26" clip-path="url(#clip8)">
<path style=" stroke:none;fill-rule:nonzero;fill:rgb(30.196078%,54.117647%,94.117647%);fill-opacity:1;" d="M 0.910156 18.988281 C 0.785156 18.929688 0.71875 18.789062 0.761719 18.65625 C 0.761719 18.644531 0.765625 18.632812 0.765625 18.625 C 0.769531 18.5625 0.734375 18.507812 0.675781 18.484375 C 0.621094 18.464844 0.558594 18.484375 0.519531 18.53125 C 0.515625 18.539062 0.507812 18.550781 0.503906 18.558594 C 0.449219 18.6875 0.308594 18.753906 0.175781 18.714844 C 0.164062 18.710938 0.15625 18.707031 0.144531 18.707031 C 0.0859375 18.703125 0.03125 18.738281 0.0078125 18.796875 C -0.0117188 18.855469 0.0078125 18.917969 0.0546875 18.953125 C 0.0625 18.960938 0.0703125 18.964844 0.0820312 18.96875 C 0.207031 19.027344 0.273438 19.167969 0.234375 19.304688 C 0.230469 19.3125 0.226562 19.324219 0.226562 19.332031 C 0.222656 19.394531 0.261719 19.449219 0.316406 19.472656 C 0.375 19.492188 0.4375 19.472656 0.472656 19.425781 C 0.480469 19.417969 0.484375 19.40625 0.488281 19.398438 C 0.542969 19.269531 0.683594 19.203125 0.816406 19.246094 C 0.828125 19.246094 0.839844 19.25 0.847656 19.25 C 0.910156 19.253906 0.964844 19.21875 0.984375 19.160156 C 1.003906 19.101562 0.988281 19.039062 0.9375 19.003906 C 0.929688 18.996094 0.921875 18.992188 0.910156 18.988281 Z M 0.910156 18.988281 "/>
</g>
<mask id="mask8">
  <g filter="url(#alpha)">
<rect x="0" y="0" width="59" height="43" style="fill:rgb(0%,0%,0%);fill-opacity:0.501961;stroke:none;"/>
  </g>
</mask>
<clipPath id="clip9">
  <rect x="0" y="0" width="59" height="43"/>
</clipPath>
<g id="surface29" clip-path="url(#clip9)">
<path style=" stroke:none;fill-rule:nonzero;fill:rgb(30.196078%,54.117647%,94.117647%);fill-opacity:1;" d="M 13.675781 4.230469 C 13.550781 4.171875 13.484375 4.03125 13.523438 3.898438 C 13.527344 3.886719 13.53125 3.875 13.53125 3.867188 C 13.535156 3.804688 13.5 3.75 13.441406 3.726562 C 13.386719 3.707031 13.320312 3.726562 13.285156 3.773438 C 13.277344 3.78125 13.273438 3.792969 13.269531 3.800781 C 13.214844 3.929688 13.074219 3.996094 12.941406 3.957031 C 12.929688 3.953125 12.921875 3.949219 12.910156 3.949219 C 12.851562 3.945312 12.792969 3.980469 12.773438 4.039062 C 12.753906 4.097656 12.769531 4.160156 12.820312 4.195312 C 12.828125 4.203125 12.835938 4.207031 12.847656 4.210938 C 12.972656 4.269531 13.039062 4.410156 13 4.546875 C 12.996094 4.554688 12.992188 4.566406 12.992188 4.574219 C 12.988281 4.636719 13.023438 4.691406 13.082031 4.714844 C 13.136719 4.734375 13.203125 4.714844 13.238281 4.667969 C 13.246094 4.660156 13.25 4.648438 13.253906 4.640625 C 13.308594 4.511719 13.449219 4.445312 13.582031 4.488281 C 13.59375 4.488281 13.601562 4.492188 13.613281 4.492188 C 13.671875 4.496094 13.730469 4.460938 13.75 4.402344 C 13.769531 4.34375 13.75 4.28125 13.703125 4.246094 C 13.695312 4.238281 13.6875 4.234375 13.675781 4.230469 Z M 13.675781 4.230469 "/>
</g>
<mask id="mask9">
  <g filter="url(#alpha)">
<rect x="0" y="0" width="59" height="43" style="fill:rgb(0%,0%,0%);fill-opacity:0.501961;stroke:none;"/>
  </g>
</mask>
<clipPath id="clip10">
  <rect x="0" y="0" width="59" height="43"/>
</clipPath>
<g id="surface32" clip-path="url(#clip10)">
<path style=" stroke:none;fill-rule:nonzero;fill:rgb(30.196078%,54.117647%,94.117647%);fill-opacity:1;" d="M 29.261719 42.511719 C 29.132812 42.453125 29.070312 42.3125 29.109375 42.175781 C 29.113281 42.167969 29.113281 42.15625 29.117188 42.148438 C 29.121094 42.085938 29.082031 42.03125 29.027344 42.007812 C 28.96875 41.988281 28.90625 42.007812 28.871094 42.054688 C 28.863281 42.0625 28.859375 42.074219 28.855469 42.082031 C 28.800781 42.210938 28.65625 42.277344 28.523438 42.234375 C 28.515625 42.230469 28.503906 42.230469 28.496094 42.230469 C 28.433594 42.226562 28.378906 42.261719 28.359375 42.320312 C 28.335938 42.375 28.355469 42.441406 28.40625 42.476562 C 28.414062 42.484375 28.421875 42.488281 28.429688 42.492188 C 28.558594 42.546875 28.625 42.691406 28.582031 42.824219 C 28.582031 42.835938 28.578125 42.847656 28.578125 42.855469 C 28.574219 42.917969 28.609375 42.972656 28.667969 42.992188 C 28.722656 43.015625 28.785156 42.996094 28.824219 42.949219 C 28.828125 42.9375 28.835938 42.929688 28.839844 42.921875 C 28.894531 42.792969 29.035156 42.726562 29.167969 42.765625 C 29.175781 42.769531 29.1875 42.773438 29.199219 42.773438 C 29.257812 42.777344 29.3125 42.738281 29.335938 42.683594 C 29.355469 42.625 29.335938 42.5625 29.289062 42.523438 C 29.28125 42.519531 29.269531 42.515625 29.261719 42.511719 Z M 29.261719 42.511719 "/>
</g>
<mask id="mask10">
  <g filter="url(#alpha)">
<rect x="0" y="0" width="59" height="43" style="fill:rgb(0%,0%,0%);fill-opacity:0.501961;stroke:none;"/>
  </g>
</mask>
<clipPath id="clip11">
  <rect x="0" y="0" width="59" height="43"/>
</clipPath>
<g id="surface35" clip-path="url(#clip11)">
<path style=" stroke:none;fill-rule:nonzero;fill:rgb(96.078431%,37.254902%,26.666667%);fill-opacity:1;" d="M 56.804688 33.261719 C 56.804688 33.507812 56.601562 33.710938 56.359375 33.710938 C 56.113281 33.710938 55.914062 33.507812 55.914062 33.261719 C 55.914062 33.011719 56.113281 32.8125 56.359375 32.8125 C 56.601562 32.8125 56.804688 33.011719 56.804688 33.261719 Z M 56.804688 33.261719 "/>
</g>
<mask id="mask11">
  <g filter="url(#alpha)">
<rect x="0" y="0" width="59" height="43" style="fill:rgb(0%,0%,0%);fill-opacity:0.501961;stroke:none;"/>
  </g>
</mask>
<clipPath id="clip12">
  <rect x="0" y="0" width="59" height="43"/>
</clipPath>
<g id="surface38" clip-path="url(#clip12)">
<path style=" stroke:none;fill-rule:nonzero;fill:rgb(30.196078%,54.117647%,94.117647%);fill-opacity:1;" d="M 47.007812 36.109375 C 47.007812 36.355469 46.808594 36.558594 46.5625 36.558594 C 46.316406 36.558594 46.117188 36.355469 46.117188 36.109375 C 46.117188 35.859375 46.316406 35.660156 46.5625 35.660156 C 46.808594 35.660156 47.007812 35.859375 47.007812 36.109375 Z M 47.007812 36.109375 "/>
</g>
<mask id="mask12">
  <g filter="url(#alpha)">
<rect x="0" y="0" width="59" height="43" style="fill:rgb(0%,0%,0%);fill-opacity:0.501961;stroke:none;"/>
  </g>
</mask>
<clipPath id="clip13">
  <rect x="0" y="0" width="59" height="43"/>
</clipPath>
<g id="surface41" clip-path="url(#clip13)">
<path style=" stroke:none;fill-rule:nonzero;fill:rgb(27.843137%,90.196078%,69.411765%);fill-opacity:1;" d="M 8.117188 40.527344 C 8.117188 40.777344 7.917969 40.976562 7.671875 40.976562 C 7.425781 40.976562 7.226562 40.777344 7.226562 40.527344 C 7.226562 40.28125 7.425781 40.078125 7.671875 40.078125 C 7.917969 40.078125 8.117188 40.28125 8.117188 40.527344 Z M 8.117188 40.527344 "/>
</g>
<mask id="mask13">
  <g filter="url(#alpha)">
<rect x="0" y="0" width="59" height="43" style="fill:rgb(0%,0%,0%);fill-opacity:0.501961;stroke:none;"/>
  </g>
</mask>
<clipPath id="clip14">
  <rect x="0" y="0" width="59" height="43"/>
</clipPath>
<g id="surface44" clip-path="url(#clip14)">
<path style=" stroke:none;fill-rule:nonzero;fill:rgb(96.078431%,37.254902%,26.666667%);fill-opacity:1;" d="M 30.976562 0.449219 C 30.976562 0.699219 30.777344 0.898438 30.53125 0.898438 C 30.285156 0.898438 30.085938 0.699219 30.085938 0.449219 C 30.085938 0.203125 30.285156 0 30.53125 0 C 30.777344 0 30.976562 0.203125 30.976562 0.449219 Z M 30.976562 0.449219 "/>
</g>
<mask id="mask14">
  <g filter="url(#alpha)">
<rect x="0" y="0" width="59" height="43" style="fill:rgb(0%,0%,0%);fill-opacity:0.14902;stroke:none;"/>
  </g>
</mask>
<clipPath id="clip15">
  <rect x="0" y="0" width="59" height="43"/>
</clipPath>
<g id="surface47" clip-path="url(#clip15)">
<path style=" stroke:none;fill-rule:nonzero;fill:rgb(0%,0%,0%);fill-opacity:1;" d="M 15.207031 26.78125 L 13.425781 29.476562 C 13.425781 29.476562 14.019531 32.25 27.15625 32.175781 C 40.289062 32.101562 41.328125 29.476562 41.328125 29.476562 L 38.878906 25.882812 L 31.382812 20.714844 Z M 15.207031 26.78125 "/>
</g>
<mask id="mask15">
  <g filter="url(#alpha)">
<rect x="0" y="0" width="59" height="43" style="fill:rgb(0%,0%,0%);fill-opacity:0.14902;stroke:none;"/>
  </g>
</mask>
<clipPath id="clip16">
  <rect x="0" y="0" width="59" height="43"/>
</clipPath>
<g id="surface50" clip-path="url(#clip16)">
<path style=" stroke:none;fill-rule:nonzero;fill:rgb(0%,0%,0%);fill-opacity:1;" d="M 53.09375 16.78125 L 29.714844 27.195312 L 1.214844 16.78125 L 27.339844 4.792969 L 40.164062 10.761719 L 40.621094 10.976562 Z M 53.09375 16.78125 "/>
</g>
</defs>
<g id="surface1">
<path style=" stroke:none;fill-rule:nonzero;fill:rgb(87.843137%,87.843137%,87.843137%);fill-opacity:1;" d="M 3.367188 19.152344 C 3.171875 19.054688 2.496094 20.03125 1.859375 21.332031 C 1.21875 22.632812 0.855469 23.765625 1.050781 23.863281 C 1.242188 23.957031 1.917969 22.984375 2.558594 21.683594 C 3.199219 20.382812 3.558594 19.25 3.367188 19.152344 Z M 3.367188 19.152344 "/>
<path style=" stroke:none;fill-rule:nonzero;fill:rgb(87.843137%,87.843137%,87.843137%);fill-opacity:1;" d="M 35.910156 35.464844 C 35.777344 35.402344 35.152344 36.402344 34.515625 37.703125 C 33.875 39.003906 33.464844 40.109375 33.59375 40.175781 C 33.726562 40.242188 34.351562 39.242188 34.992188 37.941406 C 35.628906 36.640625 36.042969 35.53125 35.910156 35.464844 Z M 35.910156 35.464844 "/>
<path style=" stroke:none;fill-rule:nonzero;fill:rgb(96.078431%,37.254902%,26.666667%);fill-opacity:1;" d="M 16.355469 30.359375 L 17.5625 31.367188 L 14.246094 35.417969 L 13.039062 34.414062 Z M 16.355469 30.359375 "/>
<use xlink:href="#surface5" mask="url(#mask0)"/>
<path style=" stroke:none;fill-rule:nonzero;fill:rgb(96.078431%,37.254902%,26.666667%);fill-opacity:1;" d="M 16.503906 36.148438 L 14.980469 35.789062 L 16.171875 30.671875 L 17.695312 31.03125 Z M 16.503906 36.148438 "/>
<path style=" stroke:none;fill-rule:nonzero;fill:url(#linear0);" d="M 0.992188 23.980469 L 3.421875 19.035156 L 35.96875 35.335938 L 33.539062 40.28125 Z M 0.992188 23.980469 "/>
<path style=" stroke:none;fill-rule:nonzero;fill:rgb(96.078431%,96.078431%,96.078431%);fill-opacity:1;" d="M 33.597656 40.164062 C 32.960938 39.855469 0.582031 23.628906 1.050781 23.863281 C 2.847656 21.09375 3.367188 19.152344 3.367188 19.152344 L 35.914062 35.453125 C 35.914062 35.453125 34.769531 37.476562 33.597656 40.164062 Z M 33.597656 40.164062 "/>
<use xlink:href="#surface8" mask="url(#mask1)"/>
<path style=" stroke:none;fill-rule:nonzero;fill:rgb(96.078431%,37.254902%,26.666667%);fill-opacity:1;" d="M 17.714844 26.339844 L 20.164062 27.566406 L 17.847656 32.273438 L 15.398438 31.046875 Z M 17.714844 26.339844 "/>
<use xlink:href="#surface11" mask="url(#mask2)"/>
<path style=" stroke:none;fill-rule:nonzero;fill:rgb(96.078431%,37.254902%,26.666667%);fill-opacity:1;" d="M 18.179688 26.570312 L 19.582031 27.273438 L 17.265625 31.984375 L 15.867188 31.28125 Z M 18.179688 26.570312 "/>
<path style=" stroke:none;fill-rule:nonzero;fill:rgb(85.882353%,85.882353%,85.882353%);fill-opacity:1;" d="M 19.609375 42.246094 C 19.609375 42.367188 19.511719 42.464844 19.390625 42.464844 C 19.273438 42.464844 19.175781 42.367188 19.175781 42.246094 C 19.175781 42.125 19.273438 42.027344 19.390625 42.027344 C 19.511719 42.027344 19.609375 42.125 19.609375 42.246094 Z M 19.609375 42.246094 "/>
<use xlink:href="#surface14" mask="url(#mask3)"/>
<use xlink:href="#surface17" mask="url(#mask4)"/>
<use xlink:href="#surface20" mask="url(#mask5)"/>
<use xlink:href="#surface23" mask="url(#mask6)"/>
<use xlink:href="#surface26" mask="url(#mask7)"/>
<use xlink:href="#surface29" mask="url(#mask8)"/>
<use xlink:href="#surface32" mask="url(#mask9)"/>
<use xlink:href="#surface35" mask="url(#mask10)"/>
<use xlink:href="#surface38" mask="url(#mask11)"/>
<use xlink:href="#surface41" mask="url(#mask12)"/>
<use xlink:href="#surface44" mask="url(#mask13)"/>
<path style=" stroke:none;fill-rule:nonzero;fill:rgb(11.372549%,38.431373%,9.411765%);fill-opacity:1;" d="M 15.207031 26.78125 L 13.425781 29.476562 C 13.425781 29.476562 14.019531 32.25 27.15625 32.175781 C 40.289062 32.101562 41.328125 29.476562 41.328125 29.476562 L 38.878906 25.882812 L 31.382812 20.714844 Z M 15.207031 26.78125 "/>
<use xlink:href="#surface47" mask="url(#mask14)"/>
<path style=" stroke:none;fill-rule:nonzero;fill:rgb(11.372549%,38.431373%,9.411765%);fill-opacity:1;" d="M 53.09375 16.78125 L 29.714844 27.195312 L 1.214844 16.78125 L 27.339844 4.792969 L 40.164062 10.761719 L 40.621094 10.976562 Z M 53.09375 16.78125 "/>
<use xlink:href="#surface50" mask="url(#mask15)"/>
<path style=" stroke:none;fill-rule:nonzero;fill:rgb(96.078431%,96.078431%,96.078431%);fill-opacity:1;" d="M 41.105469 19.277344 L 40.660156 19.304688 L 40.164062 10.761719 L 40.621094 10.976562 Z M 41.105469 19.277344 "/>
<path style=" stroke:none;fill-rule:nonzero;fill:rgb(11.372549%,38.431373%,9.411765%);fill-opacity:1;" d="M 15.503906 16.742188 L 13.425781 29.476562 C 13.425781 29.476562 28.34375 24.609375 41.328125 29.476562 L 39.398438 15.992188 C 39.398438 15.992188 21.960938 13.820312 15.503906 16.742188 Z M 15.503906 16.742188 "/>
<path style=" stroke:none;fill-rule:nonzero;fill:rgb(96.078431%,96.078431%,96.078431%);fill-opacity:1;" d="M 43.222656 20.375 C 43.222656 19.550781 42.257812 18.878906 41.070312 18.878906 C 39.882812 18.878906 38.917969 19.550781 38.917969 20.375 C 38.917969 21.203125 39.882812 21.875 41.070312 21.875 C 42.257812 21.875 43.222656 21.203125 43.222656 20.375 Z M 43.222656 20.375 "/>
</g>
</svg>
