<?xml version="1.0" encoding="UTF-8"?>
<svg xmlns="http://www.w3.org/2000/svg" xmlns:xlink="http://www.w3.org/1999/xlink" width="59pt" height="40pt" viewBox="0 0 59 40" version="1.1">
<defs>
<filter id="alpha" filterUnits="objectBoundingBox" x="0%" y="0%" width="100%" height="100%">
  <feColorMatrix type="matrix" in="SourceGraphic" values="0 0 0 0 1 0 0 0 0 1 0 0 0 0 1 0 0 0 1 0"/>
</filter>
<mask id="mask0">
  <g filter="url(#alpha)">
<rect x="0" y="0" width="59" height="40" style="fill:rgb(0%,0%,0%);fill-opacity:0.301961;stroke:none;"/>
  </g>
</mask>
<clipPath id="clip1">
  <rect width="59" height="40"/>
</clipPath>
<g id="surface6" clip-path="url(#clip1)">
<path style=" stroke:none;fill-rule:nonzero;fill:rgb(11.372549%,38.431373%,9.411765%);fill-opacity:1;" d="M 38.710938 7.121094 C 38.691406 7.074219 38.65625 7.035156 38.609375 7.011719 C 38.582031 6.996094 38.550781 6.984375 38.519531 6.976562 C 38.542969 6.964844 38.5625 6.949219 38.578125 6.933594 C 38.601562 6.910156 38.621094 6.882812 38.632812 6.847656 C 38.644531 6.816406 38.648438 6.777344 38.644531 6.742188 C 38.644531 6.6875 38.628906 6.628906 38.597656 6.578125 C 38.566406 6.535156 38.519531 6.5 38.464844 6.480469 C 38.414062 6.460938 38.359375 6.449219 38.304688 6.445312 L 38.304688 6.210938 L 38.164062 6.300781 L 38.164062 6.445312 L 38.050781 6.445312 L 38.050781 6.296875 L 37.902344 6.210938 L 37.902344 6.445312 L 37.59375 6.445312 L 37.695312 6.625 C 37.714844 6.621094 37.738281 6.625 37.757812 6.632812 C 37.765625 6.636719 37.773438 6.644531 37.78125 6.65625 C 37.785156 6.675781 37.789062 6.695312 37.785156 6.71875 L 37.785156 7.359375 C 37.789062 7.378906 37.785156 7.402344 37.78125 7.421875 C 37.773438 7.433594 37.773438 7.441406 37.761719 7.445312 C 37.75 7.449219 37.75 7.449219 37.71875 7.449219 L 37.59375 7.628906 L 37.902344 7.628906 L 37.902344 7.863281 L 38.046875 7.863281 L 38.046875 7.628906 L 38.164062 7.628906 L 38.164062 7.863281 L 38.304688 7.863281 L 38.304688 7.625 C 38.375 7.625 38.445312 7.613281 38.515625 7.589844 C 38.578125 7.566406 38.632812 7.523438 38.671875 7.472656 C 38.707031 7.414062 38.726562 7.351562 38.730469 7.28125 C 38.734375 7.230469 38.726562 7.175781 38.710938 7.121094 Z M 38.046875 6.644531 L 38.046875 6.640625 L 38.148438 6.640625 C 38.203125 6.640625 38.390625 6.621094 38.394531 6.78125 C 38.394531 6.9375 38.148438 6.929688 38.148438 6.929688 L 38.046875 6.929688 Z M 38.046875 7.097656 L 38.164062 7.097656 C 38.183594 7.097656 38.265625 7.101562 38.292969 7.101562 C 38.304688 7.101562 38.316406 7.105469 38.328125 7.109375 C 38.332031 7.109375 38.335938 7.109375 38.339844 7.113281 C 38.359375 7.117188 38.375 7.128906 38.390625 7.136719 C 38.398438 7.144531 38.40625 7.152344 38.414062 7.164062 C 38.425781 7.179688 38.433594 7.195312 38.4375 7.214844 C 38.441406 7.226562 38.441406 7.242188 38.441406 7.253906 C 38.445312 7.28125 38.4375 7.304688 38.425781 7.328125 C 38.40625 7.355469 38.378906 7.378906 38.347656 7.390625 C 38.289062 7.417969 38.226562 7.429688 38.164062 7.429688 L 38.046875 7.429688 Z M 38.046875 7.097656 "/>
</g>
<mask id="mask1">
  <g filter="url(#alpha)">
<rect x="0" y="0" width="59" height="40" style="fill:rgb(0%,0%,0%);fill-opacity:0.101961;stroke:none;"/>
  </g>
</mask>
<clipPath id="clip2">
  <rect width="59" height="40"/>
</clipPath>
<g id="surface9" clip-path="url(#clip2)">
<path style=" stroke:none;fill-rule:nonzero;fill:rgb(0%,0%,0%);fill-opacity:1;" d="M 52.703125 39.742188 C 52.660156 39.796875 52.617188 39.84375 52.585938 39.882812 C 52.511719 39.96875 52.472656 40.011719 52.472656 40.011719 C 52.472656 40.011719 52.421875 39.949219 52.335938 39.828125 C 51.871094 39.175781 50.371094 36.851562 50.484375 34.167969 C 50.492188 34.027344 50.503906 33.890625 50.515625 33.753906 C 50.605469 33.847656 50.691406 33.945312 50.773438 34.046875 C 52.527344 36.171875 52.691406 39.035156 52.703125 39.742188 Z M 52.703125 39.742188 "/>
</g>
<mask id="mask2">
  <g filter="url(#alpha)">
<rect x="0" y="0" width="59" height="40" style="fill:rgb(0%,0%,0%);fill-opacity:0.101961;stroke:none;"/>
  </g>
</mask>
<clipPath id="clip3">
  <rect width="59" height="40"/>
</clipPath>
<g id="surface12" clip-path="url(#clip3)">
<path style=" stroke:none;fill-rule:nonzero;fill:rgb(0%,0%,0%);fill-opacity:1;" d="M 36.425781 31.859375 C 34.972656 32.519531 33.101562 32.472656 33.101562 32.472656 L 31.078125 32.472656 L 31.078125 32.085938 C 31.90625 31.855469 33.042969 31.710938 34.304688 31.710938 C 35.015625 31.707031 35.722656 31.757812 36.425781 31.859375 Z M 36.425781 31.859375 "/>
</g>
<mask id="mask3">
  <g filter="url(#alpha)">
<rect x="0" y="0" width="59" height="40" style="fill:rgb(0%,0%,0%);fill-opacity:0.101961;stroke:none;"/>
  </g>
</mask>
<clipPath id="clip4">
  <rect width="59" height="40"/>
</clipPath>
<g id="surface15" clip-path="url(#clip4)">
<path style=" stroke:none;fill-rule:nonzero;fill:rgb(0%,0%,0%);fill-opacity:1;" d="M 38.859375 32.984375 C 38.859375 33.6875 36.820312 34.253906 34.304688 34.253906 C 31.789062 34.253906 29.75 33.6875 29.75 32.984375 C 29.75 32.632812 30.257812 32.316406 31.078125 32.085938 L 31.078125 32.472656 L 33.101562 32.472656 C 33.101562 32.472656 34.972656 32.519531 36.425781 31.859375 C 37.871094 32.070312 38.859375 32.492188 38.859375 32.984375 Z M 38.859375 32.984375 "/>
</g>
<mask id="mask4">
  <g filter="url(#alpha)">
<rect x="0" y="0" width="59" height="40" style="fill:rgb(0%,0%,0%);fill-opacity:0.101961;stroke:none;"/>
  </g>
</mask>
<clipPath id="clip5">
  <rect width="59" height="40"/>
</clipPath>
<g id="surface18" clip-path="url(#clip5)">
<path style=" stroke:none;fill-rule:nonzero;fill:rgb(0%,0%,0%);fill-opacity:1;" d="M 33.667969 26.445312 C 33.667969 26.445312 33.828125 27.007812 33.550781 27.046875 C 33.375 27.074219 33.210938 27.144531 33.066406 27.25 L 33.589844 27.9375 L 34.550781 27.9375 L 35.152344 27.332031 C 35.152344 27.332031 34.351562 26.726562 34.511719 26.363281 C 34.671875 26 33.667969 26.445312 33.667969 26.445312 Z M 33.667969 26.445312 "/>
</g>
<mask id="mask5">
  <g filter="url(#alpha)">
<rect x="0" y="0" width="59" height="40" style="fill:rgb(0%,0%,0%);fill-opacity:0.2;stroke:none;"/>
  </g>
</mask>
<clipPath id="clip6">
  <rect width="59" height="40"/>
</clipPath>
<g id="surface21" clip-path="url(#clip6)">
<path style=" stroke:none;fill-rule:nonzero;fill:rgb(0%,0%,0%);fill-opacity:1;" d="M 32.546875 31.484375 C 32.546875 31.484375 31.785156 32.53125 32.347656 32.8125 C 32.90625 33.097656 35.59375 33.097656 35.792969 32.8125 C 35.996094 32.53125 36.074219 31.644531 35.792969 31.5625 C 35.511719 31.484375 32.546875 31.484375 32.546875 31.484375 Z M 32.546875 31.484375 "/>
</g>
<mask id="mask6">
  <g filter="url(#alpha)">
<rect x="0" y="0" width="59" height="40" style="fill:rgb(0%,0%,0%);fill-opacity:0.2;stroke:none;"/>
  </g>
</mask>
<clipPath id="clip7">
  <rect width="59" height="40"/>
</clipPath>
<g id="surface24" clip-path="url(#clip7)">
<path style="fill:none;stroke-width:2;stroke-linecap:butt;stroke-linejoin:miter;stroke:rgb(0%,0%,0%);stroke-opacity:1;stroke-miterlimit:10;" d="M 713.93173 626.014365 C 713.93173 626.014365 708.248732 628.594248 706.333809 630.498447 C 704.418885 632.402646 696.203247 635.535361 696.203247 635.535361 " transform="matrix(0.0632369,0,0,0.063593,-8.431964,-8.610916)"/>
</g>
<mask id="mask7">
  <g filter="url(#alpha)">
<rect x="0" y="0" width="59" height="40" style="fill:rgb(0%,0%,0%);fill-opacity:0.2;stroke:none;"/>
  </g>
</mask>
<clipPath id="clip8">
  <rect width="59" height="40"/>
</clipPath>
<g id="surface27" clip-path="url(#clip8)">
<path style="fill:none;stroke-width:2;stroke-linecap:butt;stroke-linejoin:miter;stroke:rgb(0%,0%,0%);stroke-opacity:1;stroke-miterlimit:10;" d="M 635.975824 629.208505 C 635.975824 629.208505 642.338311 634.306845 648.021309 635.535361 C 653.704306 636.825302 655.61923 640.019443 655.61923 640.019443 " transform="matrix(0.0632369,0,0,0.063593,-8.431964,-8.610916)"/>
</g>
<mask id="mask8">
  <g filter="url(#alpha)">
<rect x="0" y="0" width="59" height="40" style="fill:rgb(0%,0%,0%);fill-opacity:0.301961;stroke:none;"/>
  </g>
</mask>
<clipPath id="clip9">
  <rect width="59" height="40"/>
</clipPath>
<g id="surface30" clip-path="url(#clip9)">
<path style=" stroke:none;fill-rule:nonzero;fill:rgb(11.372549%,38.431373%,9.411765%);fill-opacity:1;" d="M 48.894531 23.574219 C 48.878906 23.539062 48.851562 23.507812 48.816406 23.488281 C 48.796875 23.476562 48.773438 23.464844 48.75 23.460938 C 48.765625 23.453125 48.78125 23.441406 48.792969 23.425781 C 48.8125 23.410156 48.828125 23.386719 48.835938 23.359375 C 48.84375 23.335938 48.847656 23.308594 48.84375 23.28125 C 48.84375 23.234375 48.832031 23.191406 48.808594 23.152344 C 48.78125 23.117188 48.746094 23.089844 48.707031 23.074219 C 48.664062 23.058594 48.625 23.050781 48.582031 23.046875 L 48.582031 22.867188 L 48.46875 22.9375 L 48.46875 23.050781 L 48.382812 23.050781 L 48.382812 22.929688 L 48.269531 22.867188 L 48.269531 23.050781 L 48.027344 23.050781 L 48.105469 23.1875 C 48.121094 23.183594 48.140625 23.1875 48.15625 23.191406 C 48.164062 23.195312 48.167969 23.203125 48.171875 23.210938 C 48.175781 23.226562 48.179688 23.242188 48.175781 23.261719 L 48.175781 23.757812 C 48.179688 23.773438 48.175781 23.789062 48.171875 23.808594 C 48.167969 23.816406 48.167969 23.820312 48.160156 23.824219 C 48.148438 23.828125 48.148438 23.828125 48.125 23.828125 L 48.027344 23.964844 L 48.269531 23.964844 L 48.269531 24.148438 L 48.382812 24.148438 L 48.382812 23.964844 L 48.46875 23.964844 L 48.46875 24.148438 L 48.578125 24.148438 L 48.578125 23.964844 C 48.636719 23.964844 48.691406 23.953125 48.742188 23.9375 C 48.792969 23.917969 48.835938 23.886719 48.867188 23.84375 C 48.894531 23.800781 48.910156 23.75 48.910156 23.699219 C 48.914062 23.65625 48.90625 23.613281 48.894531 23.574219 Z M 48.382812 23.203125 L 48.382812 23.199219 L 48.457031 23.199219 C 48.503906 23.199219 48.644531 23.183594 48.648438 23.308594 C 48.652344 23.429688 48.457031 23.425781 48.457031 23.425781 L 48.382812 23.425781 Z M 48.382812 23.554688 L 48.46875 23.554688 C 48.488281 23.554688 48.550781 23.554688 48.570312 23.558594 C 48.582031 23.558594 48.589844 23.558594 48.597656 23.5625 C 48.601562 23.5625 48.605469 23.566406 48.609375 23.566406 C 48.621094 23.570312 48.632812 23.578125 48.644531 23.585938 C 48.652344 23.589844 48.660156 23.597656 48.664062 23.605469 C 48.675781 23.617188 48.679688 23.632812 48.683594 23.644531 C 48.6875 23.65625 48.6875 23.664062 48.6875 23.675781 C 48.6875 23.695312 48.683594 23.714844 48.675781 23.734375 C 48.660156 23.753906 48.640625 23.773438 48.613281 23.785156 C 48.570312 23.804688 48.519531 23.8125 48.46875 23.8125 L 48.382812 23.8125 Z M 48.382812 23.554688 "/>
</g>
<mask id="mask9">
  <g filter="url(#alpha)">
<rect x="0" y="0" width="59" height="40" style="fill:rgb(0%,0%,0%);fill-opacity:0.301961;stroke:none;"/>
  </g>
</mask>
<clipPath id="clip10">
  <rect width="59" height="40"/>
</clipPath>
<g id="surface33" clip-path="url(#clip10)">
<path style=" stroke:none;fill-rule:nonzero;fill:rgb(11.372549%,38.431373%,9.411765%);fill-opacity:1;" d="M 4.503906 27.582031 C 4.488281 27.542969 4.460938 27.511719 4.425781 27.496094 C 4.402344 27.480469 4.378906 27.472656 4.355469 27.464844 C 4.371094 27.457031 4.386719 27.445312 4.402344 27.433594 C 4.421875 27.414062 4.433594 27.394531 4.445312 27.367188 C 4.453125 27.339844 4.453125 27.3125 4.453125 27.285156 C 4.453125 27.242188 4.441406 27.195312 4.417969 27.15625 C 4.390625 27.121094 4.355469 27.09375 4.3125 27.082031 C 4.273438 27.066406 4.230469 27.054688 4.1875 27.054688 L 4.1875 26.871094 L 4.078125 26.945312 L 4.078125 27.054688 L 3.988281 27.054688 L 3.988281 26.9375 L 3.875 26.871094 L 3.875 27.054688 L 3.636719 27.054688 L 3.714844 27.191406 C 3.730469 27.191406 3.746094 27.195312 3.761719 27.199219 C 3.769531 27.203125 3.777344 27.210938 3.78125 27.214844 C 3.785156 27.234375 3.785156 27.25 3.785156 27.265625 L 3.785156 27.761719 C 3.785156 27.78125 3.785156 27.796875 3.78125 27.8125 C 3.777344 27.820312 3.773438 27.828125 3.765625 27.832031 C 3.757812 27.835938 3.757812 27.835938 3.734375 27.835938 L 3.636719 27.972656 L 3.875 27.972656 L 3.875 28.15625 L 3.988281 28.15625 L 3.988281 27.972656 L 4.078125 27.972656 L 4.078125 28.15625 L 4.1875 28.15625 L 4.1875 27.972656 C 4.242188 27.972656 4.296875 27.960938 4.351562 27.941406 C 4.398438 27.925781 4.441406 27.894531 4.472656 27.851562 C 4.503906 27.808594 4.515625 27.757812 4.519531 27.707031 C 4.519531 27.664062 4.515625 27.621094 4.503906 27.582031 Z M 3.988281 27.210938 L 3.988281 27.207031 L 4.066406 27.207031 C 4.109375 27.207031 4.253906 27.191406 4.257812 27.3125 C 4.257812 27.4375 4.066406 27.433594 4.066406 27.433594 L 3.988281 27.433594 Z M 3.988281 27.558594 L 4.078125 27.558594 C 4.09375 27.558594 4.15625 27.5625 4.179688 27.5625 C 4.1875 27.5625 4.199219 27.566406 4.207031 27.570312 C 4.210938 27.570312 4.210938 27.570312 4.214844 27.574219 C 4.230469 27.578125 4.242188 27.585938 4.253906 27.59375 C 4.261719 27.597656 4.269531 27.605469 4.273438 27.613281 C 4.28125 27.625 4.289062 27.636719 4.292969 27.652344 C 4.292969 27.660156 4.296875 27.671875 4.296875 27.683594 C 4.296875 27.703125 4.292969 27.722656 4.28125 27.738281 C 4.265625 27.761719 4.246094 27.78125 4.222656 27.789062 C 4.175781 27.808594 4.128906 27.820312 4.078125 27.816406 L 3.988281 27.816406 Z M 3.988281 27.558594 "/>
</g>
</defs>
<g id="surface1">
<path style=" stroke:none;fill-rule:nonzero;fill:rgb(94.901961%,94.901961%,94.901961%);fill-opacity:1;" d="M 40.1875 7.039062 C 40.1875 8.160156 39.28125 9.070312 38.164062 9.070312 C 37.042969 9.070312 36.140625 8.160156 36.140625 7.039062 C 36.140625 5.914062 37.042969 5.003906 38.164062 5.003906 C 39.28125 5.003906 40.1875 5.914062 40.1875 7.039062 Z M 40.1875 7.039062 "/>
<path style=" stroke:none;fill-rule:nonzero;fill:rgb(94.901961%,94.901961%,94.901961%);fill-opacity:1;" d="M 11.320312 0 L 45.949219 21.308594 L 34.628906 39.914062 L 0 18.605469 Z M 11.320312 0 "/>
<path style=" stroke:none;fill-rule:nonzero;fill:rgb(24.705882%,23.921569%,33.72549%);fill-opacity:1;" d="M 42.875 27.207031 C 42.558594 26.476562 42.070312 25.835938 41.097656 25.292969 C 40.59375 25.007812 40.050781 24.792969 39.492188 24.660156 C 39.867188 24.480469 40.214844 24.246094 40.519531 23.960938 C 40.96875 23.558594 41.308594 23.046875 41.507812 22.476562 C 41.691406 21.898438 41.765625 21.289062 41.730469 20.683594 C 41.660156 19.617188 41.449219 18.578125 40.894531 17.835938 C 40.335938 17.089844 39.554688 16.519531 38.515625 16.117188 C 37.71875 15.8125 36.902344 15.621094 35.640625 15.550781 L 35.640625 11.488281 L 33.109375 13.078125 L 33.109375 15.558594 L 31.085938 15.558594 L 31.085938 12.953125 L 28.492188 11.488281 L 28.492188 15.558594 L 22.984375 15.558594 L 24.757812 18.609375 C 25.304688 18.613281 25.671875 18.664062 25.863281 18.757812 C 26.039062 18.832031 26.183594 18.96875 26.273438 19.140625 C 26.355469 19.296875 26.394531 19.671875 26.394531 20.25 L 26.394531 31.265625 C 26.394531 31.839844 26.355469 32.207031 26.273438 32.371094 C 26.191406 32.539062 26.148438 32.683594 25.953125 32.773438 C 25.753906 32.863281 25.75 32.855469 25.203125 32.855469 L 25.199219 32.855469 L 22.984375 35.910156 L 28.488281 35.910156 L 28.488281 39.976562 L 31.078125 39.976562 L 31.078125 35.910156 L 33.101562 35.910156 L 33.101562 39.976562 L 35.632812 39.976562 L 35.632812 35.882812 C 37.277344 35.800781 38.445312 35.585938 39.390625 35.226562 C 40.609375 34.769531 41.546875 34.101562 42.214844 33.226562 C 42.886719 32.347656 43.15625 31.003906 43.214844 29.96875 C 43.257812 29.046875 43.15625 27.859375 42.875 27.207031 Z M 31.078125 18.992188 L 31.082031 18.992188 L 31.082031 18.90625 L 32.847656 18.90625 C 33.84375 18.90625 37.15625 18.574219 37.214844 21.296875 C 37.269531 24.019531 32.847656 23.910156 32.847656 23.910156 L 31.082031 23.910156 L 31.082031 23.699219 L 31.078125 23.699219 Z M 31.078125 26.75 L 33.101562 26.75 C 33.515625 26.75 34.929688 26.8125 35.441406 26.835938 C 35.652344 26.84375 35.859375 26.882812 36.058594 26.949219 C 36.132812 26.972656 36.203125 27 36.277344 27.03125 C 36.589844 27.132812 36.882812 27.28125 37.148438 27.476562 C 37.320312 27.589844 37.472656 27.734375 37.597656 27.902344 C 37.652344 27.976562 37.703125 28.054688 37.75 28.136719 C 37.867188 28.339844 37.957031 28.5625 38.011719 28.792969 C 38.074219 29.011719 38.105469 29.242188 38.105469 29.472656 C 38.105469 29.96875 38.015625 30.378906 37.789062 30.726562 C 37.484375 31.238281 36.988281 31.601562 36.425781 31.859375 C 34.972656 32.519531 33.101562 32.472656 33.101562 32.472656 L 31.078125 32.472656 Z M 31.078125 26.75 "/>
<use xlink:href="#surface6" mask="url(#mask0)"/>
<path style=" stroke:none;fill-rule:nonzero;fill:rgb(100%,39.607843%,51.764706%);fill-opacity:1;" d="M 51.214844 29.511719 C 51.214844 29.921875 50.882812 30.257812 50.472656 30.257812 C 50.0625 30.257812 49.730469 29.921875 49.730469 29.511719 C 49.730469 29.097656 50.0625 28.765625 50.472656 28.765625 C 50.882812 28.765625 51.214844 29.097656 51.214844 29.511719 Z M 51.214844 29.511719 "/>
<path style="fill:none;stroke-width:2;stroke-linecap:butt;stroke-linejoin:miter;stroke:rgb(24.705882%,23.921569%,33.72549%);stroke-opacity:1;stroke-miterlimit:10;" d="M 890.624603 591.714551 L 890.624603 458.174902 " transform="matrix(0.0632369,0,0,0.063593,0,0)"/>
<path style=" stroke:none;fill-rule:nonzero;fill:rgb(24.705882%,23.921569%,33.72549%);fill-opacity:1;" d="M 57.511719 29.136719 C 57.511719 29.800781 56.976562 30.339844 56.320312 30.339844 C 55.660156 30.339844 55.125 29.800781 55.125 29.136719 C 55.125 28.476562 55.660156 27.9375 56.320312 27.9375 C 56.976562 27.9375 57.511719 28.476562 57.511719 29.136719 Z M 57.511719 29.136719 "/>
<path style=" stroke:none;fill-rule:nonzero;fill:rgb(24.705882%,23.921569%,33.72549%);fill-opacity:1;" d="M 53.964844 33.894531 C 52.242188 36.554688 52.714844 39.9375 52.714844 39.9375 C 52.714844 39.9375 55.984375 39.007812 57.707031 36.347656 C 59.433594 33.6875 58.960938 30.304688 58.960938 30.304688 C 58.960938 30.304688 55.691406 31.234375 53.964844 33.894531 Z M 53.964844 33.894531 "/>
<path style=" stroke:none;fill-rule:nonzero;fill:rgb(11.372549%,38.431373%,9.411765%);fill-opacity:1;" d="M 52.703125 39.90625 C 52.703125 39.90625 52.664062 39.898438 52.585938 39.882812 C 52.523438 39.871094 52.4375 39.851562 52.335938 39.828125 C 51.410156 39.609375 48.945312 38.867188 47.335938 36.914062 C 45.320312 34.46875 45.402344 31.054688 45.402344 31.054688 C 45.402344 31.054688 48.484375 31.554688 50.515625 33.753906 C 50.605469 33.847656 50.691406 33.945312 50.773438 34.046875 C 52.527344 36.171875 52.691406 39.035156 52.703125 39.742188 C 52.707031 39.847656 52.703125 39.90625 52.703125 39.90625 Z M 52.703125 39.90625 "/>
<path style="fill:none;stroke-width:2;stroke-linecap:butt;stroke-linejoin:miter;stroke:rgb(24.705882%,23.921569%,33.72549%);stroke-opacity:1;stroke-miterlimit:10;" d="M 947.119958 668.398154 C 974.423056 710.229111 966.948679 763.423838 966.948679 763.423838 C 966.948679 763.423838 915.245752 748.804502 887.942654 706.973545 C 860.701327 665.142588 868.175705 611.947861 868.175705 611.947861 C 868.175705 611.947861 919.878631 626.567197 947.119958 668.398154 Z M 947.119958 668.398154 " transform="matrix(0.0632369,0,0,0.063593,-8.431964,-8.610916)"/>
<use xlink:href="#surface9" mask="url(#mask1)"/>
<path style=" stroke:none;fill-rule:nonzero;fill:rgb(11.372549%,38.431373%,9.411765%);fill-opacity:1;" d="M 55.261719 34.363281 C 55.125 37.535156 52.785156 40.011719 52.785156 40.011719 C 52.785156 40.011719 50.664062 37.34375 50.796875 34.167969 C 50.933594 30.996094 53.277344 28.519531 53.277344 28.519531 C 53.277344 28.519531 55.398438 31.191406 55.261719 34.363281 Z M 55.261719 34.363281 "/>
<path style="fill:none;stroke-width:2;stroke-linecap:butt;stroke-linejoin:miter;stroke:rgb(24.705882%,23.921569%,33.72549%);stroke-opacity:1;stroke-miterlimit:10;" d="M 834.7212 627.771484 L 842.813294 450.558105 " transform="matrix(0.0632369,0,0,0.063593,0,0)"/>
<path style="fill:none;stroke-width:2;stroke-linecap:butt;stroke-linejoin:miter;stroke:rgb(24.705882%,23.921569%,33.72549%);stroke-opacity:1;stroke-miterlimit:10;" d="M 57.447696 627.955762 L 903.47312 627.955762 " transform="matrix(0.0632369,0,0,0.063593,0,0)"/>
<path style=" stroke:none;fill-rule:nonzero;fill:rgb(11.372549%,38.431373%,9.411765%);fill-opacity:1;" d="M 17.699219 23.472656 C 17.699219 24.972656 16.488281 26.1875 14.996094 26.1875 C 13.503906 26.1875 12.292969 24.972656 12.292969 23.472656 C 12.292969 21.96875 13.503906 20.753906 14.996094 20.753906 C 16.488281 20.753906 17.699219 21.96875 17.699219 23.472656 Z M 17.699219 23.472656 "/>
<path style=" stroke:none;fill-rule:nonzero;fill:rgb(11.372549%,38.431373%,9.411765%);fill-opacity:1;" d="M 13.105469 29.867188 C 13.105469 31.367188 11.894531 32.582031 10.402344 32.582031 C 8.910156 32.582031 7.703125 31.367188 7.703125 29.867188 C 7.703125 28.367188 8.910156 27.148438 10.402344 27.148438 C 11.894531 27.148438 13.105469 28.367188 13.105469 29.867188 Z M 13.105469 29.867188 "/>
<path style=" stroke:none;fill-rule:nonzero;fill:rgb(11.372549%,38.431373%,9.411765%);fill-opacity:1;" d="M 7.453125 34.972656 C 7.453125 36.472656 6.242188 37.691406 4.75 37.691406 C 3.257812 37.691406 2.050781 36.472656 2.050781 34.972656 C 2.050781 33.472656 3.257812 32.257812 4.75 32.257812 C 6.242188 32.257812 7.453125 33.472656 7.453125 34.972656 Z M 7.453125 34.972656 "/>
<path style="fill:none;stroke-width:2;stroke-linecap:butt;stroke-linejoin:miter;stroke:rgb(24.705882%,23.921569%,33.72549%);stroke-opacity:1;stroke-miterlimit:10;" d="M 75.114407 627.218652 L 75.114407 549.699316 " transform="matrix(0.0632369,0,0,0.063593,0,0)"/>
<path style=" stroke:none;fill-rule:nonzero;fill:rgb(24.705882%,23.921569%,33.72549%);fill-opacity:1;" d="M 5.441406 34.957031 C 5.441406 35.34375 5.132812 35.65625 4.75 35.65625 C 4.367188 35.65625 4.054688 35.34375 4.054688 34.957031 C 4.054688 34.574219 4.367188 34.261719 4.75 34.261719 C 5.132812 34.261719 5.441406 34.574219 5.441406 34.957031 Z M 5.441406 34.957031 "/>
<path style=" stroke:none;fill-rule:nonzero;fill:rgb(24.705882%,23.921569%,33.72549%);fill-opacity:1;" d="M 4.75 37.996094 C 4.75 37.996094 4.648438 35.855469 2.621094 36.105469 "/>
<path style="fill:none;stroke-width:2;stroke-linecap:butt;stroke-linejoin:miter;stroke:rgb(24.705882%,23.921569%,33.72549%);stroke-opacity:1;stroke-miterlimit:10;" d="M 237.20339 627.771484 L 237.20339 369.230371 " transform="matrix(0.0632369,0,0,0.063593,0,0)"/>
<path style=" stroke:none;fill-rule:nonzero;fill:rgb(24.705882%,23.921569%,33.72549%);fill-opacity:1;" d="M 15.691406 23.472656 C 15.691406 23.859375 15.382812 24.171875 15 24.171875 C 14.617188 24.171875 14.304688 23.859375 14.304688 23.472656 C 14.304688 23.089844 14.617188 22.777344 15 22.777344 C 15.382812 22.777344 15.691406 23.089844 15.691406 23.472656 Z M 15.691406 23.472656 "/>
<path style=" stroke:none;fill-rule:nonzero;fill:rgb(24.705882%,23.921569%,33.72549%);fill-opacity:1;" d="M 13.5625 35.367188 C 13.5625 35.753906 13.253906 36.066406 12.871094 36.066406 C 12.488281 36.066406 12.175781 35.753906 12.175781 35.367188 C 12.175781 34.984375 12.488281 34.671875 12.871094 34.671875 C 13.253906 34.671875 13.5625 34.984375 13.5625 35.367188 Z M 13.5625 35.367188 "/>
<path style=" stroke:none;fill-rule:nonzero;fill:rgb(24.705882%,23.921569%,33.72549%);fill-opacity:1;" d="M 15 27.035156 C 15 27.035156 14.898438 24.890625 12.871094 25.140625 "/>
<path style=" stroke:none;fill-rule:nonzero;fill:rgb(24.705882%,23.921569%,33.72549%);fill-opacity:1;" d="M 15 33.105469 C 15 33.105469 14.898438 30.964844 12.871094 31.210938 "/>
<path style="fill:none;stroke-width:2;stroke-linecap:butt;stroke-linejoin:miter;stroke:rgb(24.705882%,23.921569%,33.72549%);stroke-opacity:1;stroke-miterlimit:10;" d="M 370.54276 760.168271 C 370.54276 760.168271 377.584735 694.688388 336.877175 691.555673 " transform="matrix(0.0632369,0,0,0.063593,-8.431964,-8.610916)"/>
<path style=" stroke:none;fill-rule:nonzero;fill:rgb(24.705882%,23.921569%,33.72549%);fill-opacity:1;" d="M 17.820312 35.367188 C 17.820312 35.753906 17.511719 36.066406 17.128906 36.066406 C 16.746094 36.066406 16.433594 35.753906 16.433594 35.367188 C 16.433594 34.984375 16.746094 34.671875 17.128906 34.671875 C 17.511719 34.671875 17.820312 34.984375 17.820312 35.367188 Z M 17.820312 35.367188 "/>
<path style="fill:none;stroke-width:2;stroke-linecap:butt;stroke-linejoin:miter;stroke:rgb(24.705882%,23.921569%,33.72549%);stroke-opacity:1;stroke-miterlimit:10;" d="M 370.54276 760.168271 C 370.54276 760.168271 363.500784 694.688388 404.208345 691.555673 " transform="matrix(0.0632369,0,0,0.063593,-8.431964,-8.610916)"/>
<path style=" stroke:none;fill-rule:nonzero;fill:rgb(24.705882%,23.921569%,33.72549%);fill-opacity:1;" d="M 17.863281 28.832031 C 17.863281 29.214844 17.554688 29.527344 17.171875 29.527344 C 16.789062 29.527344 16.476562 29.214844 16.476562 28.832031 C 16.476562 28.445312 16.789062 28.132812 17.171875 28.132812 C 17.554688 28.132812 17.863281 28.445312 17.863281 28.832031 Z M 17.863281 28.832031 "/>
<path style="fill:none;stroke-width:2;stroke-linecap:butt;stroke-linejoin:miter;stroke:rgb(24.705882%,23.921569%,33.72549%);stroke-opacity:1;stroke-miterlimit:10;" d="M 371.222249 653.840244 C 371.222249 653.840244 364.118501 591.86163 404.887834 588.790341 " transform="matrix(0.0632369,0,0,0.063593,-8.431964,-8.610916)"/>
<path style="fill:none;stroke-width:2;stroke-linecap:butt;stroke-linejoin:miter;stroke:rgb(24.705882%,23.921569%,33.72549%);stroke-opacity:1;stroke-miterlimit:10;" d="M 164.559852 627.40293 L 164.559852 469.600098 " transform="matrix(0.0632369,0,0,0.063593,0,0)"/>
<path style=" stroke:none;fill-rule:nonzero;fill:rgb(24.705882%,23.921569%,33.72549%);fill-opacity:1;" d="M 11.101562 29.863281 C 11.101562 30.25 10.789062 30.558594 10.40625 30.558594 C 10.023438 30.558594 9.714844 30.25 9.714844 29.863281 C 9.714844 29.476562 10.023438 29.167969 10.40625 29.167969 C 10.789062 29.167969 11.101562 29.476562 11.101562 29.863281 Z M 11.101562 29.863281 "/>
<path style=" stroke:none;fill-rule:nonzero;fill:rgb(24.705882%,23.921569%,33.72549%);fill-opacity:1;" d="M 10.40625 32.703125 C 10.40625 32.703125 10.308594 30.558594 8.277344 30.808594 "/>
<path style="fill:none;stroke-width:2;stroke-linecap:butt;stroke-linejoin:miter;stroke:rgb(24.705882%,23.921569%,33.72549%);stroke-opacity:1;stroke-miterlimit:10;" d="M 297.899222 759.799716 C 297.899222 759.799716 304.941197 695.056943 264.233636 691.924228 " transform="matrix(0.0632369,0,0,0.063593,-8.431964,-8.610916)"/>
<path style=" stroke:none;fill-rule:nonzero;fill:rgb(24.705882%,23.921569%,33.72549%);fill-opacity:1;" d="M 8.972656 35.390625 C 8.972656 35.773438 8.660156 36.085938 8.277344 36.085938 C 7.894531 36.085938 7.585938 35.773438 7.585938 35.390625 C 7.585938 35.003906 7.894531 34.691406 8.277344 34.691406 C 8.660156 34.691406 8.972656 35.003906 8.972656 35.390625 Z M 8.972656 35.390625 "/>
<path style=" stroke:none;fill-rule:nonzero;fill:rgb(94.901961%,94.901961%,94.901961%);fill-opacity:1;" d="M 49.609375 23.507812 C 49.609375 24.140625 49.097656 24.652344 48.46875 24.652344 C 47.839844 24.652344 47.332031 24.140625 47.332031 23.507812 C 47.332031 22.875 47.839844 22.363281 48.46875 22.363281 C 49.097656 22.363281 49.609375 22.875 49.609375 23.507812 Z M 49.609375 23.507812 "/>
<use xlink:href="#surface12" mask="url(#mask2)"/>
<use xlink:href="#surface15" mask="url(#mask3)"/>
<path style=" stroke:none;fill-rule:nonzero;fill:rgb(18.431373%,18.039216%,25.490196%);fill-opacity:1;" d="M 32.949219 25.0625 L 34.886719 25.0625 L 34.886719 27.015625 L 32.949219 27.015625 Z M 32.949219 25.0625 "/>
<path style=" stroke:none;fill-rule:nonzero;fill:rgb(100%,72.54902%,72.54902%);fill-opacity:1;" d="M 33.667969 26.445312 C 33.667969 26.445312 33.828125 27.007812 33.550781 27.046875 C 33.375 27.074219 33.210938 27.144531 33.066406 27.25 L 33.589844 27.9375 L 34.550781 27.9375 L 35.152344 27.332031 C 35.152344 27.332031 34.351562 26.726562 34.511719 26.363281 C 34.671875 26 33.667969 26.445312 33.667969 26.445312 Z M 33.667969 26.445312 "/>
<use xlink:href="#surface18" mask="url(#mask4)"/>
<path style=" stroke:none;fill-rule:nonzero;fill:rgb(100%,72.54902%,72.54902%);fill-opacity:1;" d="M 33.910156 33.457031 L 34.832031 33.78125 L 35.472656 33.820312 L 35.433594 33.257812 L 34.109375 32.863281 Z M 33.910156 33.457031 "/>
<path style=" stroke:none;fill-rule:nonzero;fill:rgb(18.431373%,18.039216%,25.490196%);fill-opacity:1;" d="M 35.09375 33.335938 C 35.09375 33.335938 35.09375 33.902344 35.171875 33.902344 C 35.253906 33.902344 36.335938 33.78125 36.65625 33.902344 C 36.976562 34.023438 37.457031 33.578125 37.21875 33.335938 C 36.976562 33.097656 36.585938 32.734375 36.339844 32.8125 C 36.09375 32.894531 35.09375 33.097656 35.09375 33.097656 Z M 35.09375 33.335938 "/>
<path style=" stroke:none;fill-rule:nonzero;fill:rgb(18.431373%,18.039216%,25.490196%);fill-opacity:1;" d="M 32.144531 32.8125 C 32.144531 32.8125 31.664062 33.78125 31.984375 33.863281 C 32.304688 33.941406 32.667969 33.820312 32.707031 33.78125 C 32.746094 33.742188 33.308594 33.578125 33.390625 33.660156 C 33.46875 33.742188 33.46875 33.335938 33.46875 33.335938 Z M 32.144531 32.8125 "/>
<path style=" stroke:none;fill-rule:nonzero;fill:rgb(18.431373%,18.039216%,25.490196%);fill-opacity:1;" d="M 32.546875 31.484375 C 32.546875 31.484375 31.785156 32.53125 32.347656 32.8125 C 32.90625 33.097656 35.59375 33.097656 35.792969 32.8125 C 35.996094 32.53125 36.074219 31.644531 35.792969 31.5625 C 35.511719 31.484375 32.546875 31.484375 32.546875 31.484375 Z M 32.546875 31.484375 "/>
<use xlink:href="#surface21" mask="url(#mask5)"/>
<path style=" stroke:none;fill-rule:nonzero;fill:rgb(100%,72.54902%,72.54902%);fill-opacity:1;" d="M 34.914062 25.800781 C 34.914062 26.3125 34.5 26.726562 33.992188 26.726562 C 33.480469 26.726562 33.066406 26.3125 33.066406 25.800781 C 33.066406 25.285156 33.480469 24.871094 33.992188 24.871094 C 34.5 24.871094 34.914062 25.285156 34.914062 25.800781 Z M 34.914062 25.800781 "/>
<path style=" stroke:none;fill-rule:nonzero;fill:rgb(11.372549%,38.431373%,9.411765%);fill-opacity:1;" d="M 32.546875 27.25 L 33.347656 27.089844 C 33.347656 27.089844 33.550781 27.734375 34.191406 27.613281 C 34.832031 27.492188 34.992188 27.089844 34.992188 27.089844 C 34.992188 27.089844 35.472656 27.289062 35.511719 27.289062 C 35.554688 27.289062 36.074219 27.492188 36.074219 27.613281 C 36.074219 27.734375 35.472656 28.945312 35.472656 28.945312 L 35.554688 31.121094 L 32.585938 31.039062 L 32.789062 28.902344 Z M 32.546875 27.25 "/>
<path style=" stroke:none;fill-rule:nonzero;fill:rgb(100%,72.54902%,72.54902%);fill-opacity:1;" d="M 32.105469 28.296875 C 32.105469 28.296875 31.867188 30.433594 32.027344 30.597656 C 32.1875 30.757812 32.828125 31.199219 32.828125 31.199219 L 32.828125 30.71875 L 32.507812 30.113281 L 32.828125 28.703125 Z M 32.105469 28.296875 "/>
<path style=" stroke:none;fill-rule:nonzero;fill:rgb(100%,72.54902%,72.54902%);fill-opacity:1;" d="M 36.253906 28.238281 C 36.253906 28.238281 36.113281 30.433594 36.113281 30.515625 C 36.113281 30.597656 35.753906 30.878906 35.632812 30.878906 C 35.511719 30.878906 35.433594 30.675781 35.433594 30.675781 L 35.714844 30.355469 L 35.511719 28.703125 Z M 36.253906 28.238281 "/>
<path style=" stroke:none;fill-rule:nonzero;fill:rgb(18.431373%,18.039216%,25.490196%);fill-opacity:1;" d="M 35.875 31.320312 C 35.875 31.320312 37.679688 30.3125 37.71875 31.320312 C 37.757812 32.328125 36.796875 32.734375 36.796875 32.734375 C 36.796875 32.734375 34.3125 33.480469 34.210938 33.207031 C 34.109375 32.933594 33.910156 32.492188 34.070312 32.449219 C 34.230469 32.410156 34.429688 32.328125 34.511719 32.410156 C 34.589844 32.492188 35.59375 31.804688 35.59375 31.804688 Z M 35.875 31.320312 "/>
<use xlink:href="#surface24" mask="url(#mask6)"/>
<path style=" stroke:none;fill-rule:nonzero;fill:rgb(11.372549%,38.431373%,9.411765%);fill-opacity:1;" d="M 32.789062 27.332031 L 32.546875 27.25 C 32.546875 27.25 31.664062 28.175781 31.945312 28.417969 C 32.226562 28.660156 32.386719 28.742188 32.46875 28.824219 C 32.546875 28.902344 32.949219 28.945312 32.949219 28.945312 Z M 32.789062 27.332031 "/>
<path style=" stroke:none;fill-rule:nonzero;fill:rgb(11.372549%,38.431373%,9.411765%);fill-opacity:1;" d="M 35.714844 27.53125 L 36.074219 27.613281 C 36.074219 27.613281 36.355469 28.21875 36.4375 28.296875 C 36.515625 28.378906 36.316406 28.339844 36.195312 28.5 C 36.074219 28.660156 35.953125 28.945312 35.714844 28.945312 C 35.472656 28.945312 35.152344 28.539062 35.152344 28.539062 Z M 35.714844 27.53125 "/>
<path style=" stroke:none;fill-rule:nonzero;fill:rgb(18.431373%,18.039216%,25.490196%);fill-opacity:1;" d="M 32.628906 31.683594 C 32.628906 31.683594 31.105469 30.597656 30.582031 31.402344 C 30.0625 32.207031 32.828125 33.296875 33.230469 33.457031 C 33.628906 33.621094 33.992188 33.78125 33.992188 33.78125 C 33.992188 33.78125 34.351562 32.894531 34.351562 32.734375 C 34.351562 32.570312 34.070312 32.570312 33.992188 32.570312 C 33.910156 32.570312 33.550781 32.492188 33.46875 32.371094 C 33.390625 32.25 32.628906 31.683594 32.628906 31.683594 Z M 32.628906 31.683594 "/>
<use xlink:href="#surface27" mask="url(#mask7)"/>
<path style=" stroke:none;fill-rule:nonzero;fill:rgb(34.117647%,35.294118%,53.72549%);fill-opacity:1;" d="M 32.351562 29.886719 L 32.382812 31.59375 C 32.386719 31.710938 32.480469 31.804688 32.597656 31.804688 L 35.757812 31.769531 C 35.867188 31.765625 35.960938 31.679688 35.964844 31.566406 L 36.0625 29.894531 C 36.066406 29.835938 36.042969 29.777344 36.003906 29.734375 C 35.964844 29.691406 35.910156 29.667969 35.851562 29.667969 L 32.5625 29.667969 C 32.507812 29.667969 32.453125 29.691406 32.410156 29.734375 C 32.371094 29.773438 32.351562 29.828125 32.351562 29.886719 Z M 32.351562 29.886719 "/>
<path style=" stroke:none;fill-rule:nonzero;fill:rgb(18.431373%,18.039216%,25.490196%);fill-opacity:1;" d="M 31.984375 27.261719 C 32.070312 27.070312 32.1875 26.890625 32.242188 26.6875 C 32.308594 26.445312 32.28125 26.191406 32.273438 25.9375 C 32.261719 25.714844 32.28125 25.492188 32.332031 25.277344 C 32.378906 25.058594 32.492188 24.859375 32.65625 24.707031 C 33.074219 24.332031 33.84375 24.304688 34.359375 24.460938 C 34.558594 24.523438 34.773438 24.640625 34.824219 24.847656 C 34.832031 24.878906 34.835938 24.910156 34.84375 24.941406 C 34.886719 25.09375 35.042969 25.191406 35.101562 25.339844 C 35.171875 25.535156 35.058594 25.742188 35.046875 25.949219 C 35.027344 26.1875 35.144531 26.417969 35.261719 26.625 C 35.332031 26.753906 35.402344 26.886719 35.394531 27.027344 C 35.390625 27.105469 35.367188 27.183594 35.324219 27.25 C 35.175781 27.5 34.910156 27.652344 34.621094 27.65625 C 34.527344 27.664062 34.433594 27.640625 34.355469 27.59375 C 34.230469 27.507812 34.195312 27.332031 34.21875 27.183594 C 34.246094 27.03125 34.324219 26.894531 34.382812 26.753906 C 34.398438 26.710938 34.417969 26.667969 34.433594 26.625 C 34.8125 26.410156 34.984375 25.949219 34.839844 25.535156 C 34.695312 25.121094 34.273438 24.871094 33.84375 24.945312 C 33.414062 25.019531 33.097656 25.394531 33.097656 25.832031 C 33.097656 26.273438 33.410156 26.648438 33.839844 26.722656 C 33.886719 26.953125 33.863281 27.1875 33.78125 27.402344 C 33.707031 27.578125 33.609375 27.746094 33.496094 27.902344 C 33.453125 27.980469 33.390625 28.050781 33.316406 28.105469 C 33.269531 28.132812 33.214844 28.15625 33.164062 28.171875 C 32.9375 28.242188 32.699219 28.304688 32.460938 28.269531 C 32.226562 28.238281 31.992188 28.09375 31.914062 27.867188 C 31.84375 27.671875 31.898438 27.453125 31.984375 27.261719 Z M 31.984375 27.261719 "/>
<path style=" stroke:none;fill-rule:nonzero;fill:rgb(18.431373%,18.039216%,25.490196%);fill-opacity:1;" d="M 34.925781 25.277344 C 34.925781 24.96875 34.484375 24.722656 33.945312 24.722656 C 33.40625 24.722656 32.96875 24.96875 32.96875 25.277344 C 32.96875 25.585938 33.40625 25.835938 33.945312 25.835938 C 34.484375 25.835938 34.925781 25.585938 34.925781 25.277344 Z M 34.925781 25.277344 "/>
<use xlink:href="#surface30" mask="url(#mask8)"/>
<path style=" stroke:none;fill-rule:nonzero;fill:rgb(94.901961%,94.901961%,94.901961%);fill-opacity:1;" d="M 5.214844 27.515625 C 5.214844 28.144531 4.707031 28.660156 4.078125 28.660156 C 3.449219 28.660156 2.9375 28.144531 2.9375 27.515625 C 2.9375 26.882812 3.449219 26.371094 4.078125 26.371094 C 4.707031 26.371094 5.214844 26.882812 5.214844 27.515625 Z M 5.214844 27.515625 "/>
<use xlink:href="#surface33" mask="url(#mask9)"/>
</g>
</svg>
