<?xml version="1.0" encoding="UTF-8"?>
<svg xmlns="http://www.w3.org/2000/svg" xmlns:xlink="http://www.w3.org/1999/xlink" width="59pt" height="43pt" viewBox="0 0 59 43" version="1.1">
<g id="surface1">
<path style=" stroke:none;fill-rule:nonzero;fill:rgb(80%,80%,80%);fill-opacity:1;" d="M 58.914062 42.660156 L 0.0859375 42.660156 C 0.0390625 42.660156 0 42.621094 0 42.574219 C 0 42.527344 0.0390625 42.488281 0.0859375 42.488281 L 58.914062 42.488281 C 58.960938 42.488281 59 42.527344 59 42.574219 C 59 42.621094 58.960938 42.660156 58.914062 42.660156 Z M 58.914062 42.660156 "/>
<path style=" stroke:none;fill-rule:nonzero;fill:rgb(80%,80%,80%);fill-opacity:1;" d="M 53.09375 27.660156 L 18.476562 27.660156 C 18.171875 27.660156 17.921875 27.910156 17.921875 28.21875 C 17.921875 28.527344 18.171875 28.777344 18.476562 28.777344 L 19.457031 28.777344 L 19.457031 42.152344 C 19.457031 42.460938 19.703125 42.710938 20.011719 42.710938 C 20.316406 42.710938 20.566406 42.460938 20.566406 42.152344 L 20.574219 28.777344 L 50.917969 28.777344 L 50.917969 42.152344 C 50.917969 42.460938 51.164062 42.710938 51.472656 42.710938 C 51.777344 42.710938 52.027344 42.460938 52.027344 42.152344 L 52.027344 29.074219 L 52.1875 28.777344 L 53.09375 28.777344 C 53.398438 28.777344 53.644531 28.527344 53.644531 28.21875 C 53.644531 27.910156 53.398438 27.660156 53.09375 27.660156 Z M 53.09375 27.660156 "/>
<path style=" stroke:none;fill-rule:nonzero;fill:rgb(24.705882%,23.921569%,33.72549%);fill-opacity:1;" d="M 37.667969 27.953125 L 27.183594 27.953125 C 26.757812 27.953125 26.417969 27.609375 26.417969 27.179688 L 26.417969 21.359375 C 26.417969 20.933594 26.757812 20.585938 27.183594 20.585938 L 37.667969 20.585938 C 38.089844 20.585938 38.433594 20.933594 38.433594 21.359375 L 38.433594 27.179688 C 38.433594 27.609375 38.089844 27.953125 37.667969 27.953125 Z M 37.667969 27.953125 "/>
<path style=" stroke:none;fill-rule:nonzero;fill:rgb(100%,100%,100%);fill-opacity:1;" d="M 37.667969 21.179688 L 27.183594 21.179688 C 27.085938 21.179688 27.003906 21.261719 27.003906 21.359375 L 27.003906 27.179688 C 27.003906 27.28125 27.085938 27.359375 27.183594 27.359375 L 37.667969 27.359375 C 37.765625 27.359375 37.84375 27.28125 37.84375 27.179688 L 37.84375 21.359375 C 37.84375 21.261719 37.765625 21.179688 37.667969 21.179688 Z M 37.667969 21.179688 "/>
<path style=" stroke:none;fill-rule:nonzero;fill:rgb(18.431373%,18.039216%,25.490196%);fill-opacity:1;" d="M 33.320312 25.304688 C 33.320312 25.304688 32.0625 25.011719 31.375 25.546875 C 30.683594 26.082031 32.253906 27.296875 32.253906 27.296875 Z M 33.320312 25.304688 "/>
<path style=" stroke:none;fill-rule:nonzero;fill:rgb(62.745098%,38.039216%,41.568627%);fill-opacity:1;" d="M 33.671875 23.558594 C 33.671875 24.21875 33.140625 24.75 32.484375 24.75 C 31.832031 24.75 31.300781 24.21875 31.300781 23.558594 C 31.300781 22.898438 31.832031 22.363281 32.484375 22.363281 C 33.140625 22.363281 33.671875 22.898438 33.671875 23.558594 Z M 33.671875 23.558594 "/>
<path style=" stroke:none;fill-rule:nonzero;fill:rgb(18.431373%,18.039216%,25.490196%);fill-opacity:1;" d="M 31.570312 21.882812 C 31.730469 21.605469 32.03125 21.445312 32.347656 21.464844 C 32.511719 21.484375 32.667969 21.527344 32.820312 21.597656 L 33.59375 21.902344 C 33.792969 21.980469 34.011719 22.074219 34.097656 22.273438 C 34.179688 22.457031 34.121094 22.671875 34.058594 22.863281 L 33.769531 23.773438 C 33.738281 23.566406 33.683594 23.367188 33.605469 23.171875 C 33.527344 22.976562 33.386719 22.8125 33.203125 22.710938 C 33.003906 22.605469 32.765625 22.609375 32.539062 22.621094 C 32.222656 22.636719 31.875 22.675781 31.644531 22.902344 C 31.527344 23.03125 31.445312 23.195312 31.410156 23.367188 C 31.378906 23.542969 31.359375 23.71875 31.359375 23.894531 C 31.230469 23.667969 31.121094 23.425781 31.03125 23.179688 C 30.957031 22.996094 30.917969 22.800781 30.910156 22.601562 C 30.902344 22.402344 30.964844 22.207031 31.09375 22.054688 C 31.222656 21.898438 31.429688 21.835938 31.625 21.886719 Z M 31.570312 21.882812 "/>
<path style=" stroke:none;fill-rule:nonzero;fill:rgb(11.372549%,38.431373%,9.411765%);fill-opacity:1;" d="M 35.3125 26.339844 C 35.289062 26.257812 35.222656 26.195312 35.136719 26.183594 C 35.132812 26.183594 35.132812 26.179688 35.128906 26.179688 L 33.359375 25.179688 C 33.257812 25.121094 33.125 25.15625 33.058594 25.257812 L 32.578125 26.046875 L 31.847656 25.3125 L 31.835938 25.300781 C 31.757812 25.222656 31.636719 25.214844 31.550781 25.277344 L 30.097656 26.300781 C 30.09375 26.300781 30.089844 26.304688 30.089844 26.304688 C 29.945312 26.328125 29.839844 26.449219 29.832031 26.59375 L 29.792969 27.359375 L 35.59375 27.359375 Z M 35.3125 26.339844 "/>
<path style=" stroke:none;fill-rule:nonzero;fill:rgb(24.705882%,23.921569%,33.72549%);fill-opacity:1;" d="M 38.550781 27.242188 L 37.433594 27.242188 C 37.433594 27.175781 37.378906 27.121094 37.3125 27.121094 L 36.960938 27.121094 C 36.894531 27.121094 36.84375 27.175781 36.84375 27.242188 L 36.488281 27.242188 C 36.488281 27.175781 36.4375 27.121094 36.371094 27.121094 L 36.019531 27.121094 C 35.953125 27.121094 35.898438 27.175781 35.898438 27.242188 L 35.546875 27.242188 C 35.546875 27.175781 35.492188 27.121094 35.429688 27.121094 L 35.074219 27.121094 C 35.011719 27.121094 34.957031 27.175781 34.957031 27.242188 L 34.605469 27.242188 C 34.605469 27.175781 34.550781 27.121094 34.488281 27.121094 L 34.132812 27.121094 C 34.066406 27.121094 34.015625 27.175781 34.015625 27.242188 L 33.660156 27.242188 C 33.660156 27.175781 33.609375 27.121094 33.542969 27.121094 L 33.191406 27.121094 C 33.125 27.121094 33.074219 27.175781 33.074219 27.242188 L 32.71875 27.242188 C 32.71875 27.175781 32.667969 27.121094 32.601562 27.121094 L 32.246094 27.121094 C 32.183594 27.121094 32.128906 27.175781 32.128906 27.242188 L 31.777344 27.242188 C 31.777344 27.175781 31.722656 27.121094 31.660156 27.121094 L 31.304688 27.121094 C 31.242188 27.121094 31.1875 27.175781 31.1875 27.242188 L 30.835938 27.242188 C 30.835938 27.175781 30.78125 27.121094 30.714844 27.121094 L 30.363281 27.121094 C 30.296875 27.121094 30.246094 27.175781 30.246094 27.242188 L 29.890625 27.242188 C 29.890625 27.175781 29.839844 27.121094 29.773438 27.121094 L 29.421875 27.121094 C 29.355469 27.121094 29.300781 27.175781 29.300781 27.242188 L 28.949219 27.242188 C 28.949219 27.175781 28.894531 27.121094 28.832031 27.121094 L 28.476562 27.121094 C 28.414062 27.121094 28.359375 27.175781 28.359375 27.242188 L 28.007812 27.242188 C 28.007812 27.175781 27.953125 27.121094 27.890625 27.121094 L 27.535156 27.121094 C 27.46875 27.121094 27.417969 27.175781 27.417969 27.242188 L 26.296875 27.242188 C 26.101562 27.242188 25.945312 27.402344 25.945312 27.597656 C 25.945312 27.792969 26.101562 27.953125 26.296875 27.953125 L 38.550781 27.953125 C 38.746094 27.953125 38.90625 27.792969 38.90625 27.597656 C 38.90625 27.398438 38.746094 27.242188 38.550781 27.242188 Z M 38.550781 27.242188 "/>
<path style=" stroke:none;fill-rule:nonzero;fill:rgb(94.901961%,94.901961%,94.901961%);fill-opacity:1;" d="M 24.476562 25.171875 L 24.476562 27.539062 L 18.597656 27.539062 C 18.167969 27.550781 17.765625 27.332031 17.546875 26.957031 C 17.328125 26.585938 17.328125 26.121094 17.546875 25.75 C 17.765625 25.378906 18.167969 25.15625 18.597656 25.171875 Z M 24.476562 25.171875 "/>
<path style=" stroke:none;fill-rule:nonzero;fill:rgb(11.372549%,38.431373%,9.411765%);fill-opacity:1;" d="M 24.621094 27.519531 C 24.621094 27.570312 24.582031 27.609375 24.53125 27.609375 L 18.492188 27.609375 C 17.808594 27.609375 17.253906 27.050781 17.253906 26.363281 C 17.253906 25.675781 17.808594 25.117188 18.492188 25.117188 L 24.53125 25.117188 C 24.582031 25.117188 24.621094 25.15625 24.621094 25.207031 C 24.621094 25.257812 24.582031 25.296875 24.53125 25.296875 L 18.492188 25.296875 C 17.910156 25.296875 17.4375 25.773438 17.4375 26.363281 C 17.4375 26.949219 17.910156 27.429688 18.492188 27.429688 L 24.53125 27.429688 C 24.582031 27.429688 24.621094 27.46875 24.621094 27.519531 Z M 24.621094 27.519531 "/>
<path style=" stroke:none;fill-rule:nonzero;fill:rgb(80%,80%,80%);fill-opacity:1;" d="M 24.476562 25.714844 L 18.15625 25.714844 C 18.152344 25.714844 18.144531 25.714844 18.140625 25.707031 C 18.140625 25.703125 18.140625 25.695312 18.140625 25.6875 C 18.144531 25.683594 18.152344 25.679688 18.15625 25.679688 L 24.476562 25.679688 C 24.484375 25.679688 24.496094 25.6875 24.496094 25.699219 C 24.496094 25.707031 24.484375 25.714844 24.476562 25.714844 Z M 24.476562 25.714844 "/>
<path style=" stroke:none;fill-rule:nonzero;fill:rgb(80%,80%,80%);fill-opacity:1;" d="M 24.476562 26.152344 L 18.15625 26.152344 C 18.152344 26.152344 18.144531 26.148438 18.140625 26.144531 C 18.140625 26.140625 18.140625 26.132812 18.140625 26.125 C 18.144531 26.121094 18.152344 26.117188 18.15625 26.117188 L 24.476562 26.117188 C 24.484375 26.117188 24.496094 26.125 24.496094 26.136719 C 24.496094 26.144531 24.484375 26.152344 24.476562 26.152344 Z M 24.476562 26.152344 "/>
<path style=" stroke:none;fill-rule:nonzero;fill:rgb(80%,80%,80%);fill-opacity:1;" d="M 24.476562 26.589844 L 18.15625 26.589844 C 18.152344 26.589844 18.144531 26.585938 18.140625 26.582031 C 18.140625 26.574219 18.140625 26.570312 18.140625 26.5625 C 18.144531 26.558594 18.152344 26.554688 18.15625 26.554688 L 24.476562 26.554688 C 24.484375 26.554688 24.496094 26.5625 24.496094 26.574219 C 24.496094 26.582031 24.484375 26.589844 24.476562 26.589844 Z M 24.476562 26.589844 "/>
<path style=" stroke:none;fill-rule:nonzero;fill:rgb(80%,80%,80%);fill-opacity:1;" d="M 24.476562 27.027344 L 18.15625 27.027344 C 18.152344 27.027344 18.144531 27.023438 18.140625 27.019531 C 18.140625 27.011719 18.140625 27.007812 18.140625 27 C 18.144531 26.996094 18.152344 26.992188 18.15625 26.992188 L 24.476562 26.992188 C 24.484375 26.992188 24.496094 27 24.496094 27.007812 C 24.496094 27.019531 24.484375 27.027344 24.476562 27.027344 Z M 24.476562 27.027344 "/>
<path style=" stroke:none;fill-rule:nonzero;fill:rgb(94.901961%,94.901961%,94.901961%);fill-opacity:1;" d="M 23.367188 22.675781 L 23.367188 25.042969 L 17.488281 25.042969 C 17.058594 25.058594 16.65625 24.835938 16.4375 24.464844 C 16.21875 24.089844 16.21875 23.628906 16.4375 23.257812 C 16.65625 22.882812 17.058594 22.660156 17.488281 22.675781 Z M 23.367188 22.675781 "/>
<path style=" stroke:none;fill-rule:nonzero;fill:rgb(24.705882%,23.921569%,33.72549%);fill-opacity:1;" d="M 23.511719 25.023438 C 23.511719 25.074219 23.472656 25.117188 23.421875 25.117188 L 17.382812 25.117188 C 16.699219 25.117188 16.148438 24.558594 16.148438 23.867188 C 16.148438 23.179688 16.699219 22.621094 17.382812 22.621094 L 23.421875 22.621094 C 23.472656 22.621094 23.511719 22.664062 23.511719 22.710938 C 23.511719 22.761719 23.472656 22.804688 23.421875 22.804688 L 17.382812 22.804688 C 16.800781 22.804688 16.328125 23.28125 16.328125 23.867188 C 16.328125 24.457031 16.800781 24.933594 17.382812 24.933594 L 23.421875 24.933594 C 23.472656 24.933594 23.511719 24.976562 23.511719 25.023438 Z M 23.511719 25.023438 "/>
<path style=" stroke:none;fill-rule:nonzero;fill:rgb(80%,80%,80%);fill-opacity:1;" d="M 23.367188 23.222656 L 17.050781 23.222656 C 17.042969 23.222656 17.035156 23.21875 17.035156 23.214844 C 17.03125 23.207031 17.03125 23.199219 17.035156 23.195312 C 17.035156 23.191406 17.042969 23.1875 17.050781 23.1875 L 23.367188 23.1875 C 23.378906 23.1875 23.386719 23.195312 23.386719 23.203125 C 23.386719 23.214844 23.378906 23.222656 23.367188 23.222656 Z M 23.367188 23.222656 "/>
<path style=" stroke:none;fill-rule:nonzero;fill:rgb(80%,80%,80%);fill-opacity:1;" d="M 23.367188 23.660156 L 17.050781 23.660156 C 17.042969 23.660156 17.035156 23.65625 17.035156 23.652344 C 17.03125 23.644531 17.03125 23.636719 17.035156 23.632812 C 17.035156 23.625 17.042969 23.625 17.050781 23.625 L 23.367188 23.625 C 23.378906 23.625 23.386719 23.632812 23.386719 23.640625 C 23.386719 23.652344 23.378906 23.660156 23.367188 23.660156 Z M 23.367188 23.660156 "/>
<path style=" stroke:none;fill-rule:nonzero;fill:rgb(80%,80%,80%);fill-opacity:1;" d="M 23.367188 24.097656 L 17.050781 24.097656 C 17.042969 24.097656 17.035156 24.09375 17.035156 24.085938 C 17.03125 24.082031 17.03125 24.074219 17.035156 24.070312 C 17.035156 24.0625 17.042969 24.058594 17.050781 24.058594 L 23.367188 24.058594 C 23.378906 24.058594 23.386719 24.070312 23.386719 24.078125 C 23.386719 24.089844 23.378906 24.097656 23.367188 24.097656 Z M 23.367188 24.097656 "/>
<path style=" stroke:none;fill-rule:nonzero;fill:rgb(80%,80%,80%);fill-opacity:1;" d="M 23.367188 24.535156 L 17.050781 24.535156 C 17.042969 24.535156 17.035156 24.53125 17.035156 24.523438 C 17.03125 24.519531 17.03125 24.511719 17.035156 24.507812 C 17.035156 24.5 17.042969 24.496094 17.050781 24.496094 L 23.367188 24.496094 C 23.378906 24.496094 23.386719 24.503906 23.386719 24.515625 C 23.386719 24.527344 23.378906 24.535156 23.367188 24.535156 Z M 23.367188 24.535156 "/>
<path style=" stroke:none;fill-rule:nonzero;fill:rgb(80%,80%,80%);fill-opacity:1;" d="M 30.207031 35.953125 L 30.207031 33.886719 C 30.207031 33.699219 30.054688 33.542969 29.867188 33.542969 L 22.109375 33.542969 C 21.917969 33.542969 21.765625 33.699219 21.765625 33.886719 L 21.765625 35.953125 Z M 30.207031 35.953125 "/>
<path style=" stroke:none;fill-rule:nonzero;fill:rgb(80%,80%,80%);fill-opacity:1;" d="M 21.765625 36.726562 L 30.207031 36.726562 L 30.207031 39.390625 L 21.765625 39.390625 Z M 21.765625 36.726562 "/>
<path style=" stroke:none;fill-rule:nonzero;fill:rgb(80%,80%,80%);fill-opacity:1;" d="M 21.765625 40.164062 L 21.765625 42.230469 C 21.765625 42.417969 21.917969 42.574219 22.109375 42.574219 L 29.867188 42.574219 C 30.054688 42.574219 30.207031 42.417969 30.207031 42.230469 L 30.207031 40.164062 Z M 21.765625 40.164062 "/>
<path style=" stroke:none;fill-rule:nonzero;fill:rgb(100%,100%,100%);fill-opacity:1;" d="M 26.199219 34.832031 C 26.199219 34.976562 26.085938 35.089844 25.945312 35.089844 C 25.804688 35.089844 25.6875 34.976562 25.6875 34.832031 C 25.6875 34.691406 25.804688 34.574219 25.945312 34.574219 C 26.085938 34.574219 26.199219 34.691406 26.199219 34.832031 Z M 26.199219 34.832031 "/>
<path style=" stroke:none;fill-rule:nonzero;fill:rgb(100%,100%,100%);fill-opacity:1;" d="M 26.199219 38.273438 C 26.199219 38.417969 26.085938 38.53125 25.945312 38.53125 C 25.804688 38.53125 25.6875 38.417969 25.6875 38.273438 C 25.6875 38.132812 25.804688 38.015625 25.945312 38.015625 C 26.085938 38.015625 26.199219 38.132812 26.199219 38.273438 Z M 26.199219 38.273438 "/>
<path style=" stroke:none;fill-rule:nonzero;fill:rgb(100%,100%,100%);fill-opacity:1;" d="M 26.214844 41.640625 C 26.214844 41.785156 26.101562 41.898438 25.957031 41.898438 C 25.816406 41.898438 25.703125 41.785156 25.703125 41.640625 C 25.703125 41.5 25.816406 41.382812 25.957031 41.382812 C 26.101562 41.382812 26.214844 41.5 26.214844 41.640625 Z M 26.214844 41.640625 "/>
<path style=" stroke:none;fill-rule:nonzero;fill:rgb(94.901961%,94.901961%,94.901961%);fill-opacity:1;" d="M 29.25 31.191406 L 29.25 33.558594 L 23.371094 33.558594 C 22.941406 33.574219 22.539062 33.351562 22.320312 32.976562 C 22.101562 32.605469 22.101562 32.140625 22.320312 31.769531 C 22.539062 31.398438 22.941406 31.175781 23.371094 31.191406 Z M 29.25 31.191406 "/>
<path style=" stroke:none;fill-rule:nonzero;fill:rgb(24.705882%,23.921569%,33.72549%);fill-opacity:1;" d="M 29.394531 33.539062 C 29.394531 33.589844 29.355469 33.628906 29.304688 33.628906 L 23.265625 33.628906 C 22.582031 33.632812 22.027344 33.074219 22.027344 32.382812 C 22.027344 31.695312 22.582031 31.136719 23.265625 31.136719 L 29.304688 31.136719 C 29.355469 31.136719 29.394531 31.175781 29.394531 31.226562 C 29.394531 31.277344 29.355469 31.316406 29.304688 31.316406 L 23.265625 31.316406 C 22.683594 31.316406 22.210938 31.796875 22.210938 32.382812 C 22.210938 32.972656 22.683594 33.449219 23.265625 33.449219 L 29.304688 33.449219 C 29.355469 33.449219 29.394531 33.488281 29.394531 33.539062 Z M 29.394531 33.539062 "/>
<path style=" stroke:none;fill-rule:nonzero;fill:rgb(80%,80%,80%);fill-opacity:1;" d="M 29.25 31.738281 L 22.933594 31.738281 C 22.925781 31.738281 22.921875 31.734375 22.917969 31.726562 C 22.914062 31.722656 22.914062 31.714844 22.917969 31.710938 C 22.921875 31.703125 22.925781 31.699219 22.933594 31.699219 L 29.25 31.699219 C 29.261719 31.699219 29.269531 31.707031 29.269531 31.71875 C 29.269531 31.726562 29.261719 31.738281 29.25 31.738281 Z M 29.25 31.738281 "/>
<path style=" stroke:none;fill-rule:nonzero;fill:rgb(80%,80%,80%);fill-opacity:1;" d="M 29.25 32.171875 L 22.933594 32.171875 C 22.925781 32.171875 22.921875 32.171875 22.917969 32.164062 C 22.914062 32.160156 22.914062 32.152344 22.917969 32.144531 C 22.921875 32.140625 22.925781 32.136719 22.933594 32.136719 L 29.25 32.136719 C 29.261719 32.136719 29.269531 32.144531 29.269531 32.15625 C 29.269531 32.164062 29.261719 32.171875 29.25 32.171875 Z M 29.25 32.171875 "/>
<path style=" stroke:none;fill-rule:nonzero;fill:rgb(80%,80%,80%);fill-opacity:1;" d="M 29.25 32.609375 L 22.933594 32.609375 C 22.925781 32.609375 22.921875 32.605469 22.917969 32.601562 C 22.914062 32.597656 22.914062 32.589844 22.917969 32.582031 C 22.921875 32.578125 22.925781 32.574219 22.933594 32.574219 L 29.25 32.574219 C 29.261719 32.574219 29.269531 32.582031 29.269531 32.59375 C 29.269531 32.601562 29.261719 32.609375 29.25 32.609375 Z M 29.25 32.609375 "/>
<path style=" stroke:none;fill-rule:nonzero;fill:rgb(80%,80%,80%);fill-opacity:1;" d="M 29.25 33.046875 L 22.933594 33.046875 C 22.925781 33.046875 22.921875 33.042969 22.917969 33.039062 C 22.914062 33.03125 22.914062 33.027344 22.917969 33.019531 C 22.921875 33.015625 22.925781 33.011719 22.933594 33.011719 L 29.25 33.011719 C 29.261719 33.011719 29.269531 33.019531 29.269531 33.03125 C 29.269531 33.039062 29.261719 33.046875 29.25 33.046875 Z M 29.25 33.046875 "/>
<path style=" stroke:none;fill-rule:nonzero;fill:rgb(90.196078%,90.196078%,90.196078%);fill-opacity:1;" d="M 21.324219 15.738281 L 21.324219 0.648438 C 21.324219 0.289062 21.613281 0 21.964844 0 L 33.792969 0 C 34.148438 0 34.433594 0.289062 34.433594 0.648438 L 34.433594 15.738281 C 34.433594 16.097656 34.148438 16.386719 33.792969 16.386719 L 21.964844 16.386719 C 21.613281 16.386719 21.324219 16.097656 21.324219 15.738281 Z M 21.964844 0.144531 C 21.691406 0.144531 21.46875 0.367188 21.46875 0.648438 L 21.46875 15.738281 C 21.46875 16.015625 21.691406 16.242188 21.964844 16.242188 L 33.792969 16.242188 C 34.070312 16.242188 34.292969 16.015625 34.292969 15.738281 L 34.292969 0.648438 C 34.292969 0.367188 34.070312 0.144531 33.792969 0.144531 Z M 21.964844 0.144531 "/>
<path style=" stroke:none;fill-rule:nonzero;fill:rgb(11.372549%,38.431373%,9.411765%);fill-opacity:1;" d="M 28.542969 6.929688 L 28.542969 3.832031 C 28.542969 3.652344 28.6875 3.507812 28.863281 3.507812 L 31.46875 3.507812 C 31.644531 3.507812 31.789062 3.652344 31.789062 3.832031 L 31.789062 6.929688 C 31.789062 7.109375 31.644531 7.253906 31.46875 7.253906 L 28.863281 7.253906 C 28.6875 7.253906 28.542969 7.109375 28.542969 6.929688 Z M 28.542969 6.929688 "/>
<path style=" stroke:none;fill-rule:nonzero;fill:rgb(80%,80%,80%);fill-opacity:1;" d="M 23.484375 8.367188 L 23.484375 5.269531 C 23.484375 5.089844 23.628906 4.945312 23.804688 4.945312 L 26.410156 4.945312 C 26.585938 4.945312 26.730469 5.089844 26.730469 5.269531 L 26.730469 8.367188 C 26.730469 8.546875 26.585938 8.691406 26.410156 8.691406 L 23.804688 8.691406 C 23.628906 8.691406 23.484375 8.546875 23.484375 8.367188 Z M 23.484375 8.367188 "/>
<path style=" stroke:none;fill-rule:nonzero;fill:rgb(100%,39.607843%,51.764706%);fill-opacity:1;" d="M 27.546875 12.753906 L 27.546875 9.652344 C 27.546875 9.476562 27.6875 9.332031 27.867188 9.332031 L 30.46875 9.332031 C 30.648438 9.332031 30.789062 9.476562 30.789062 9.652344 L 30.789062 12.753906 C 30.789062 12.929688 30.648438 13.078125 30.46875 13.078125 L 27.867188 13.078125 C 27.6875 13.078125 27.546875 12.929688 27.546875 12.753906 Z M 27.546875 12.753906 "/>
<path style=" stroke:none;fill-rule:nonzero;fill:rgb(24.705882%,23.921569%,33.72549%);fill-opacity:1;" d="M 43.105469 26.921875 L 40.425781 26.921875 C 40.398438 26.921875 40.375 26.925781 40.351562 26.9375 L 39.675781 27.28125 C 39.628906 27.300781 39.601562 27.34375 39.601562 27.394531 C 39.601562 27.445312 39.628906 27.488281 39.675781 27.507812 L 40.351562 27.851562 C 40.375 27.863281 40.398438 27.867188 40.425781 27.867188 L 43.105469 27.867188 C 43.179688 27.871094 43.246094 27.8125 43.253906 27.734375 L 43.253906 27.054688 C 43.246094 26.976562 43.179688 26.917969 43.105469 26.921875 Z M 43.105469 26.921875 "/>
<path style=" stroke:none;fill-rule:nonzero;fill:rgb(11.372549%,38.431373%,9.411765%);fill-opacity:1;" d="M 43.253906 27.054688 L 43.253906 27.734375 C 43.246094 27.8125 43.179688 27.871094 43.105469 27.867188 L 42.570312 27.867188 L 42.570312 26.921875 L 43.105469 26.921875 C 43.179688 26.917969 43.246094 26.976562 43.253906 27.054688 Z M 43.253906 27.054688 "/>
<path style=" stroke:none;fill-rule:nonzero;fill:rgb(100%,72.156863%,72.156863%);fill-opacity:1;" d="M 43.085938 21.8125 C 43.328125 21.707031 43.609375 21.710938 43.851562 21.824219 C 44.09375 21.9375 44.277344 22.148438 44.355469 22.40625 C 44.367188 22.449219 44.375 22.488281 44.382812 22.53125 L 48.128906 24.40625 L 48.996094 23.824219 L 50.074219 25.078125 L 48.75 26.164062 C 48.421875 26.429688 47.960938 26.445312 47.613281 26.207031 L 43.8125 23.554688 C 43.785156 23.566406 43.757812 23.578125 43.726562 23.585938 C 43.472656 23.664062 43.195312 23.628906 42.96875 23.488281 C 42.738281 23.347656 42.582031 23.117188 42.53125 22.851562 C 42.527344 22.8125 42.523438 22.773438 42.519531 22.734375 C 42.496094 22.339844 42.722656 21.972656 43.085938 21.8125 Z M 43.085938 21.8125 "/>
<path style=" stroke:none;fill-rule:nonzero;fill:rgb(24.705882%,23.921569%,33.72549%);fill-opacity:1;" d="M 50.886719 33.351562 L 46.792969 33.351562 C 46.792969 33.46875 42.574219 33.566406 42.574219 33.566406 C 42.507812 33.617188 42.449219 33.671875 42.394531 33.738281 C 42.234375 33.929688 42.148438 34.171875 42.148438 34.425781 L 42.148438 34.597656 C 42.148438 35.191406 42.625 35.671875 43.214844 35.671875 L 50.886719 35.671875 C 51.476562 35.671875 51.953125 35.191406 51.953125 34.597656 L 51.953125 34.425781 C 51.953125 33.832031 51.476562 33.351562 50.886719 33.351562 Z M 50.886719 33.351562 "/>
<path style=" stroke:none;fill-rule:nonzero;fill:rgb(24.705882%,23.921569%,33.72549%);fill-opacity:1;" d="M 47.542969 42.851562 L 46.433594 42.851562 L 46.433594 35.628906 L 47.542969 35.628906 Z M 47.542969 42.851562 "/>
<path style=" stroke:none;fill-rule:nonzero;fill:rgb(24.705882%,23.921569%,33.72549%);fill-opacity:1;" d="M 43.28125 42.8125 C 43.28125 42.933594 44.960938 42.859375 47.03125 42.859375 C 49.101562 42.859375 50.78125 42.933594 50.78125 42.8125 C 50.78125 42.691406 49.101562 41.734375 47.03125 41.734375 C 44.960938 41.734375 43.28125 42.691406 43.28125 42.8125 Z M 43.28125 42.8125 "/>
<path style=" stroke:none;fill-rule:nonzero;fill:rgb(100%,72.156863%,72.156863%);fill-opacity:1;" d="M 44.28125 41.96875 L 43.234375 41.96875 L 42.738281 39.234375 L 44.28125 39.234375 Z M 44.28125 41.96875 "/>
<path style=" stroke:none;fill-rule:nonzero;fill:rgb(18.431373%,18.039216%,25.490196%);fill-opacity:1;" d="M 44.546875 42.988281 L 41.175781 42.988281 L 41.175781 42.945312 C 41.175781 42.214844 41.761719 41.621094 42.488281 41.625 L 44.546875 41.625 Z M 44.546875 42.988281 "/>
<path style=" stroke:none;fill-rule:nonzero;fill:rgb(18.431373%,18.039216%,25.490196%);fill-opacity:1;" d="M 42.714844 40.273438 L 40.632812 35.558594 C 40.273438 34.734375 40.597656 33.769531 41.386719 33.339844 L 45.90625 30.894531 L 47.96875 30.71875 L 49.871094 30.542969 L 49.882812 30.566406 C 49.902344 30.597656 50.308594 31.3125 50.035156 32.09375 C 49.824219 32.683594 49.277344 33.148438 48.410156 33.46875 C 46.390625 34.214844 44.054688 34.855469 43.144531 35.09375 C 43.0625 35.117188 42.996094 35.171875 42.957031 35.246094 C 42.917969 35.320312 42.910156 35.40625 42.9375 35.488281 L 44.875 39.875 C 44.914062 39.988281 44.902344 40.113281 44.839844 40.214844 C 44.773438 40.316406 44.667969 40.382812 44.550781 40.394531 L 43.101562 40.5 C 43.089844 40.5 43.078125 40.5 43.066406 40.5 C 42.914062 40.5 42.777344 40.410156 42.714844 40.273438 Z M 42.714844 40.273438 "/>
<path style=" stroke:none;fill-rule:nonzero;fill:rgb(100%,72.156863%,72.156863%);fill-opacity:1;" d="M 44.792969 41.96875 L 43.746094 41.96875 L 43.25 39.234375 L 44.792969 39.234375 Z M 44.792969 41.96875 "/>
<path style=" stroke:none;fill-rule:nonzero;fill:rgb(18.431373%,18.039216%,25.490196%);fill-opacity:1;" d="M 45.058594 42.988281 L 41.6875 42.988281 L 41.6875 42.945312 C 41.6875 42.214844 42.273438 41.621094 43 41.625 L 45.058594 41.625 Z M 45.058594 42.988281 "/>
<path style=" stroke:none;fill-rule:nonzero;fill:rgb(18.431373%,18.039216%,25.490196%);fill-opacity:1;" d="M 43.3125 40.53125 L 41.230469 35.816406 C 40.867188 34.992188 41.195312 34.027344 41.980469 33.597656 L 46.5 31.152344 L 48.5625 30.976562 L 50.464844 30.800781 L 50.480469 30.824219 C 50.496094 30.855469 50.90625 31.570312 50.628906 32.351562 C 50.421875 32.941406 49.875 33.40625 49.007812 33.726562 C 46.988281 34.472656 44.652344 35.113281 43.742188 35.351562 C 43.660156 35.375 43.589844 35.429688 43.550781 35.503906 C 43.515625 35.578125 43.507812 35.667969 43.535156 35.746094 L 45.472656 40.132812 C 45.511719 40.246094 45.5 40.371094 45.4375 40.472656 C 45.371094 40.574219 45.265625 40.640625 45.148438 40.652344 L 43.699219 40.757812 C 43.6875 40.757812 43.675781 40.757812 43.664062 40.757812 C 43.511719 40.757812 43.375 40.667969 43.3125 40.53125 Z M 43.3125 40.53125 "/>
<path style=" stroke:none;fill-rule:nonzero;fill:rgb(80%,80%,80%);fill-opacity:1;" d="M 42.273438 26.128906 C 41.398438 24.957031 40.707031 23.652344 40.222656 22.265625 C 40.164062 22.09375 40.238281 21.90625 40.394531 21.820312 L 43.390625 20.203125 C 43.488281 20.148438 43.605469 20.144531 43.710938 20.1875 C 43.8125 20.234375 43.890625 20.324219 43.917969 20.4375 C 44.269531 21.773438 44.921875 23.007812 45.832031 24.039062 C 45.910156 24.125 45.941406 24.238281 45.921875 24.351562 C 45.902344 24.464844 45.832031 24.558594 45.734375 24.613281 L 42.738281 26.230469 C 42.582031 26.316406 42.382812 26.273438 42.273438 26.128906 Z M 42.273438 26.128906 "/>
<path style=" stroke:none;fill-rule:nonzero;fill:rgb(100%,100%,100%);fill-opacity:1;" d="M 42.480469 25.976562 C 42.511719 26.015625 42.570312 26.03125 42.617188 26.003906 L 45.613281 24.386719 C 45.644531 24.371094 45.664062 24.339844 45.667969 24.308594 C 45.675781 24.273438 45.664062 24.238281 45.640625 24.210938 C 44.707031 23.148438 44.03125 21.878906 43.671875 20.503906 C 43.664062 20.46875 43.640625 20.4375 43.605469 20.425781 C 43.578125 20.410156 43.542969 20.414062 43.511719 20.429688 L 40.515625 22.046875 C 40.46875 22.074219 40.445312 22.128906 40.464844 22.179688 C 40.941406 23.542969 41.621094 24.820312 42.480469 25.976562 Z M 42.480469 25.976562 "/>
<path style=" stroke:none;fill-rule:nonzero;fill:rgb(11.372549%,38.431373%,9.411765%);fill-opacity:1;" d="M 52.230469 25.699219 L 49.882812 26.597656 L 49.308594 24.992188 C 49.152344 24.550781 49.332031 24.0625 49.738281 23.832031 C 50.144531 23.597656 50.660156 23.699219 50.953125 24.070312 Z M 52.230469 25.699219 "/>
<path style=" stroke:none;fill-rule:nonzero;fill:rgb(11.372549%,38.431373%,9.411765%);fill-opacity:1;" d="M 46.261719 32.058594 C 46.160156 31.988281 46.097656 31.875 46.082031 31.753906 C 45.78125 28.921875 45.992188 26.707031 46.722656 24.984375 C 46.984375 24.378906 47.503906 23.929688 48.136719 23.761719 L 50.03125 23.667969 L 50.042969 23.671875 C 50.921875 24.105469 51.414062 25.070312 51.253906 26.042969 C 50.644531 27.667969 50.132812 29.355469 50.523438 30.71875 C 50.554688 30.832031 50.542969 30.957031 50.480469 31.058594 C 50.425781 31.160156 50.328125 31.234375 50.214844 31.257812 L 46.601562 32.125 C 46.484375 32.15625 46.359375 32.128906 46.261719 32.058594 Z M 46.261719 32.058594 "/>
<path style=" stroke:none;fill-rule:nonzero;fill:rgb(100%,72.156863%,72.156863%);fill-opacity:1;" d="M 51.492188 20.839844 C 51.492188 22.007812 50.554688 22.953125 49.398438 22.953125 C 48.242188 22.953125 47.304688 22.007812 47.304688 20.839844 C 47.304688 19.671875 48.242188 18.726562 49.398438 18.726562 C 50.554688 18.726562 51.492188 19.671875 51.492188 20.839844 Z M 51.492188 20.839844 "/>
<path style=" stroke:none;fill-rule:nonzero;fill:rgb(80%,80%,80%);fill-opacity:1;" d="M 43.589844 22.511719 L 41.957031 23.238281 C 41.828125 23.296875 41.675781 23.238281 41.621094 23.109375 L 41.578125 23.015625 C 41.523438 22.886719 41.582031 22.734375 41.710938 22.675781 L 43.339844 21.949219 C 43.472656 21.890625 43.621094 21.949219 43.679688 22.082031 L 43.71875 22.171875 C 43.777344 22.304688 43.71875 22.457031 43.589844 22.511719 Z M 43.589844 22.511719 "/>
<path style=" stroke:none;fill-rule:nonzero;fill:rgb(80%,80%,80%);fill-opacity:1;" d="M 44.183594 23.628906 L 42.554688 24.355469 C 42.425781 24.414062 42.273438 24.355469 42.214844 24.226562 L 42.175781 24.132812 C 42.117188 24.003906 42.175781 23.851562 42.304688 23.792969 L 43.9375 23.066406 C 44.066406 23.007812 44.21875 23.066406 44.277344 23.199219 L 44.316406 23.289062 C 44.375 23.421875 44.316406 23.574219 44.183594 23.628906 Z M 44.183594 23.628906 "/>
<path style=" stroke:none;fill-rule:nonzero;fill:rgb(100%,72.156863%,72.156863%);fill-opacity:1;" d="M 45.445312 27.996094 L 41.804688 25.101562 C 41.777344 25.113281 41.746094 25.121094 41.71875 25.128906 C 41.457031 25.191406 41.183594 25.136719 40.964844 24.984375 C 40.746094 24.828125 40.601562 24.585938 40.570312 24.316406 C 40.519531 23.882812 40.773438 23.464844 41.1875 23.316406 C 41.4375 23.226562 41.714844 23.246094 41.949219 23.375 C 42.183594 23.503906 42.355469 23.730469 42.414062 23.992188 C 42.425781 24.03125 42.429688 24.074219 42.433594 24.117188 L 46.058594 26.222656 L 46.957031 25.699219 L 47.957031 27.019531 L 46.558594 28.023438 C 46.222656 28.265625 45.769531 28.253906 45.445312 27.996094 Z M 45.445312 27.996094 "/>
<path style=" stroke:none;fill-rule:nonzero;fill:rgb(11.372549%,38.431373%,9.411765%);fill-opacity:1;" d="M 48.402344 27.429688 L 46.324219 26.003906 L 47.300781 24.613281 C 47.566406 24.230469 48.070312 24.097656 48.488281 24.296875 C 48.910156 24.503906 49.125 24.988281 48.992188 25.441406 Z M 48.402344 27.429688 "/>
<path style=" stroke:none;fill-rule:nonzero;fill:rgb(18.431373%,18.039216%,25.490196%);fill-opacity:1;" d="M 48.632812 20.523438 C 48.09375 20.898438 47.386719 21.277344 46.835938 20.882812 C 46.476562 20.625 46.363281 20.140625 46.507812 19.71875 C 46.773438 18.960938 47.496094 18.625 48.1875 18.371094 C 49.085938 18.035156 50.066406 17.773438 50.992188 18.011719 C 51.921875 18.25 52.742188 19.15625 52.574219 20.105469 C 52.4375 20.871094 51.722656 21.507812 51.824219 22.277344 C 51.925781 23.054688 52.792969 23.460938 53.554688 23.601562 C 54.316406 23.738281 55.171875 23.78125 55.71875 24.335938 C 56.417969 25.039062 56.242188 26.300781 55.585938 27.046875 C 54.925781 27.789062 53.933594 28.128906 52.972656 28.355469 C 51.695312 28.660156 50.316406 28.820312 49.105469 28.316406 C 47.894531 27.8125 46.953125 26.453125 47.304688 25.179688 C 47.453125 24.640625 47.800781 24.1875 48.140625 23.746094 C 48.476562 23.304688 48.816406 22.839844 48.945312 22.296875 C 49.054688 21.84375 48.972656 21.320312 48.675781 20.980469 C 48.566406 20.859375 48.546875 20.679688 48.625 20.535156 Z M 48.632812 20.523438 "/>
<path style=" stroke:none;fill-rule:nonzero;fill:rgb(90.196078%,90.196078%,90.196078%);fill-opacity:1;" d="M 9.300781 30.789062 C 8.203125 31.175781 6.984375 30.960938 6.082031 30.214844 C 4.957031 29.261719 4.605469 27.691406 4.316406 26.238281 C 4.03125 24.800781 3.75 23.367188 3.464844 21.933594 L 5.246094 23.167969 C 6.527344 24.058594 7.835938 24.976562 8.71875 26.261719 C 9.605469 27.550781 9.992188 29.308594 9.28125 30.699219 "/>
<path style=" stroke:none;fill-rule:nonzero;fill:rgb(94.901961%,94.901961%,94.901961%);fill-opacity:1;" d="M 9.148438 35.996094 C 9.328125 34.675781 9.511719 33.332031 9.386719 31.996094 C 9.273438 30.808594 8.914062 29.648438 8.183594 28.695312 C 7.796875 28.191406 7.324219 27.761719 6.789062 27.421875 C 6.648438 27.332031 6.519531 27.554688 6.660156 27.644531 C 7.585938 28.234375 8.300781 29.105469 8.703125 30.132812 C 9.148438 31.277344 9.222656 32.523438 9.144531 33.738281 C 9.097656 34.472656 9 35.199219 8.902344 35.929688 C 8.882812 35.996094 8.921875 36.066406 8.988281 36.085938 C 9.058594 36.105469 9.128906 36.066406 9.148438 35.996094 Z M 9.148438 35.996094 "/>
<path style=" stroke:none;fill-rule:nonzero;fill:rgb(90.196078%,90.196078%,90.196078%);fill-opacity:1;" d="M 7.414062 33.65625 C 6.941406 34.378906 6.132812 34.800781 5.277344 34.769531 C 4.195312 34.714844 3.292969 33.953125 2.480469 33.230469 L 0.0820312 31.09375 L 1.671875 31.019531 C 2.8125 30.960938 3.984375 30.910156 5.074219 31.265625 C 6.160156 31.621094 7.164062 32.476562 7.363281 33.613281 "/>
<path style=" stroke:none;fill-rule:nonzero;fill:rgb(94.901961%,94.901961%,94.901961%);fill-opacity:1;" d="M 9.65625 36.757812 C 8.789062 35.210938 7.785156 33.492188 5.988281 32.941406 C 5.488281 32.789062 4.964844 32.734375 4.445312 32.78125 C 4.28125 32.796875 4.320312 33.050781 4.484375 33.035156 C 5.355469 32.964844 6.226562 33.195312 6.949219 33.691406 C 7.640625 34.171875 8.183594 34.832031 8.640625 35.535156 C 8.921875 35.964844 9.171875 36.414062 9.421875 36.863281 C 9.503906 37.007812 9.738281 36.902344 9.65625 36.757812 Z M 9.65625 36.757812 "/>
<path style=" stroke:none;fill-rule:nonzero;fill:rgb(94.901961%,94.901961%,94.901961%);fill-opacity:1;" d="M 11.046875 38.386719 C 10.984375 37.691406 10.546875 37.085938 9.90625 36.820312 L 9.90625 35.925781 L 8.421875 35.925781 L 8.421875 36.847656 C 7.8125 37.128906 7.402344 37.714844 7.34375 38.386719 L 6.996094 42.488281 L 11.394531 42.488281 Z M 11.046875 38.386719 "/>
</g>
</svg>
