<?xml version="1.0" encoding="UTF-8"?>
<svg xmlns="http://www.w3.org/2000/svg" xmlns:xlink="http://www.w3.org/1999/xlink" width="60pt" height="37pt" viewBox="0 0 60 37" version="1.1">
<g id="surface1">
<path style=" stroke:none;fill-rule:nonzero;fill:rgb(90.196078%,90.196078%,90.196078%);fill-opacity:1;" d="M 59.371094 24.292969 L 17.59375 24.292969 C 17.238281 24.292969 16.949219 24.003906 16.949219 23.644531 L 16.949219 0.648438 C 16.949219 0.289062 17.238281 0 17.59375 0 L 59.371094 0 C 59.730469 0 60.019531 0.289062 60.019531 0.648438 L 60.019531 23.644531 C 60.019531 24.003906 59.730469 24.292969 59.371094 24.292969 Z M 59.371094 24.292969 "/>
<path style=" stroke:none;fill-rule:nonzero;fill:rgb(100%,100%,100%);fill-opacity:1;" d="M 58.492188 23.410156 L 18.476562 23.410156 C 18.121094 23.410156 17.832031 23.121094 17.832031 22.765625 L 17.832031 1.527344 C 17.832031 1.171875 18.121094 0.882812 18.476562 0.882812 L 58.492188 0.882812 C 58.847656 0.882812 59.136719 1.171875 59.136719 1.527344 L 59.136719 22.765625 C 59.136719 23.121094 58.847656 23.410156 58.492188 23.410156 Z M 58.492188 23.410156 "/>
<path style=" stroke:none;fill-rule:nonzero;fill:rgb(24.705882%,23.921569%,33.72549%);fill-opacity:1;" d="M 29.675781 13.984375 L 22.144531 13.984375 C 21.972656 13.984375 21.832031 13.84375 21.832031 13.671875 L 21.832031 5.824219 C 21.832031 5.652344 21.972656 5.511719 22.144531 5.511719 L 29.675781 5.511719 C 29.847656 5.511719 29.988281 5.652344 29.988281 5.824219 L 29.988281 13.671875 C 29.988281 13.84375 29.847656 13.984375 29.675781 13.984375 Z M 22.144531 5.636719 C 22.042969 5.636719 21.957031 5.722656 21.957031 5.824219 L 21.957031 13.671875 C 21.957031 13.773438 22.042969 13.859375 22.144531 13.859375 L 29.675781 13.859375 C 29.777344 13.859375 29.863281 13.773438 29.863281 13.671875 L 29.863281 5.824219 C 29.863281 5.722656 29.777344 5.636719 29.675781 5.636719 Z M 22.144531 5.636719 "/>
<path style=" stroke:none;fill-rule:nonzero;fill:rgb(24.705882%,23.921569%,33.72549%);fill-opacity:1;" d="M 42.25 13.984375 L 34.71875 13.984375 C 34.546875 13.984375 34.40625 13.84375 34.40625 13.671875 L 34.40625 5.824219 C 34.40625 5.652344 34.546875 5.511719 34.71875 5.511719 L 42.25 5.511719 C 42.421875 5.511719 42.5625 5.652344 42.5625 5.824219 L 42.5625 13.671875 C 42.5625 13.84375 42.421875 13.984375 42.25 13.984375 Z M 34.71875 5.636719 C 34.617188 5.636719 34.53125 5.722656 34.53125 5.824219 L 34.53125 13.671875 C 34.53125 13.773438 34.617188 13.859375 34.71875 13.859375 L 42.25 13.859375 C 42.351562 13.859375 42.4375 13.773438 42.4375 13.671875 L 42.4375 5.824219 C 42.4375 5.722656 42.351562 5.636719 42.25 5.636719 Z M 34.71875 5.636719 "/>
<path style=" stroke:none;fill-rule:nonzero;fill:rgb(24.705882%,23.921569%,33.72549%);fill-opacity:1;" d="M 54.824219 13.984375 L 47.292969 13.984375 C 47.121094 13.984375 46.980469 13.84375 46.980469 13.671875 L 46.980469 5.824219 C 46.980469 5.652344 47.121094 5.511719 47.292969 5.511719 L 54.824219 5.511719 C 54.996094 5.511719 55.136719 5.652344 55.136719 5.824219 L 55.136719 13.671875 C 55.136719 13.84375 54.996094 13.984375 54.824219 13.984375 Z M 47.292969 5.636719 C 47.191406 5.636719 47.105469 5.722656 47.105469 5.824219 L 47.105469 13.671875 C 47.105469 13.773438 47.191406 13.859375 47.292969 13.859375 L 54.824219 13.859375 C 54.925781 13.859375 55.011719 13.773438 55.011719 13.671875 L 55.011719 5.824219 C 55.011719 5.722656 54.925781 5.636719 54.824219 5.636719 Z M 47.292969 5.636719 "/>
<path style=" stroke:none;fill-rule:nonzero;fill:rgb(90.196078%,90.196078%,90.196078%);fill-opacity:1;" d="M 24.457031 18.78125 C 24.53125 18.78125 24.601562 18.742188 24.640625 18.675781 C 24.679688 18.609375 24.679688 18.527344 24.640625 18.460938 C 24.601562 18.394531 24.53125 18.355469 24.457031 18.355469 L 22.546875 18.355469 C 22.425781 18.355469 22.332031 18.449219 22.332031 18.566406 C 22.332031 18.683594 22.425781 18.78125 22.546875 18.78125 Z M 24.457031 18.78125 "/>
<path style=" stroke:none;fill-rule:nonzero;fill:rgb(90.196078%,90.196078%,90.196078%);fill-opacity:1;" d="M 29.273438 17.523438 C 29.390625 17.523438 29.488281 17.429688 29.488281 17.3125 C 29.488281 17.195312 29.390625 17.097656 29.273438 17.097656 L 22.546875 17.097656 C 22.425781 17.097656 22.332031 17.195312 22.332031 17.3125 C 22.332031 17.429688 22.425781 17.523438 22.546875 17.523438 Z M 29.273438 17.523438 "/>
<path style=" stroke:none;fill-rule:nonzero;fill:rgb(90.196078%,90.196078%,90.196078%);fill-opacity:1;" d="M 37.03125 18.78125 C 37.148438 18.78125 37.242188 18.683594 37.242188 18.566406 C 37.242188 18.449219 37.148438 18.355469 37.03125 18.355469 L 35.121094 18.355469 C 35.003906 18.355469 34.90625 18.449219 34.90625 18.566406 C 34.90625 18.683594 35.003906 18.78125 35.121094 18.78125 Z M 37.03125 18.78125 "/>
<path style=" stroke:none;fill-rule:nonzero;fill:rgb(90.196078%,90.196078%,90.196078%);fill-opacity:1;" d="M 41.847656 17.523438 C 41.964844 17.523438 42.0625 17.429688 42.0625 17.3125 C 42.0625 17.195312 41.964844 17.097656 41.847656 17.097656 L 35.121094 17.097656 C 35.003906 17.097656 34.90625 17.195312 34.90625 17.3125 C 34.90625 17.429688 35.003906 17.523438 35.121094 17.523438 Z M 41.847656 17.523438 "/>
<path style=" stroke:none;fill-rule:nonzero;fill:rgb(90.196078%,90.196078%,90.196078%);fill-opacity:1;" d="M 49.605469 18.78125 C 49.722656 18.78125 49.816406 18.683594 49.816406 18.566406 C 49.816406 18.449219 49.722656 18.355469 49.605469 18.355469 L 47.695312 18.355469 C 47.617188 18.355469 47.546875 18.394531 47.507812 18.460938 C 47.472656 18.527344 47.472656 18.609375 47.507812 18.675781 C 47.546875 18.742188 47.617188 18.78125 47.695312 18.78125 Z M 49.605469 18.78125 "/>
<path style=" stroke:none;fill-rule:nonzero;fill:rgb(90.196078%,90.196078%,90.196078%);fill-opacity:1;" d="M 54.421875 17.523438 C 54.539062 17.523438 54.636719 17.429688 54.636719 17.3125 C 54.636719 17.195312 54.539062 17.097656 54.421875 17.097656 L 47.695312 17.097656 C 47.578125 17.097656 47.480469 17.195312 47.480469 17.3125 C 47.480469 17.429688 47.578125 17.523438 47.695312 17.523438 Z M 54.421875 17.523438 "/>
<path style=" stroke:none;fill-rule:nonzero;fill:rgb(11.372549%,38.431373%,9.411765%);fill-opacity:1;" d="M 29.273438 16.289062 C 29.351562 16.289062 29.421875 16.25 29.460938 16.183594 C 29.496094 16.117188 29.496094 16.035156 29.460938 15.972656 C 29.421875 15.90625 29.351562 15.863281 29.273438 15.863281 L 22.546875 15.863281 C 22.425781 15.863281 22.332031 15.960938 22.332031 16.078125 C 22.332031 16.195312 22.425781 16.289062 22.546875 16.289062 Z M 29.273438 16.289062 "/>
<path style=" stroke:none;fill-rule:nonzero;fill:rgb(11.372549%,38.431373%,9.411765%);fill-opacity:1;" d="M 41.847656 16.289062 C 41.964844 16.289062 42.0625 16.195312 42.0625 16.078125 C 42.0625 15.960938 41.964844 15.863281 41.847656 15.863281 L 35.121094 15.863281 C 35.003906 15.863281 34.90625 15.960938 34.90625 16.078125 C 34.90625 16.195312 35.003906 16.289062 35.121094 16.289062 Z M 41.847656 16.289062 "/>
<path style=" stroke:none;fill-rule:nonzero;fill:rgb(11.372549%,38.431373%,9.411765%);fill-opacity:1;" d="M 54.421875 16.289062 C 54.539062 16.289062 54.636719 16.195312 54.636719 16.078125 C 54.636719 15.960938 54.539062 15.863281 54.421875 15.863281 L 47.695312 15.863281 C 47.617188 15.863281 47.546875 15.90625 47.507812 15.972656 C 47.472656 16.035156 47.472656 16.117188 47.507812 16.183594 C 47.546875 16.25 47.617188 16.289062 47.695312 16.289062 Z M 54.421875 16.289062 "/>
<path style=" stroke:none;fill-rule:nonzero;fill:rgb(90.196078%,90.196078%,90.196078%);fill-opacity:1;" d="M 28.070312 12.464844 C 28.1875 12.464844 28.28125 12.367188 28.28125 12.25 C 28.28125 12.132812 28.1875 12.039062 28.070312 12.039062 L 23.75 12.039062 C 23.632812 12.039062 23.535156 12.132812 23.535156 12.25 C 23.535156 12.367188 23.632812 12.464844 23.75 12.464844 Z M 28.070312 12.464844 "/>
<path style=" stroke:none;fill-rule:nonzero;fill:rgb(90.196078%,90.196078%,90.196078%);fill-opacity:1;" d="M 28.070312 11.207031 C 28.1875 11.207031 28.28125 11.113281 28.28125 10.996094 C 28.28125 10.878906 28.1875 10.78125 28.070312 10.78125 L 23.75 10.78125 C 23.632812 10.78125 23.535156 10.878906 23.535156 10.996094 C 23.535156 11.113281 23.632812 11.207031 23.75 11.207031 Z M 28.070312 11.207031 "/>
<path style=" stroke:none;fill-rule:nonzero;fill:rgb(11.372549%,38.431373%,9.411765%);fill-opacity:1;" d="M 27.261719 8.382812 C 27.261719 9.132812 26.65625 9.738281 25.910156 9.738281 C 25.164062 9.738281 24.558594 9.132812 24.558594 8.382812 C 24.558594 7.636719 25.164062 7.03125 25.910156 7.03125 C 26.65625 7.03125 27.261719 7.636719 27.261719 8.382812 Z M 27.261719 8.382812 "/>
<path style=" stroke:none;fill-rule:nonzero;fill:rgb(90.196078%,90.196078%,90.196078%);fill-opacity:1;" d="M 40.644531 12.464844 C 40.761719 12.464844 40.855469 12.367188 40.855469 12.25 C 40.855469 12.132812 40.761719 12.039062 40.644531 12.039062 L 36.324219 12.039062 C 36.207031 12.039062 36.109375 12.132812 36.109375 12.25 C 36.109375 12.367188 36.207031 12.464844 36.324219 12.464844 Z M 40.644531 12.464844 "/>
<path style=" stroke:none;fill-rule:nonzero;fill:rgb(90.196078%,90.196078%,90.196078%);fill-opacity:1;" d="M 40.644531 11.207031 C 40.761719 11.207031 40.855469 11.113281 40.855469 10.996094 C 40.855469 10.878906 40.761719 10.78125 40.644531 10.78125 L 36.324219 10.78125 C 36.207031 10.78125 36.109375 10.878906 36.109375 10.996094 C 36.109375 11.113281 36.207031 11.207031 36.324219 11.207031 Z M 40.644531 11.207031 "/>
<path style=" stroke:none;fill-rule:nonzero;fill:rgb(11.372549%,38.431373%,9.411765%);fill-opacity:1;" d="M 39.835938 8.382812 C 39.835938 9.132812 39.230469 9.738281 38.484375 9.738281 C 37.738281 9.738281 37.132812 9.132812 37.132812 8.382812 C 37.132812 7.636719 37.738281 7.03125 38.484375 7.03125 C 39.230469 7.03125 39.835938 7.636719 39.835938 8.382812 Z M 39.835938 8.382812 "/>
<path style=" stroke:none;fill-rule:nonzero;fill:rgb(90.196078%,90.196078%,90.196078%);fill-opacity:1;" d="M 53.21875 12.464844 C 53.335938 12.464844 53.429688 12.367188 53.429688 12.25 C 53.429688 12.132812 53.335938 12.039062 53.21875 12.039062 L 48.898438 12.039062 C 48.78125 12.039062 48.6875 12.132812 48.6875 12.25 C 48.6875 12.367188 48.78125 12.464844 48.898438 12.464844 Z M 53.21875 12.464844 "/>
<path style=" stroke:none;fill-rule:nonzero;fill:rgb(90.196078%,90.196078%,90.196078%);fill-opacity:1;" d="M 53.21875 11.207031 C 53.335938 11.207031 53.429688 11.113281 53.429688 10.996094 C 53.429688 10.878906 53.335938 10.78125 53.21875 10.78125 L 48.898438 10.78125 C 48.78125 10.78125 48.6875 10.878906 48.6875 10.996094 C 48.6875 11.113281 48.78125 11.207031 48.898438 11.207031 Z M 53.21875 11.207031 "/>
<path style=" stroke:none;fill-rule:nonzero;fill:rgb(11.372549%,38.431373%,9.411765%);fill-opacity:1;" d="M 52.410156 8.382812 C 52.410156 9.132812 51.804688 9.738281 51.058594 9.738281 C 50.3125 9.738281 49.707031 9.132812 49.707031 8.382812 C 49.707031 7.636719 50.3125 7.03125 51.058594 7.03125 C 51.804688 7.03125 52.410156 7.636719 52.410156 8.382812 Z M 52.410156 8.382812 "/>
<path style=" stroke:none;fill-rule:nonzero;fill:rgb(100%,72.54902%,72.54902%);fill-opacity:1;" d="M 10.039062 31.421875 L 10.765625 31.816406 L 10.304688 33.332031 L 9.578125 33.398438 L 9.183594 32.542969 Z M 10.039062 31.421875 "/>
<path style=" stroke:none;fill-rule:nonzero;fill:rgb(100%,72.54902%,72.54902%);fill-opacity:1;" d="M 7.800781 34.453125 L 7.800781 35.175781 L 6.683594 35.109375 L 6.699219 34.511719 Z M 7.800781 34.453125 "/>
<path style=" stroke:none;fill-rule:nonzero;fill:rgb(18.431373%,18.039216%,25.490196%);fill-opacity:1;" d="M 10.304688 22.726562 L 9.910156 27.667969 L 8.65625 34.914062 L 6.683594 34.648438 L 7.339844 28.917969 L 7.078125 23.652344 Z M 10.304688 22.726562 "/>
<path style=" stroke:none;fill-rule:nonzero;fill:rgb(18.431373%,18.039216%,25.490196%);fill-opacity:1;" d="M 5.039062 19.039062 L 9.777344 19.105469 L 10.304688 22.726562 L 7.078125 24.242188 L 6.289062 27.140625 L 10.304688 31.421875 L 8.722656 33.398438 C 8.722656 33.398438 6.484375 30.367188 4.839844 28.65625 C 3.195312 26.945312 3.984375 21.742188 3.984375 21.742188 Z M 5.039062 19.039062 "/>
<path style=" stroke:none;fill-rule:nonzero;fill:rgb(100%,72.54902%,72.54902%);fill-opacity:1;" d="M 9.316406 8.238281 C 9.316406 9.039062 8.667969 9.6875 7.867188 9.6875 C 7.070312 9.6875 6.421875 9.039062 6.421875 8.238281 C 6.421875 7.4375 7.070312 6.789062 7.867188 6.789062 C 8.667969 6.789062 9.316406 7.4375 9.316406 8.238281 Z M 9.316406 8.238281 "/>
<path style=" stroke:none;fill-rule:nonzero;fill:rgb(100%,72.54902%,72.54902%);fill-opacity:1;" d="M 8.394531 9.226562 L 8.394531 10.675781 L 7.40625 12.257812 C 7.40625 12.257812 5.894531 11.136719 6.222656 10.875 C 6.550781 10.609375 6.617188 8.570312 6.617188 8.570312 Z M 8.394531 9.226562 "/>
<path style=" stroke:none;fill-rule:nonzero;fill:rgb(100%,100%,100%);fill-opacity:1;" d="M 8.394531 10.414062 L 9.382812 11.597656 L 8.988281 19.832031 L 5.894531 19.765625 L 5.367188 12.585938 L 6.023438 10.742188 L 6.476562 10.128906 L 7.277344 11.335938 Z M 8.394531 10.414062 "/>
<path style=" stroke:none;fill-rule:nonzero;fill:rgb(18.431373%,18.039216%,25.490196%);fill-opacity:1;" d="M 9.972656 14.695312 L 10.699219 17.460938 L 9.972656 20.226562 L 11.160156 21.804688 L 12.210938 16.800781 C 12.210938 16.800781 11.421875 12.71875 11.355469 12.257812 C 11.289062 11.796875 11.160156 11.730469 11.160156 11.730469 L 10.632812 11.796875 Z M 9.972656 14.695312 "/>
<path style=" stroke:none;fill-rule:nonzero;fill:rgb(18.431373%,18.039216%,25.490196%);fill-opacity:1;" d="M 4.707031 15.746094 L 4.25 16.605469 L 4.117188 18.050781 L 4.378906 19.699219 L 3.457031 21.214844 L 2.535156 17.066406 L 3.523438 11.730469 L 3.917969 11.730469 Z M 4.707031 15.746094 "/>
<path style=" stroke:none;fill-rule:nonzero;fill:rgb(18.431373%,18.039216%,25.490196%);fill-opacity:1;" d="M 10.304688 31.355469 C 10.304688 31.355469 11.226562 31.621094 11.554688 31.683594 C 11.882812 31.75 11.355469 33.003906 11.355469 33.003906 C 11.355469 33.003906 11.027344 34.714844 10.960938 35.042969 C 10.894531 35.375 10.433594 36.492188 9.84375 36.625 C 9.25 36.757812 9.644531 34.320312 9.644531 34.320312 C 9.644531 34.320312 9.382812 33.527344 9.382812 33.265625 C 9.382812 33.003906 9.777344 33.132812 9.777344 33.132812 C 10.828125 33.003906 10.304688 31.355469 10.304688 31.355469 Z M 10.304688 31.355469 "/>
<path style=" stroke:none;fill-rule:nonzero;fill:rgb(18.431373%,18.039216%,25.490196%);fill-opacity:1;" d="M 8.132812 36.425781 C 8.066406 36.820312 8.195312 36.820312 7.144531 36.953125 C 6.089844 37.085938 6.355469 36.230469 6.355469 36.230469 C 6.398438 35.824219 6.488281 35.429688 6.617188 35.042969 C 6.816406 34.515625 7.867188 35.175781 7.867188 35.175781 C 7.867188 35.175781 8.195312 36.03125 8.132812 36.425781 Z M 8.132812 36.425781 "/>
<path style=" stroke:none;fill-rule:nonzero;fill:rgb(18.431373%,18.039216%,25.490196%);fill-opacity:1;" d="M 6.617188 8.613281 L 6.582031 9.199219 C 6.582031 9.199219 6.15625 8.238281 6.089844 7.25 C 6.023438 6.261719 7.144531 6.066406 7.800781 6 C 8.460938 5.933594 9.578125 6.394531 9.578125 6.921875 C 9.578125 7.449219 8.394531 7.316406 7.933594 7.1875 C 7.472656 7.054688 7.277344 8.171875 7.277344 8.171875 L 7.011719 8.238281 Z M 6.617188 8.613281 "/>
<path style=" stroke:none;fill-rule:nonzero;fill:rgb(100%,100%,100%);fill-opacity:1;" d="M 8.785156 10.878906 L 8.394531 10.414062 L 7.277344 11.335938 L 8.394531 12.125 Z M 8.785156 10.878906 "/>
<path style=" stroke:none;fill-rule:nonzero;fill:rgb(100%,100%,100%);fill-opacity:1;" d="M 6.023438 10.742188 L 6.484375 10.148438 L 7.277344 11.335938 L 6.289062 12.058594 Z M 6.023438 10.742188 "/>
<path style=" stroke:none;fill-rule:nonzero;fill:rgb(18.431373%,18.039216%,25.490196%);fill-opacity:1;" d="M 10.171875 15.617188 L 9.910156 18.117188 L 10.433594 19.632812 L 10.765625 21.082031 C 10.765625 21.082031 10.765625 22.464844 9.449219 22.53125 C 8.132812 22.597656 7.011719 18.382812 7.011719 18.382812 C 7.011719 18.382812 6.816406 19.304688 6.683594 19.832031 C 6.550781 20.359375 4.3125 22.464844 4.3125 22.464844 C 4.3125 22.464844 3.789062 22.398438 3.328125 21.34375 C 2.867188 20.292969 4.246094 19.304688 4.246094 19.304688 L 4.644531 17.921875 L 4.511719 16.207031 L 3.589844 11.730469 L 6.320312 10.3125 L 6.023438 14.101562 L 7.011719 17.066406 L 8.492188 10.511719 L 8.988281 10.875 L 11.09375 11.730469 Z M 10.171875 15.617188 "/>
<path style=" stroke:none;fill-rule:nonzero;fill:rgb(24.705882%,23.921569%,33.72549%);fill-opacity:1;" d="M 16.808594 37.007812 L 0 37.007812 L 0 36.871094 L 16.832031 36.871094 Z M 16.808594 37.007812 "/>
</g>
</svg>
