<?xml version="1.0" encoding="UTF-8"?>
<svg xmlns="http://www.w3.org/2000/svg" xmlns:xlink="http://www.w3.org/1999/xlink" width="60pt" height="34pt" viewBox="0 0 60 34" version="1.1">
<g id="surface1">
<path style=" stroke:none;fill-rule:nonzero;fill:rgb(90.196078%,90.196078%,90.196078%);fill-opacity:1;" d="M 41.59375 10.773438 L 40.457031 10.773438 C 40.378906 10.777344 40.316406 10.71875 40.308594 10.640625 L 40.082031 8.277344 L 41.96875 8.277344 L 41.742188 10.640625 C 41.734375 10.71875 41.671875 10.777344 41.59375 10.773438 Z M 41.59375 10.773438 "/>
<path style=" stroke:none;fill-rule:nonzero;fill:rgb(80%,80%,80%);fill-opacity:1;" d="M 41.96875 8.574219 L 40.085938 8.574219 C 40.003906 8.574219 39.9375 8.507812 39.9375 8.425781 L 39.9375 8.066406 C 39.9375 7.984375 40.003906 7.917969 40.085938 7.917969 L 41.96875 7.917969 C 42.046875 7.917969 42.113281 7.984375 42.113281 8.066406 L 42.113281 8.425781 C 42.113281 8.507812 42.046875 8.574219 41.96875 8.574219 Z M 41.96875 8.574219 "/>
<path style=" stroke:none;fill-rule:nonzero;fill:rgb(11.372549%,38.431373%,9.411765%);fill-opacity:1;" d="M 28.257812 8.234375 L 23.742188 8.234375 L 23.742188 6.847656 C 25.167969 5.84375 26.433594 5.933594 28.097656 6.929688 Z M 28.257812 8.234375 "/>
<path style=" stroke:none;fill-rule:nonzero;fill:rgb(100%,72.156863%,72.156863%);fill-opacity:1;" d="M 22.695312 32.855469 L 21.707031 32.855469 L 21.558594 29 L 22.695312 29 Z M 22.695312 32.855469 "/>
<path style=" stroke:none;fill-rule:nonzero;fill:rgb(18.431373%,18.039216%,25.490196%);fill-opacity:1;" d="M 22.949219 33.824219 L 19.761719 33.824219 L 19.761719 33.78125 C 19.761719 33.089844 20.316406 32.527344 21 32.527344 L 22.949219 32.527344 Z M 22.949219 33.824219 "/>
<path style=" stroke:none;fill-rule:nonzero;fill:rgb(100%,72.156863%,72.156863%);fill-opacity:1;" d="M 28.265625 32.855469 L 29.253906 32.855469 L 29.402344 29 L 28.265625 29 Z M 28.265625 32.855469 "/>
<path style=" stroke:none;fill-rule:nonzero;fill:rgb(18.431373%,18.039216%,25.490196%);fill-opacity:1;" d="M 28.011719 32.527344 L 29.960938 32.527344 C 30.644531 32.527344 31.199219 33.089844 31.199219 33.78125 L 31.199219 33.824219 L 28.011719 33.824219 Z M 28.011719 32.527344 "/>
<path style=" stroke:none;fill-rule:nonzero;fill:rgb(18.431373%,18.039216%,25.490196%);fill-opacity:1;" d="M 28.289062 32.359375 C 28.121094 32.359375 27.972656 32.242188 27.9375 32.074219 L 25.484375 21.265625 C 25.476562 21.210938 25.425781 21.171875 25.367188 21.171875 C 25.308594 21.171875 25.261719 21.210938 25.25 21.269531 L 23 32.003906 C 22.964844 32.171875 22.816406 32.292969 22.644531 32.292969 L 21.574219 32.292969 C 21.472656 32.292969 21.375 32.25 21.308594 32.175781 C 21.238281 32.105469 21.203125 32.003906 21.210938 31.902344 L 22.007812 18.300781 L 22.328125 18.203125 L 22.335938 18.203125 L 28.648438 18.257812 L 29.992188 31.847656 C 30 31.945312 29.972656 32.042969 29.910156 32.121094 C 29.847656 32.195312 29.757812 32.242188 29.660156 32.25 L 28.320312 32.359375 C 28.308594 32.359375 28.300781 32.359375 28.289062 32.359375 Z M 28.289062 32.359375 "/>
<path style=" stroke:none;fill-rule:nonzero;fill:rgb(100%,72.156863%,72.156863%);fill-opacity:1;" d="M 27.664062 3.75 C 27.664062 4.855469 26.777344 5.75 25.683594 5.75 C 24.589844 5.75 23.703125 4.855469 23.703125 3.75 C 23.703125 2.640625 24.589844 1.746094 25.683594 1.746094 C 26.777344 1.746094 27.664062 2.640625 27.664062 3.75 Z M 27.664062 3.75 "/>
<path style=" stroke:none;fill-rule:nonzero;fill:rgb(24.705882%,23.921569%,33.72549%);fill-opacity:1;" d="M 24.472656 19.792969 C 24.125 19.796875 23.777344 19.746094 23.445312 19.644531 C 22.847656 19.460938 22.347656 19.039062 22.070312 18.472656 C 22.027344 18.390625 22.015625 18.289062 22.042969 18.199219 C 22.261719 17.445312 23.316406 13.527344 22.644531 10.414062 C 22.453125 9.539062 22.621094 8.621094 23.109375 7.875 C 23.585938 7.136719 24.339844 6.621094 25.199219 6.453125 C 25.3125 6.433594 25.421875 6.414062 25.535156 6.398438 C 26.484375 6.28125 27.4375 6.597656 28.132812 7.265625 C 28.851562 7.945312 29.230469 8.914062 29.167969 9.902344 L 28.652344 18.300781 C 28.644531 18.429688 28.570312 18.546875 28.457031 18.605469 C 27.859375 18.921875 26.070312 19.792969 24.472656 19.792969 Z M 24.472656 19.792969 "/>
<path style=" stroke:none;fill-rule:nonzero;fill:rgb(18.431373%,18.039216%,25.490196%);fill-opacity:1;" d="M 27.921875 2.273438 C 27.5 1.195312 26.386719 0.566406 25.257812 0.757812 L 25.882812 1.269531 C 25.105469 1.296875 24.289062 1.238281 23.734375 1.789062 C 23.910156 1.785156 24.140625 2.164062 24.320312 2.160156 C 23.988281 2.167969 23.691406 2.402344 23.542969 2.699219 C 23.410156 3.007812 23.378906 3.351562 23.453125 3.679688 C 23.519531 4.007812 24.015625 4.773438 24.148438 5.078125 C 24.128906 4.28125 25.679688 2.378906 26.4375 2.578125 C 26.050781 2.722656 25.71875 2.980469 25.476562 3.316406 C 25.992188 3.050781 26.574219 2.957031 27.144531 3.039062 C 27.277344 3.070312 27.410156 3.078125 27.542969 3.0625 C 27.710938 3.027344 27.847656 2.910156 27.90625 2.75 C 27.964844 2.589844 27.9375 2.410156 27.832031 2.277344 Z M 27.921875 2.273438 "/>
<path style=" stroke:none;fill-rule:nonzero;fill:rgb(11.372549%,38.431373%,9.411765%);fill-opacity:1;" d="M 24.335938 19.285156 C 24.285156 19.285156 24.234375 19.277344 24.191406 19.257812 L 20.429688 17.597656 C 20.265625 17.527344 20.179688 17.34375 20.226562 17.167969 L 22.714844 7.664062 C 22.808594 7.308594 23.039062 7.003906 23.355469 6.820312 C 23.675781 6.640625 24.050781 6.59375 24.402344 6.695312 L 25.398438 6.980469 L 24.695312 18.941406 C 24.6875 19.0625 24.625 19.167969 24.523438 19.230469 C 24.46875 19.269531 24.402344 19.285156 24.335938 19.285156 Z M 24.335938 19.285156 "/>
<path style=" stroke:none;fill-rule:nonzero;fill:rgb(11.372549%,38.431373%,9.411765%);fill-opacity:1;" d="M 31.289062 17.167969 L 31.125 16.535156 L 30.886719 15.621094 L 30.769531 15.179688 L 30.53125 14.265625 L 28.800781 7.664062 C 28.710938 7.308594 28.476562 7.003906 28.160156 6.820312 C 27.84375 6.636719 27.464844 6.59375 27.113281 6.695312 L 26.121094 6.980469 L 26.613281 15.394531 L 26.664062 16.273438 L 26.695312 16.824219 L 26.695312 16.828125 L 26.746094 17.699219 L 26.820312 18.941406 C 26.832031 19.136719 26.988281 19.285156 27.179688 19.285156 C 27.230469 19.285156 27.28125 19.277344 27.328125 19.257812 L 31.085938 17.597656 C 31.25 17.527344 31.335938 17.34375 31.289062 17.167969 Z M 31.289062 17.167969 "/>
<path style=" stroke:none;fill-rule:nonzero;fill:rgb(80%,80%,80%);fill-opacity:1;" d="M 30.769531 15.179688 L 26.664062 16.273438 L 26.613281 15.394531 L 30.53125 14.265625 Z M 30.769531 15.179688 "/>
<path style=" stroke:none;fill-rule:nonzero;fill:rgb(80%,80%,80%);fill-opacity:1;" d="M 31.125 16.535156 L 26.746094 17.699219 L 26.695312 16.828125 L 26.695312 16.824219 L 30.886719 15.621094 Z M 31.125 16.535156 "/>
<path style=" stroke:none;fill-rule:nonzero;fill:rgb(80%,80%,80%);fill-opacity:1;" d="M 24.851562 15.582031 L 24.800781 16.445312 L 20.773438 15.230469 L 21.011719 14.328125 Z M 24.851562 15.582031 "/>
<path style=" stroke:none;fill-rule:nonzero;fill:rgb(80%,80%,80%);fill-opacity:1;" d="M 24.769531 17.011719 L 20.660156 15.671875 L 20.421875 16.574219 L 24.71875 17.871094 Z M 24.769531 17.011719 "/>
<path style=" stroke:none;fill-rule:nonzero;fill:rgb(100%,72.156863%,72.156863%);fill-opacity:1;" d="M 20.730469 17.914062 C 20.980469 17.847656 21.183594 17.675781 21.296875 17.441406 C 21.40625 17.207031 21.40625 16.933594 21.296875 16.699219 L 23.230469 10.566406 L 21.859375 10.277344 L 20.089844 16.289062 C 19.703125 16.503906 19.53125 16.976562 19.695312 17.390625 C 19.859375 17.804688 20.304688 18.027344 20.730469 17.914062 Z M 20.730469 17.914062 "/>
<path style=" stroke:none;fill-rule:nonzero;fill:rgb(24.705882%,23.921569%,33.72549%);fill-opacity:1;" d="M 23.285156 7.550781 C 23.679688 7.589844 23.898438 8.039062 23.800781 8.59375 L 23.332031 11.269531 C 23.296875 11.46875 23.132812 11.625 23 11.59375 L 21.410156 11.191406 C 21.289062 11.160156 21.242188 10.984375 21.3125 10.808594 L 22.265625 8.390625 C 22.472656 7.867188 22.902344 7.511719 23.285156 7.550781 Z M 23.285156 7.550781 "/>
<path style=" stroke:none;fill-rule:nonzero;fill:rgb(11.372549%,38.431373%,9.411765%);fill-opacity:1;" d="M 25.675781 0 C 27.070312 0 28.210938 1.121094 28.257812 2.527344 L 28.742188 2.527344 C 28.832031 2.527344 28.902344 2.601562 28.902344 2.691406 L 28.902344 3.34375 C 28.902344 3.433594 28.832031 3.507812 28.742188 3.507812 L 23.257812 3.507812 C 23.167969 3.507812 23.097656 3.433594 23.097656 3.34375 L 23.097656 2.609375 C 23.097656 1.167969 24.253906 0 25.675781 0 Z M 25.675781 0 "/>
<path style=" stroke:none;fill-rule:nonzero;fill:rgb(90.196078%,90.196078%,90.196078%);fill-opacity:1;" d="M 25.984375 16.128906 L 24.847656 16.128906 C 24.769531 16.128906 24.707031 16.070312 24.699219 15.992188 L 24.472656 13.628906 L 26.359375 13.628906 L 26.132812 15.992188 C 26.125 16.070312 26.0625 16.128906 25.984375 16.128906 Z M 25.984375 16.128906 "/>
<path style=" stroke:none;fill-rule:nonzero;fill:rgb(80%,80%,80%);fill-opacity:1;" d="M 26.359375 13.925781 L 24.472656 13.925781 C 24.394531 13.925781 24.328125 13.859375 24.328125 13.777344 L 24.328125 13.421875 C 24.328125 13.339844 24.394531 13.273438 24.472656 13.273438 L 26.359375 13.273438 C 26.4375 13.273438 26.503906 13.339844 26.503906 13.421875 L 26.503906 13.777344 C 26.503906 13.859375 26.4375 13.925781 26.359375 13.925781 Z M 26.359375 13.925781 "/>
<path style=" stroke:none;fill-rule:nonzero;fill:rgb(100%,72.156863%,72.156863%);fill-opacity:1;" d="M 25.441406 14.859375 C 25.484375 14.863281 25.527344 14.875 25.570312 14.886719 L 28.609375 12.253906 L 28.429688 11.289062 L 29.835938 10.828125 L 30.316406 12.503906 C 30.394531 12.785156 30.28125 13.082031 30.039062 13.238281 L 26.195312 15.695312 C 26.199219 16.054688 25.988281 16.375 25.660156 16.507812 C 25.332031 16.636719 24.960938 16.550781 24.722656 16.289062 C 24.484375 16.023438 24.433594 15.640625 24.59375 15.324219 C 24.753906 15.003906 25.089844 14.820312 25.441406 14.859375 Z M 25.441406 14.859375 "/>
<path style=" stroke:none;fill-rule:nonzero;fill:rgb(24.705882%,23.921569%,33.72549%);fill-opacity:1;" d="M 28.617188 7.769531 C 29.035156 7.652344 29.457031 7.976562 29.597656 8.527344 L 30.273438 11.171875 C 30.320312 11.371094 30.222656 11.578125 30.070312 11.601562 L 28.269531 11.863281 C 28.132812 11.882812 28.011719 11.742188 28.007812 11.550781 L 27.9375 8.949219 C 27.921875 8.382812 28.207031 7.886719 28.617188 7.769531 Z M 28.617188 7.769531 "/>
<path style=" stroke:none;fill-rule:nonzero;fill:rgb(80%,80%,80%);fill-opacity:1;" d="M 52.796875 24.660156 C 51.96875 23.546875 51.3125 22.3125 50.855469 21 C 50.800781 20.835938 50.867188 20.65625 51.019531 20.574219 L 53.851562 19.039062 C 53.945312 18.988281 54.054688 18.984375 54.152344 19.027344 C 54.25 19.070312 54.324219 19.160156 54.351562 19.261719 C 54.679688 20.53125 55.300781 21.699219 56.160156 22.679688 C 56.234375 22.757812 56.265625 22.871094 56.246094 22.976562 C 56.226562 23.082031 56.160156 23.171875 56.066406 23.222656 L 53.234375 24.757812 C 53.085938 24.839844 52.898438 24.796875 52.796875 24.660156 Z M 52.796875 24.660156 "/>
<path style=" stroke:none;fill-rule:nonzero;fill:rgb(100%,100%,100%);fill-opacity:1;" d="M 52.988281 24.515625 C 53.019531 24.554688 53.074219 24.566406 53.121094 24.542969 L 55.953125 23.007812 C 55.980469 22.992188 56 22.964844 56.007812 22.933594 C 56.011719 22.902344 56.003906 22.867188 55.980469 22.839844 C 55.09375 21.832031 54.457031 20.628906 54.117188 19.324219 C 54.109375 19.292969 54.085938 19.265625 54.054688 19.253906 C 54.027344 19.238281 53.992188 19.242188 53.964844 19.257812 L 51.132812 20.792969 C 51.085938 20.816406 51.066406 20.867188 51.082031 20.917969 C 51.53125 22.207031 52.175781 23.421875 52.988281 24.515625 Z M 52.988281 24.515625 "/>
<path style=" stroke:none;fill-rule:nonzero;fill:rgb(80%,80%,80%);fill-opacity:1;" d="M 54.039062 21.230469 L 52.496094 21.921875 C 52.371094 21.976562 52.230469 21.917969 52.175781 21.796875 L 52.136719 21.707031 C 52.082031 21.585938 52.136719 21.441406 52.261719 21.386719 L 53.804688 20.695312 C 53.925781 20.640625 54.070312 20.699219 54.125 20.820312 L 54.160156 20.910156 C 54.214844 21.03125 54.160156 21.175781 54.039062 21.230469 Z M 54.039062 21.230469 "/>
<path style=" stroke:none;fill-rule:nonzero;fill:rgb(80%,80%,80%);fill-opacity:1;" d="M 54.601562 22.292969 L 53.058594 22.980469 C 52.9375 23.035156 52.792969 22.980469 52.738281 22.855469 L 52.703125 22.769531 C 52.648438 22.644531 52.703125 22.5 52.824219 22.445312 L 54.367188 21.757812 C 54.492188 21.703125 54.632812 21.757812 54.6875 21.882812 L 54.726562 21.96875 C 54.78125 22.09375 54.726562 22.238281 54.601562 22.292969 Z M 54.601562 22.292969 "/>
<path style=" stroke:none;fill-rule:nonzero;fill:rgb(62.745098%,38.039216%,41.568627%);fill-opacity:1;" d="M 50.980469 21.410156 C 50.765625 21.269531 50.625 21.039062 50.589844 20.78125 C 50.558594 20.523438 50.640625 20.265625 50.816406 20.074219 L 50.164062 10.734375 L 52.039062 10.917969 L 52.089844 20.066406 C 52.394531 20.390625 52.410156 20.894531 52.125 21.234375 C 51.84375 21.578125 51.351562 21.652344 50.980469 21.410156 Z M 50.980469 21.410156 "/>
<path style=" stroke:none;fill-rule:nonzero;fill:rgb(24.705882%,23.921569%,33.72549%);fill-opacity:1;" d="M 50.589844 13.875 C 50.5 13.808594 50.445312 13.707031 50.4375 13.597656 L 50.300781 11.078125 C 50.273438 10.5625 50.636719 10.109375 51.140625 10.027344 C 51.644531 9.941406 52.132812 10.261719 52.265625 10.757812 L 52.867188 13.011719 C 52.921875 13.207031 52.808594 13.40625 52.613281 13.460938 L 50.898438 13.929688 C 50.792969 13.960938 50.679688 13.9375 50.589844 13.875 Z M 50.589844 13.875 "/>
<path style=" stroke:none;fill-rule:nonzero;fill:rgb(62.745098%,38.039216%,41.568627%);fill-opacity:1;" d="M 47.394531 32.890625 L 46.40625 32.890625 L 45.933594 29.035156 L 47.394531 29.035156 Z M 47.394531 32.890625 "/>
<path style=" stroke:none;fill-rule:nonzero;fill:rgb(18.431373%,18.039216%,25.490196%);fill-opacity:1;" d="M 45.699219 32.605469 L 47.605469 32.605469 L 47.605469 33.820312 L 44.496094 33.820312 C 44.496094 33.148438 45.035156 32.605469 45.699219 32.605469 Z M 45.699219 32.605469 "/>
<path style=" stroke:none;fill-rule:nonzero;fill:rgb(62.745098%,38.039216%,41.568627%);fill-opacity:1;" d="M 51.101562 32.890625 L 50.113281 32.890625 L 49.644531 29.035156 L 51.101562 29.035156 Z M 51.101562 32.890625 "/>
<path style=" stroke:none;fill-rule:nonzero;fill:rgb(18.431373%,18.039216%,25.490196%);fill-opacity:1;" d="M 49.40625 32.605469 L 51.316406 32.605469 L 51.316406 33.820312 L 48.207031 33.820312 C 48.207031 33.148438 48.746094 32.605469 49.40625 32.605469 Z M 49.40625 32.605469 "/>
<path style=" stroke:none;fill-rule:nonzero;fill:rgb(18.431373%,18.039216%,25.490196%);fill-opacity:1;" d="M 47.347656 30.949219 L 46.257812 30.898438 C 46.066406 30.886719 45.914062 30.726562 45.914062 30.53125 C 45.625 26.054688 45.226562 21.253906 45.835938 19.398438 C 45.835938 19.292969 45.882812 19.191406 45.960938 19.121094 C 46.039062 19.050781 46.148438 19.019531 46.25 19.035156 L 50.605469 19.671875 C 50.785156 19.699219 50.917969 19.851562 50.917969 20.03125 C 51.472656 22.230469 51.496094 26.210938 51.476562 30.347656 C 51.476562 30.449219 51.441406 30.542969 51.371094 30.609375 C 51.304688 30.679688 51.210938 30.71875 51.113281 30.71875 L 49.941406 30.71875 C 49.761719 30.71875 49.609375 30.589844 49.582031 30.410156 L 48.859375 25.757812 C 48.835938 25.617188 48.714844 25.511719 48.574219 25.515625 C 48.433594 25.519531 48.316406 25.625 48.300781 25.765625 L 47.722656 30.625 C 47.703125 30.8125 47.546875 30.949219 47.363281 30.949219 C 47.359375 30.949219 47.351562 30.949219 47.347656 30.949219 Z M 47.347656 30.949219 "/>
<path style=" stroke:none;fill-rule:nonzero;fill:rgb(24.705882%,23.921569%,33.72549%);fill-opacity:1;" d="M 48.113281 20.03125 C 47.152344 19.492188 46.402344 19.351562 46.042969 19.316406 C 45.945312 19.304688 45.855469 19.257812 45.796875 19.179688 C 45.734375 19.101562 45.707031 19 45.71875 18.902344 L 46.765625 11.070312 C 46.886719 10.140625 47.476562 9.339844 48.324219 8.953125 C 49.148438 8.574219 50.105469 8.648438 50.855469 9.15625 C 50.894531 9.179688 50.929688 9.203125 50.960938 9.230469 C 51.832031 9.875 52.234375 10.984375 51.980469 12.046875 C 51.339844 14.695312 51.121094 19.03125 51.085938 19.875 C 51.078125 20.023438 50.984375 20.152344 50.847656 20.203125 C 50.457031 20.347656 50.039062 20.421875 49.621094 20.421875 C 49.09375 20.425781 48.574219 20.292969 48.113281 20.03125 Z M 48.113281 20.03125 "/>
<path style=" stroke:none;fill-rule:nonzero;fill:rgb(62.745098%,38.039216%,41.568627%);fill-opacity:1;" d="M 50.964844 5.886719 C 50.964844 6.996094 50.078125 7.890625 48.984375 7.890625 C 47.890625 7.890625 47.003906 6.996094 47.003906 5.886719 C 47.003906 4.78125 47.890625 3.886719 48.984375 3.886719 C 50.078125 3.886719 50.964844 4.78125 50.964844 5.886719 Z M 50.964844 5.886719 "/>
<path style=" stroke:none;fill-rule:nonzero;fill:rgb(18.431373%,18.039216%,25.490196%);fill-opacity:1;" d="M 50.386719 7.472656 C 50.019531 7.871094 49.332031 7.65625 49.285156 7.113281 C 49.28125 7.070312 49.28125 7.027344 49.285156 6.988281 C 49.308594 6.746094 49.445312 6.527344 49.414062 6.273438 C 49.40625 6.210938 49.382812 6.148438 49.347656 6.097656 C 49.050781 5.699219 48.359375 6.277344 48.082031 5.914062 C 47.910156 5.695312 48.113281 5.34375 47.980469 5.097656 C 47.808594 4.773438 47.296875 4.933594 46.976562 4.753906 C 46.621094 4.554688 46.640625 4 46.875 3.664062 C 47.164062 3.253906 47.664062 3.035156 48.160156 3.003906 C 48.65625 2.972656 49.148438 3.109375 49.613281 3.289062 C 50.136719 3.496094 50.660156 3.785156 50.984375 4.25 C 51.375 4.820312 51.414062 5.585938 51.21875 6.25 C 51.097656 6.652344 50.6875 7.148438 50.386719 7.472656 Z M 50.386719 7.472656 "/>
<path style=" stroke:none;fill-rule:nonzero;fill:rgb(11.372549%,38.431373%,9.411765%);fill-opacity:1;" d="M 51.957031 9.417969 C 51.921875 9.253906 51.625 9.03125 51.199219 8.847656 C 49.808594 8.277344 48.234375 8.414062 46.964844 9.214844 C 46.875 9.21875 46.796875 9.285156 46.777344 9.371094 L 45.347656 15.777344 L 45.160156 16.609375 L 45.039062 17.164062 L 44.851562 17.996094 L 44.75 18.4375 C 44.738281 18.496094 44.75 18.558594 44.785156 18.605469 C 44.820312 18.652344 44.871094 18.683594 44.929688 18.6875 L 51.117188 19.226562 C 51.121094 19.226562 51.128906 19.226562 51.132812 19.226562 C 51.238281 19.226562 51.328125 19.144531 51.332031 19.039062 L 51.390625 18.132812 L 51.453125 17.164062 L 51.480469 16.742188 L 51.542969 15.777344 L 51.957031 9.429688 Z M 51.957031 9.417969 "/>
<path style=" stroke:none;fill-rule:nonzero;fill:rgb(62.745098%,38.039216%,41.568627%);fill-opacity:1;" d="M 41.808594 9.824219 C 41.816406 9.867188 41.824219 9.910156 41.828125 9.957031 L 45.292969 11.976562 L 46.132812 11.488281 L 47.03125 12.675781 L 45.230469 13.972656 L 41.277344 10.820312 C 40.949219 10.945312 40.578125 10.847656 40.34375 10.582031 C 40.113281 10.3125 40.070312 9.925781 40.238281 9.613281 C 40.40625 9.300781 40.746094 9.125 41.09375 9.171875 C 41.441406 9.214844 41.726562 9.476562 41.808594 9.824219 Z M 41.808594 9.824219 "/>
<path style=" stroke:none;fill-rule:nonzero;fill:rgb(24.705882%,23.921569%,33.72549%);fill-opacity:1;" d="M 45.414062 11.804688 C 45.402344 11.695312 45.441406 11.585938 45.519531 11.507812 L 47.28125 9.722656 C 47.644531 9.359375 48.222656 9.328125 48.617188 9.652344 C 49.015625 9.980469 49.105469 10.554688 48.828125 10.988281 L 47.574219 12.945312 C 47.464844 13.117188 47.238281 13.164062 47.070312 13.054688 L 45.578125 12.074219 C 45.488281 12.015625 45.425781 11.914062 45.414062 11.804688 Z M 45.414062 11.804688 "/>
<path style=" stroke:none;fill-rule:nonzero;fill:rgb(80%,80%,80%);fill-opacity:1;" d="M 51.542969 15.777344 L 51.480469 16.742188 L 45.160156 16.609375 L 45.347656 15.777344 Z M 51.542969 15.777344 "/>
<path style=" stroke:none;fill-rule:nonzero;fill:rgb(80%,80%,80%);fill-opacity:1;" d="M 51.453125 17.164062 L 51.390625 18.132812 L 44.851562 17.996094 L 45.039062 17.164062 Z M 51.453125 17.164062 "/>
<path style=" stroke:none;fill-rule:nonzero;fill:rgb(11.372549%,38.431373%,9.411765%);fill-opacity:1;" d="M 49.023438 1.996094 C 47.628906 1.996094 46.488281 3.117188 46.445312 4.523438 L 45.960938 4.523438 C 45.871094 4.523438 45.796875 4.597656 45.796875 4.6875 L 45.796875 5.339844 C 45.796875 5.429688 45.871094 5.503906 45.960938 5.503906 L 51.445312 5.503906 C 51.53125 5.503906 51.605469 5.429688 51.605469 5.339844 L 51.605469 4.605469 C 51.605469 3.164062 50.449219 1.996094 49.023438 1.996094 Z M 49.023438 1.996094 "/>
<path style=" stroke:none;fill-rule:nonzero;fill:rgb(90.196078%,90.196078%,90.196078%);fill-opacity:1;" d="M 8.71875 27.972656 C 7.679688 28.339844 6.527344 28.132812 5.675781 27.429688 C 4.613281 26.523438 4.277344 25.035156 4.003906 23.65625 L 3.203125 19.578125 L 4.882812 20.75 C 6.09375 21.589844 7.332031 22.460938 8.171875 23.679688 C 9.007812 24.902344 9.375 26.566406 8.703125 27.890625 "/>
<path style=" stroke:none;fill-rule:nonzero;fill:rgb(94.901961%,94.901961%,94.901961%);fill-opacity:1;" d="M 8.574219 32.910156 C 8.746094 31.65625 8.921875 30.386719 8.800781 29.117188 C 8.695312 27.992188 8.355469 26.890625 7.664062 25.988281 C 7.296875 25.511719 6.847656 25.101562 6.34375 24.777344 C 6.210938 24.695312 6.089844 24.90625 6.21875 24.992188 C 7.097656 25.550781 7.773438 26.375 8.15625 27.351562 C 8.578125 28.433594 8.644531 29.617188 8.574219 30.765625 C 8.527344 31.464844 8.433594 32.15625 8.339844 32.84375 C 8.328125 32.910156 8.363281 32.976562 8.425781 32.996094 C 8.492188 33.011719 8.558594 32.976562 8.574219 32.910156 Z M 8.574219 32.910156 "/>
<path style=" stroke:none;fill-rule:nonzero;fill:rgb(90.196078%,90.196078%,90.196078%);fill-opacity:1;" d="M 6.933594 30.691406 C 6.488281 31.375 5.722656 31.773438 4.914062 31.746094 C 3.890625 31.695312 3.039062 30.972656 2.269531 30.289062 L 0 28.261719 L 1.503906 28.1875 C 2.582031 28.136719 3.691406 28.089844 4.722656 28.425781 C 5.75 28.761719 6.699219 29.574219 6.886719 30.648438 "/>
<path style=" stroke:none;fill-rule:nonzero;fill:rgb(94.901961%,94.901961%,94.901961%);fill-opacity:1;" d="M 9.054688 33.632812 C 8.238281 32.164062 7.285156 30.535156 5.585938 30.011719 C 5.113281 29.867188 4.617188 29.816406 4.125 29.859375 C 3.972656 29.875 4.011719 30.117188 4.164062 30.101562 C 4.988281 30.03125 5.8125 30.253906 6.496094 30.726562 C 7.152344 31.175781 7.664062 31.804688 8.09375 32.472656 C 8.359375 32.878906 8.597656 33.304688 8.835938 33.730469 C 8.910156 33.867188 9.132812 33.769531 9.054688 33.632812 Z M 9.054688 33.632812 "/>
<path style=" stroke:none;fill-rule:nonzero;fill:rgb(80%,80%,80%);fill-opacity:1;" d="M 59.894531 33.960938 L 2.476562 33.960938 C 2.429688 33.960938 2.394531 33.921875 2.394531 33.878906 C 2.394531 33.832031 2.429688 33.796875 2.476562 33.796875 L 59.894531 33.796875 C 59.941406 33.796875 59.976562 33.832031 59.976562 33.878906 C 59.976562 33.921875 59.941406 33.960938 59.894531 33.960938 Z M 59.894531 33.960938 "/>
</g>
</svg>
