<?xml version="1.0" encoding="UTF-8"?>
<svg xmlns="http://www.w3.org/2000/svg" xmlns:xlink="http://www.w3.org/1999/xlink" width="60pt" height="36pt" viewBox="0 0 60 36" version="1.1">
<g id="surface1">
<path style=" stroke:none;fill-rule:nonzero;fill:rgb(90.196078%,90.196078%,90.196078%);fill-opacity:1;" d="M 15.859375 19.527344 L 15.796875 19.515625 C 17.570312 11.550781 25.375 6.554688 33.226562 8.355469 C 38.695312 9.609375 42.972656 13.933594 44.222656 19.476562 L 44.160156 19.488281 C 42.648438 12.757812 36.828125 8.058594 30.011719 8.058594 C 23.285156 8.058594 17.332031 12.882812 15.859375 19.527344 Z M 15.859375 19.527344 "/>
<path style=" stroke:none;fill-rule:nonzero;fill:rgb(24.705882%,23.921569%,33.72549%);fill-opacity:1;" d="M 60 34.589844 L 0 34.589844 L 0 0 L 60 0 Z M 0.109375 34.480469 L 59.890625 34.480469 L 59.890625 0.113281 L 0.109375 0.113281 Z M 0.109375 34.480469 "/>
<path style=" stroke:none;fill-rule:nonzero;fill:rgb(11.372549%,38.431373%,9.411765%);fill-opacity:1;" d="M 4.609375 3.550781 C 4.609375 3.828125 4.386719 4.054688 4.109375 4.054688 C 3.835938 4.054688 3.609375 3.828125 3.609375 3.550781 C 3.609375 3.269531 3.835938 3.042969 4.109375 3.042969 C 4.386719 3.042969 4.609375 3.269531 4.609375 3.550781 Z M 4.609375 3.550781 "/>
<path style=" stroke:none;fill-rule:nonzero;fill:rgb(94.901961%,94.901961%,94.901961%);fill-opacity:1;" d="M 6.109375 3.550781 C 6.109375 3.828125 5.886719 4.054688 5.609375 4.054688 C 5.335938 4.054688 5.109375 3.828125 5.109375 3.550781 C 5.109375 3.269531 5.335938 3.042969 5.609375 3.042969 C 5.886719 3.042969 6.109375 3.269531 6.109375 3.550781 Z M 6.109375 3.550781 "/>
<path style=" stroke:none;fill-rule:nonzero;fill:rgb(94.901961%,94.901961%,94.901961%);fill-opacity:1;" d="M 7.609375 3.550781 C 7.609375 3.828125 7.386719 4.054688 7.109375 4.054688 C 6.835938 4.054688 6.609375 3.828125 6.609375 3.550781 C 6.609375 3.269531 6.835938 3.042969 7.109375 3.042969 C 7.386719 3.042969 7.609375 3.269531 7.609375 3.550781 Z M 7.609375 3.550781 "/>
<path style=" stroke:none;fill-rule:nonzero;fill:rgb(90.196078%,90.196078%,90.196078%);fill-opacity:1;" d="M 57.609375 28.855469 L 57.609375 32.621094 L 53.660156 32.621094 C 54.089844 30.664062 55.65625 29.171875 57.609375 28.855469 Z M 57.609375 28.855469 "/>
<path style=" stroke:none;fill-rule:nonzero;fill:rgb(90.196078%,90.196078%,90.196078%);fill-opacity:1;" d="M 50.65625 10.316406 L 50.621094 10.273438 L 37.320312 21.457031 L 37.277344 21.492188 L 46.492188 32.761719 L 46.636719 32.761719 L 37.4375 21.507812 L 50.605469 10.429688 L 57.609375 18.996094 L 57.609375 18.820312 Z M 50.65625 10.316406 "/>
<path style=" stroke:none;fill-rule:nonzero;fill:rgb(62.745098%,38.039216%,41.568627%);fill-opacity:1;" d="M 42.566406 12.554688 C 42.566406 14.472656 41.035156 16.027344 39.140625 16.027344 C 37.246094 16.027344 35.714844 14.472656 35.714844 12.554688 C 35.714844 10.632812 37.246094 9.078125 39.140625 9.078125 C 41.035156 9.078125 42.566406 10.632812 42.566406 12.554688 Z M 42.566406 12.554688 "/>
<path style=" stroke:none;fill-rule:nonzero;fill:rgb(11.372549%,38.431373%,9.411765%);fill-opacity:1;" d="M 44.839844 19.886719 L 42.929688 25.492188 L 42.929688 25.496094 L 42.011719 28.199219 C 42.011719 28.199219 41.917969 32.496094 41.824219 32.496094 C 41.804688 32.496094 41.777344 32.558594 41.746094 32.65625 L 32.613281 32.65625 L 33.34375 24.757812 L 33.300781 24.390625 L 32.726562 19.671875 C 32.59375 18.570312 33.234375 17.523438 34.265625 17.152344 L 35.226562 16.8125 C 36.480469 16.363281 37.832031 16.257812 39.140625 16.507812 C 40.304688 16.730469 41.402344 17.226562 42.34375 17.953125 Z M 44.839844 19.886719 "/>
<path style=" stroke:none;fill-rule:nonzero;fill:rgb(18.431373%,18.039216%,25.490196%);fill-opacity:1;" d="M 42.113281 9.753906 C 42.113281 9.753906 41.023438 7.363281 38.9375 7.914062 C 36.851562 8.464844 35.675781 9.292969 35.582031 10.121094 C 35.492188 10.949219 35.628906 12.191406 35.628906 12.191406 C 35.628906 12.191406 35.855469 10.488281 37.308594 10.855469 C 38.757812 11.222656 41.023438 10.949219 41.023438 10.949219 L 41.386719 14.257812 C 41.386719 14.257812 41.796875 13.660156 42.25 14.027344 C 42.703125 14.398438 43.5625 10.488281 42.113281 9.753906 Z M 42.113281 9.753906 "/>
<path style=" stroke:none;fill-rule:nonzero;fill:rgb(11.372549%,38.431373%,9.411765%);fill-opacity:1;" d="M 46.628906 28.578125 C 46.628906 28.578125 46.628906 30.761719 45.835938 32.65625 L 43.117188 32.65625 L 43.140625 32.59375 L 43.894531 29.25 L 43.613281 28.101562 L 42.929688 25.496094 L 42.929688 25.492188 C 42.574219 24.136719 42.597656 22.710938 42.992188 21.363281 L 43.023438 21.257812 C 43.261719 20.445312 44 19.886719 44.839844 19.886719 C 44.839844 19.886719 46.0625 20.9375 45.96875 22.941406 Z M 46.628906 28.578125 "/>
<path style=" stroke:none;fill-rule:nonzero;fill:rgb(80%,80%,80%);fill-opacity:1;" d="M 54.464844 6.875 C 53.441406 6.875 52.613281 6.035156 52.613281 4.996094 C 52.613281 3.957031 53.441406 3.113281 54.464844 3.113281 C 55.488281 3.113281 56.320312 3.957031 56.320312 4.996094 C 56.320312 6.035156 55.488281 6.875 54.464844 6.875 Z M 54.464844 3.203125 C 53.488281 3.203125 52.699219 4.003906 52.699219 4.996094 C 52.699219 5.984375 53.488281 6.789062 54.464844 6.789062 C 55.441406 6.789062 56.234375 5.984375 56.234375 4.996094 C 56.234375 4.003906 55.441406 3.203125 54.464844 3.203125 Z M 54.464844 3.203125 "/>
<path style=" stroke:none;fill-rule:nonzero;fill:rgb(80%,80%,80%);fill-opacity:1;" d="M 57.609375 32.761719 L 2.390625 32.761719 L 2.390625 1.832031 L 57.609375 1.832031 Z M 2.492188 32.660156 L 57.507812 32.660156 L 57.507812 1.933594 L 2.492188 1.933594 Z M 2.492188 32.660156 "/>
<path style=" stroke:none;fill-rule:nonzero;fill:rgb(24.705882%,23.921569%,33.72549%);fill-opacity:1;" d="M 55.246094 4.28125 L 55.207031 4.238281 L 54.453125 5.003906 L 53.699219 4.238281 L 53.660156 4.28125 L 54.414062 5.042969 L 53.761719 5.707031 L 53.800781 5.746094 L 54.453125 5.085938 L 55.105469 5.746094 L 55.148438 5.707031 L 54.492188 5.042969 Z M 55.246094 4.28125 "/>
<path style=" stroke:none;fill-rule:nonzero;fill:rgb(24.705882%,23.921569%,33.72549%);fill-opacity:1;" d="M 23.101562 19.574219 L 4.273438 19.574219 C 3.910156 19.574219 3.613281 19.875 3.609375 20.246094 L 3.609375 27.613281 C 3.613281 27.988281 3.910156 28.289062 4.273438 28.289062 L 23.101562 28.289062 C 23.46875 28.289062 23.765625 27.988281 23.765625 27.617188 L 23.765625 20.246094 C 23.765625 19.875 23.46875 19.574219 23.101562 19.574219 Z M 23.6875 27.613281 C 23.6875 27.941406 23.425781 28.207031 23.101562 28.210938 L 4.273438 28.210938 C 3.953125 28.207031 3.691406 27.941406 3.6875 27.613281 L 3.6875 20.246094 C 3.691406 19.917969 3.953125 19.652344 4.273438 19.652344 L 23.101562 19.652344 C 23.425781 19.652344 23.6875 19.917969 23.6875 20.246094 Z M 23.6875 27.613281 "/>
<path style=" stroke:none;fill-rule:nonzero;fill:rgb(11.372549%,38.431373%,9.411765%);fill-opacity:1;" d="M 22 21.714844 L 12.136719 21.714844 C 11.851562 21.714844 11.617188 21.90625 11.605469 22.148438 C 11.605469 22.152344 11.605469 22.160156 11.605469 22.164062 C 11.605469 22.414062 11.84375 22.617188 12.136719 22.617188 L 22 22.617188 C 22.292969 22.617188 22.535156 22.414062 22.535156 22.164062 C 22.535156 21.917969 22.296875 21.714844 22 21.714844 Z M 22 21.714844 "/>
<path style=" stroke:none;fill-rule:nonzero;fill:rgb(11.372549%,38.431373%,9.411765%);fill-opacity:1;" d="M 22 23.519531 L 12.136719 23.519531 C 11.851562 23.519531 11.617188 23.710938 11.605469 23.949219 C 11.605469 23.957031 11.605469 23.960938 11.605469 23.96875 C 11.605469 24.21875 11.84375 24.417969 12.136719 24.417969 L 22 24.417969 C 22.292969 24.417969 22.535156 24.21875 22.535156 23.96875 C 22.535156 23.71875 22.292969 23.519531 22 23.519531 Z M 22 23.519531 "/>
<path style=" stroke:none;fill-rule:nonzero;fill:rgb(11.372549%,38.431373%,9.411765%);fill-opacity:1;" d="M 22 25.320312 L 12.136719 25.320312 C 11.851562 25.320312 11.617188 25.511719 11.605469 25.753906 C 11.605469 25.761719 11.605469 25.765625 11.605469 25.773438 C 11.605469 26.019531 11.84375 26.222656 12.136719 26.222656 L 22 26.222656 C 22.292969 26.222656 22.535156 26.019531 22.535156 25.773438 C 22.535156 25.523438 22.296875 25.320312 22 25.320312 Z M 22 25.320312 "/>
<path style=" stroke:none;fill-rule:nonzero;fill:rgb(24.705882%,23.921569%,33.72549%);fill-opacity:1;" d="M 7.5 26.335938 C 6.199219 26.335938 5.144531 25.265625 5.144531 23.949219 C 5.144531 22.632812 6.199219 21.5625 7.5 21.5625 C 8.800781 21.5625 9.851562 22.632812 9.851562 23.949219 C 9.851562 25.265625 8.800781 26.335938 7.5 26.335938 Z M 7.5 21.644531 C 6.246094 21.644531 5.226562 22.675781 5.226562 23.949219 C 5.226562 25.222656 6.246094 26.253906 7.5 26.253906 C 8.753906 26.253906 9.769531 25.222656 9.769531 23.949219 C 9.769531 22.675781 8.753906 21.644531 7.5 21.644531 Z M 7.5 21.644531 "/>
<path style=" stroke:none;fill-rule:nonzero;fill:rgb(100%,39.607843%,51.764706%);fill-opacity:1;" d="M 16.445312 31.71875 L 14.445312 31.71875 L 14.445312 29.691406 L 16.445312 29.691406 Z M 14.554688 31.605469 L 16.332031 31.605469 L 16.332031 29.804688 L 14.554688 29.804688 Z M 14.554688 31.605469 "/>
<path style=" stroke:none;fill-rule:nonzero;fill:rgb(24.705882%,23.921569%,33.72549%);fill-opacity:1;" d="M 12.066406 31.070312 L 11.351562 30.40625 L 11.425781 30.324219 L 12.046875 30.898438 L 13.453125 28.757812 L 13.546875 28.820312 Z M 12.066406 31.070312 "/>
<path style=" stroke:none;fill-rule:nonzero;fill:rgb(89.803922%,89.803922%,89.803922%);fill-opacity:1;" d="M 12.777344 30.195312 L 12.777344 31.605469 L 11 31.605469 L 11 29.804688 L 12.390625 29.804688 L 12.390625 29.691406 L 10.890625 29.691406 L 10.890625 31.71875 L 12.890625 31.71875 L 12.890625 30.195312 Z M 12.777344 30.195312 "/>
<path style=" stroke:none;fill-rule:nonzero;fill:rgb(11.372549%,38.431373%,9.411765%);fill-opacity:1;" d="M 7.945312 24.703125 C 7.945312 25.433594 7.359375 26.027344 6.640625 26.027344 C 5.917969 26.027344 5.332031 25.433594 5.332031 24.703125 C 5.332031 23.972656 5.917969 23.378906 6.640625 23.378906 C 7.359375 23.378906 7.945312 23.972656 7.945312 24.703125 Z M 7.945312 24.703125 "/>
<path style=" stroke:none;fill-rule:nonzero;fill:rgb(62.745098%,38.039216%,41.568627%);fill-opacity:1;" d="M 23.714844 34.878906 C 23.734375 34.566406 23.882812 34.277344 24.128906 34.089844 C 24.375 33.902344 24.691406 33.835938 24.992188 33.90625 L 26.960938 30.734375 L 27.753906 32.507812 L 25.761719 35.25 C 25.609375 35.761719 25.097656 36.078125 24.578125 35.984375 C 24.054688 35.890625 23.6875 35.414062 23.714844 34.878906 Z M 23.714844 34.878906 "/>
<path style=" stroke:none;fill-rule:nonzero;fill:rgb(11.372549%,38.431373%,9.411765%);fill-opacity:1;" d="M 34.011719 17.515625 L 33.902344 17.53125 C 32.679688 17.753906 31.644531 18.597656 31.214844 19.78125 C 31.203125 19.816406 31.191406 19.851562 31.179688 19.886719 L 30.425781 23.324219 L 25.242188 33.355469 L 26.84375 34.3125 C 26.84375 34.3125 31.273438 29.058594 31.835938 27.242188 L 34.113281 22.804688 C 34.226562 22.582031 34.28125 22.335938 34.273438 22.085938 L 34.101562 17.589844 C 34.101562 17.566406 34.089844 17.542969 34.074219 17.53125 C 34.054688 17.515625 34.03125 17.507812 34.011719 17.515625 Z M 34.011719 17.515625 "/>
</g>
</svg>
