<?xml version="1.0" encoding="UTF-8"?>
<svg xmlns="http://www.w3.org/2000/svg" xmlns:xlink="http://www.w3.org/1999/xlink" width="64pt" height="35pt" viewBox="0 0 64 35" version="1.1">
<defs>
<filter id="alpha" filterUnits="objectBoundingBox" x="0%" y="0%" width="100%" height="100%">
  <feColorMatrix type="matrix" in="SourceGraphic" values="0 0 0 0 1 0 0 0 0 1 0 0 0 0 1 0 0 0 1 0"/>
</filter>
<mask id="mask0">
  <g filter="url(#alpha)">
<rect x="0" y="0" width="64" height="35" style="fill:rgb(0%,0%,0%);fill-opacity:0.101961;stroke:none;"/>
  </g>
</mask>
<clipPath id="clip1">
  <rect width="64" height="35"/>
</clipPath>
<g id="surface6" clip-path="url(#clip1)">
<path style=" stroke:none;fill-rule:nonzero;fill:rgb(11.372549%,38.431373%,9.411765%);fill-opacity:1;" d="M 63.320312 32.5 C 63.074219 33.113281 62.765625 33.703125 62.410156 34.261719 C 62.238281 34.527344 62.054688 34.78125 61.855469 35.023438 C 61.851562 35.023438 61.851562 35.027344 61.847656 35.03125 L 0 35.03125 L 0.0078125 35.023438 C 0.0625 34.980469 0.390625 34.714844 0.898438 34.261719 C 1.261719 33.933594 1.722656 33.511719 2.234375 33.003906 C 6.4375 28.855469 14.503906 19.046875 7.785156 10.058594 C 1.535156 1.703125 8.265625 0.1875 12.703125 0.0117188 C 14.40625 -0.0546875 16.109375 0.222656 17.703125 0.832031 C 19.753906 1.613281 23.5 2.8125 28.382812 3.359375 C 28.542969 3.378906 28.703125 3.394531 28.867188 3.414062 C 31.453125 3.675781 34.054688 3.722656 36.644531 3.554688 C 36.722656 3.550781 36.800781 3.542969 36.875 3.539062 C 39.441406 3.359375 41.984375 2.964844 44.484375 2.359375 C 44.648438 2.316406 44.808594 2.28125 44.964844 2.242188 C 53.292969 0.3125 60.96875 6.898438 59.050781 14.339844 C 58.339844 17.09375 58.519531 20.027344 60.886719 22.402344 C 64.761719 26.277344 64.292969 30.09375 63.320312 32.5 Z M 63.320312 32.5 "/>
</g>
<mask id="mask1">
  <g filter="url(#alpha)">
<rect x="0" y="0" width="64" height="35" style="fill:rgb(0%,0%,0%);fill-opacity:0.4;stroke:none;"/>
  </g>
</mask>
<clipPath id="clip2">
  <rect width="64" height="35"/>
</clipPath>
<g id="surface9" clip-path="url(#clip2)">
<path style=" stroke:none;fill-rule:nonzero;fill:rgb(0%,0%,0%);fill-opacity:1;" d="M 0.898438 34.261719 L 62.410156 34.261719 C 62.238281 34.527344 62.054688 34.78125 61.855469 35.023438 L 0.0078125 35.023438 C 0.0625 34.976562 0.390625 34.710938 0.898438 34.261719 Z M 0.898438 34.261719 "/>
</g>
<mask id="mask2">
  <g filter="url(#alpha)">
<rect x="0" y="0" width="64" height="35" style="fill:rgb(0%,0%,0%);fill-opacity:0.101961;stroke:none;"/>
  </g>
</mask>
<clipPath id="clip3">
  <rect width="64" height="35"/>
</clipPath>
<g id="surface12" clip-path="url(#clip3)">
<path style=" stroke:none;fill-rule:nonzero;fill:rgb(0%,0%,0%);fill-opacity:1;" d="M 40.683594 16.757812 L 40.683594 16.921875 L 35.097656 18 C 33.472656 18.3125 31.828125 18.625 30.179688 18.507812 C 28.988281 18.417969 27.871094 18.0625 26.726562 17.753906 C 26.078125 17.578125 25.390625 17.507812 25.167969 16.777344 C 24.867188 15.773438 25.359375 14.285156 25.476562 13.269531 C 25.585938 12.269531 27.300781 8.621094 27.101562 7.632812 L 37.34375 8.078125 C 37.410156 8.625 40.117188 11.363281 39.949219 11.886719 C 39.59375 12.988281 38.726562 14.105469 39.171875 15.175781 C 39.453125 15.855469 40.175781 16.21875 40.683594 16.757812 Z M 40.683594 16.757812 "/>
</g>
<mask id="mask3">
  <g filter="url(#alpha)">
<rect x="0" y="0" width="64" height="35" style="fill:rgb(0%,0%,0%);fill-opacity:0.101961;stroke:none;"/>
  </g>
</mask>
<clipPath id="clip4">
  <rect width="64" height="35"/>
</clipPath>
<g id="surface15" clip-path="url(#clip4)">
<path style=" stroke:none;fill-rule:nonzero;fill:rgb(0%,0%,0%);fill-opacity:1;" d="M 30.21875 13.996094 C 30.28125 14.34375 30.3125 14.722656 30.136719 15.023438 C 29.902344 15.429688 29.390625 15.558594 28.933594 15.648438 L 27.347656 15.964844 C 27.238281 15.988281 27.125 16.011719 27.042969 16.085938 C 26.949219 16.171875 26.917969 16.308594 26.902344 16.433594 C 26.839844 17.011719 27.042969 17.578125 27.226562 18.128906 C 27.601562 19.238281 27.917969 20.375 28.390625 21.445312 C 28.863281 22.519531 29.515625 23.542969 30.441406 24.257812 C 31.371094 24.976562 32.597656 25.355469 33.734375 25.078125 C 34.722656 24.832031 35.535156 24.132812 36.234375 23.390625 C 36.8125 22.777344 37.351562 22.105469 37.628906 21.308594 C 37.824219 20.761719 37.886719 20.179688 37.945312 19.601562 C 38.039062 18.71875 38.132812 17.832031 38.230469 16.949219 C 38.273438 16.53125 38.300781 16.066406 38.03125 15.746094 C 37.914062 15.605469 37.753906 15.511719 37.589844 15.425781 C 36.980469 15.101562 36.339844 14.832031 35.773438 14.441406 C 35.207031 14.050781 34.707031 13.515625 34.535156 12.847656 C 34.429688 12.445312 34.449219 12.007812 34.273438 11.636719 C 34.078125 11.21875 33.660156 10.933594 33.214844 10.808594 C 32.769531 10.683594 32.300781 10.703125 31.84375 10.753906 C 31.382812 10.804688 29.617188 10.9375 29.425781 11.457031 C 29.324219 11.734375 29.746094 12.335938 29.847656 12.609375 C 30.011719 13.058594 30.136719 13.523438 30.21875 13.996094 Z M 30.21875 13.996094 "/>
</g>
<mask id="mask4">
  <g filter="url(#alpha)">
<rect x="0" y="0" width="64" height="35" style="fill:rgb(0%,0%,0%);fill-opacity:0.101961;stroke:none;"/>
  </g>
</mask>
<clipPath id="clip5">
  <rect width="64" height="35"/>
</clipPath>
<g id="surface18" clip-path="url(#clip5)">
<path style=" stroke:none;fill-rule:nonzero;fill:rgb(0%,0%,0%);fill-opacity:1;" d="M 33.667969 25.339844 C 34.296875 25.378906 34.90625 25.054688 35.339844 24.601562 C 35.769531 24.144531 36.054688 23.566406 36.296875 22.980469 C 36.644531 22.148438 36.917969 21.285156 37.121094 20.40625 C 37.285156 19.660156 37.40625 18.886719 37.289062 18.125 C 37.132812 17.082031 36.539062 16.128906 36.441406 15.074219 C 36.421875 14.890625 36.433594 14.675781 36.582031 14.5625 C 36.671875 14.496094 36.792969 14.484375 36.90625 14.480469 C 37.957031 14.417969 39.109375 14.429688 39.921875 15.097656 C 40.167969 15.300781 40.371094 15.554688 40.613281 15.761719 C 41.1875 16.265625 42.003906 16.519531 42.375 17.1875 C 42.503906 17.421875 42.566406 17.683594 42.65625 17.933594 C 42.867188 18.527344 43.234375 19.046875 43.601562 19.558594 C 43.246094 21.058594 42.839844 22.558594 42.484375 24.058594 C 42.277344 24.941406 42.066406 25.824219 41.742188 26.667969 C 41.527344 27.21875 41.257812 27.785156 41.324219 28.375 C 41.351562 28.609375 41.429688 28.832031 41.496094 29.054688 C 41.730469 29.84375 41.84375 30.664062 41.824219 31.484375 L 25.945312 31.523438 C 26.703125 30.429688 26.929688 29.089844 26.851562 27.757812 C 26.8125 27.117188 26.667969 26.476562 26.351562 25.925781 C 25.84375 25.058594 24.957031 24.496094 24.085938 24.011719 C 23.472656 23.679688 22.816406 25.5625 22.152344 25.347656 C 22.257812 24.589844 22.308594 21.660156 22.265625 20.898438 C 22.25 20.648438 22.226562 20.390625 22.304688 20.152344 C 22.355469 19.988281 22.453125 19.84375 22.519531 19.683594 C 22.777344 19.046875 22.53125 18.234375 22.953125 17.691406 C 23.242188 17.3125 23.753906 17.207031 24.171875 16.976562 C 24.597656 16.734375 24.925781 16.359375 25.300781 16.039062 C 26.027344 15.417969 26.921875 15.019531 27.867188 14.890625 C 28.144531 15.328125 28.3125 15.824219 28.359375 16.339844 C 28.386719 16.664062 28.367188 16.996094 28.410156 17.316406 C 28.472656 17.753906 28.652344 18.164062 28.832031 18.570312 C 29.578125 20.253906 30.324219 21.945312 31.265625 23.527344 C 31.53125 23.972656 31.824219 24.417969 32.207031 24.765625 C 32.59375 25.113281 33.152344 25.363281 33.667969 25.339844 Z M 33.667969 25.339844 "/>
</g>
<mask id="mask5">
  <g filter="url(#alpha)">
<rect x="0" y="0" width="64" height="35" style="fill:rgb(0%,0%,0%);fill-opacity:0.101961;stroke:none;"/>
  </g>
</mask>
<clipPath id="clip6">
  <rect width="64" height="35"/>
</clipPath>
<g id="surface21" clip-path="url(#clip6)">
<path style=" stroke:none;fill-rule:nonzero;fill:rgb(0%,0%,0%);fill-opacity:1;" d="M 27.089844 14.296875 C 27.09375 14.136719 27.09375 13.980469 27.089844 13.820312 C 27.074219 12.378906 27.054688 10.921875 26.730469 9.515625 C 26.65625 9.246094 26.601562 8.96875 26.558594 8.6875 C 26.546875 8.78125 26.542969 8.878906 26.542969 8.976562 C 26.550781 9.332031 26.648438 9.675781 26.730469 10.019531 C 27.054688 11.417969 27.074219 12.863281 27.089844 14.296875 Z M 27.089844 14.296875 "/>
<path style=" stroke:none;fill-rule:nonzero;fill:rgb(0%,0%,0%);fill-opacity:1;" d="M 38.726562 10.511719 C 38.800781 10.1875 38.824219 9.851562 38.800781 9.515625 C 38.789062 9.683594 38.765625 9.847656 38.726562 10.007812 C 38.585938 10.625 38.253906 11.175781 38.128906 11.792969 C 38.078125 12.0625 38.0625 12.339844 38.085938 12.617188 C 38.09375 12.507812 38.109375 12.402344 38.128906 12.292969 C 38.253906 11.679688 38.585938 11.125 38.726562 10.511719 Z M 38.726562 10.511719 "/>
<path style=" stroke:none;fill-rule:nonzero;fill:rgb(0%,0%,0%);fill-opacity:1;" d="M 36.863281 9.15625 C 36.890625 9.078125 36.902344 8.996094 36.90625 8.910156 C 36.90625 8.699219 36.808594 8.5 36.710938 8.308594 C 36.113281 7.152344 35.375 5.917969 34.132812 5.523438 C 33.792969 5.417969 33.417969 5.375 33.140625 5.148438 C 33 5.023438 32.910156 4.847656 32.898438 4.65625 C 32.296875 5.769531 31.257812 6.617188 30.136719 7.214844 C 29.691406 7.453125 29.207031 7.671875 28.90625 8.074219 C 28.617188 8.453125 28.535156 8.949219 28.585938 9.425781 C 28.613281 9.121094 28.722656 8.824219 28.90625 8.578125 C 29.207031 8.171875 29.691406 7.953125 30.136719 7.71875 C 31.257812 7.121094 32.296875 6.269531 32.898438 5.160156 C 32.910156 5.351562 33 5.527344 33.140625 5.652344 C 33.421875 5.875 33.792969 5.917969 34.132812 6.027344 C 35.371094 6.417969 36.113281 7.65625 36.710938 8.8125 C 36.769531 8.921875 36.820312 9.039062 36.863281 9.15625 Z M 36.863281 9.15625 "/>
<path style=" stroke:none;fill-rule:nonzero;fill:rgb(0%,0%,0%);fill-opacity:1;" d="M 37.191406 15.042969 C 36.65625 14.542969 36.359375 13.839844 36.136719 13.140625 C 36.003906 12.746094 35.914062 12.339844 35.871094 11.929688 C 35.816406 12.5 35.960938 13.085938 36.136719 13.640625 C 36.359375 14.339844 36.65625 15.046875 37.191406 15.546875 C 37.722656 16.046875 38.550781 16.296875 39.210938 15.972656 C 39.128906 15.835938 39.050781 15.699219 38.972656 15.5625 C 38.363281 15.734375 37.664062 15.488281 37.191406 15.042969 Z M 37.191406 15.042969 "/>
<path style=" stroke:none;fill-rule:nonzero;fill:rgb(0%,0%,0%);fill-opacity:1;" d="M 30.328125 14.960938 C 30.21875 15.820312 29.695312 16.863281 28.839844 17.203125 C 28.246094 17.4375 27.398438 17.167969 26.753906 17.019531 C 26.699219 17.175781 26.636719 17.328125 26.5625 17.476562 C 27.226562 17.609375 28.183594 17.964844 28.839844 17.707031 C 29.695312 17.363281 30.21875 16.324219 30.328125 15.460938 C 30.347656 15.246094 30.351562 15.027344 30.339844 14.8125 C 30.335938 14.859375 30.332031 14.910156 30.328125 14.960938 Z M 30.328125 14.960938 "/>
</g>
<mask id="mask6">
  <g filter="url(#alpha)">
<rect x="0" y="0" width="64" height="35" style="fill:rgb(0%,0%,0%);fill-opacity:0.0784314;stroke:none;"/>
  </g>
</mask>
<clipPath id="clip7">
  <rect width="64" height="35"/>
</clipPath>
<g id="surface24" clip-path="url(#clip7)">
<path style=" stroke:none;fill-rule:nonzero;fill:rgb(0%,0%,0%);fill-opacity:1;" d="M 42.875 19.382812 C 43.300781 19.441406 43.632812 19.785156 43.878906 20.140625 C 44.5625 21.128906 44.855469 22.328125 45.183594 23.484375 C 45.59375 24.921875 46.074219 26.339844 46.625 27.734375 C 46.742188 28.054688 46.886719 28.367188 47.054688 28.664062 C 47.195312 28.894531 47.359375 29.117188 47.421875 29.378906 C 47.566406 30.011719 47.046875 30.605469 46.503906 30.960938 C 46.214844 31.15625 45.898438 31.308594 45.566406 31.414062 C 45.242188 31.511719 44.90625 31.546875 44.570312 31.582031 L 41.480469 31.917969 C 40.058594 32.074219 38.625 32.230469 37.203125 32.078125 C 37.113281 31.765625 37.289062 31.546875 37.273438 31.21875 C 37.265625 30.988281 37.164062 30.769531 37.074219 30.554688 C 36.90625 30.175781 36.792969 29.769531 36.742188 29.355469 C 36.726562 29.203125 36.722656 29.046875 36.664062 28.90625 C 36.605469 28.761719 36.480469 28.636719 36.328125 28.625 C 37.164062 28.542969 37.796875 28.386719 38.632812 28.300781 C 38.941406 28.269531 39.265625 28.234375 39.527344 28.070312 C 39.855469 27.863281 40.039062 27.496094 40.1875 27.136719 C 40.546875 26.25 40.78125 25.269531 40.589844 24.332031 C 40.433594 23.558594 40 22.84375 40.003906 22.054688 C 40.003906 21.585938 40.160156 21.132812 40.347656 20.707031 C 40.546875 20.253906 40.808594 19.789062 41.246094 19.558594 C 41.683594 19.328125 42.382812 19.316406 42.875 19.382812 Z M 42.875 19.382812 "/>
</g>
<mask id="mask7">
  <g filter="url(#alpha)">
<rect x="0" y="0" width="64" height="35" style="fill:rgb(0%,0%,0%);fill-opacity:0.101961;stroke:none;"/>
  </g>
</mask>
<clipPath id="clip8">
  <rect width="64" height="35"/>
</clipPath>
<g id="surface27" clip-path="url(#clip8)">
<path style=" stroke:none;fill-rule:nonzero;fill:rgb(0%,0%,0%);fill-opacity:1;" d="M 14.289062 29.101562 L 14.964844 29.101562 C 15.734375 29.101562 16.355469 29.726562 16.355469 30.496094 L 16.355469 32.566406 L 12.898438 32.566406 L 12.898438 30.496094 C 12.898438 29.726562 13.523438 29.101562 14.289062 29.101562 Z M 14.289062 29.101562 "/>
</g>
<mask id="mask8">
  <g filter="url(#alpha)">
<rect x="0" y="0" width="64" height="35" style="fill:rgb(0%,0%,0%);fill-opacity:0.101961;stroke:none;"/>
  </g>
</mask>
<clipPath id="clip9">
  <rect width="64" height="35"/>
</clipPath>
<g id="surface30" clip-path="url(#clip9)">
<path style=" stroke:none;fill-rule:nonzero;fill:rgb(0%,0%,0%);fill-opacity:1;" d="M 15.65625 25.300781 C 15.628906 25.328125 15.597656 25.359375 15.566406 25.386719 C 15.601562 25.386719 15.632812 25.378906 15.664062 25.375 C 15.660156 25.351562 15.660156 25.324219 15.65625 25.300781 Z M 15.65625 25.300781 "/>
<path style=" stroke:none;fill-rule:nonzero;fill:rgb(0%,0%,0%);fill-opacity:1;" d="M 15.152344 24.96875 C 15.222656 24.964844 15.289062 24.957031 15.359375 24.945312 C 15.421875 24.9375 15.480469 24.921875 15.539062 24.898438 C 15.511719 24.839844 15.480469 24.789062 15.441406 24.738281 C 15.410156 24.757812 15.371094 24.773438 15.332031 24.785156 C 15.277344 24.851562 15.21875 24.910156 15.152344 24.96875 Z M 15.152344 24.96875 "/>
<path style=" stroke:none;fill-rule:nonzero;fill:rgb(0%,0%,0%);fill-opacity:1;" d="M 13.453125 25.5625 C 13.453125 25.132812 13.6875 24.734375 14.0625 24.527344 C 14.441406 24.324219 14.898438 24.339844 15.261719 24.574219 L 15.28125 24.554688 C 14.964844 24.273438 14.523438 24.183594 14.125 24.316406 C 13.722656 24.453125 13.425781 24.792969 13.347656 25.207031 C 13.265625 25.621094 13.410156 26.046875 13.730469 26.324219 C 13.550781 26.113281 13.453125 25.84375 13.453125 25.5625 Z M 13.453125 25.5625 "/>
</g>
<mask id="mask9">
  <g filter="url(#alpha)">
<rect x="0" y="0" width="64" height="35" style="fill:rgb(0%,0%,0%);fill-opacity:0.101961;stroke:none;"/>
  </g>
</mask>
<clipPath id="clip10">
  <rect width="64" height="35"/>
</clipPath>
<g id="surface33" clip-path="url(#clip10)">
<path style=" stroke:none;fill-rule:nonzero;fill:rgb(0%,0%,0%);fill-opacity:1;" d="M 16.121094 26.839844 C 16.191406 26.835938 16.257812 26.828125 16.328125 26.820312 C 16.410156 26.8125 16.488281 26.785156 16.558594 26.742188 C 16.71875 26.855469 16.820312 27.035156 16.839844 27.230469 C 16.839844 27.207031 16.84375 27.183594 16.84375 27.160156 C 16.84375 26.9375 16.742188 26.730469 16.5625 26.601562 C 16.492188 26.644531 16.414062 26.671875 16.332031 26.679688 L 16.277344 26.683594 C 16.230469 26.742188 16.175781 26.792969 16.121094 26.839844 Z M 16.121094 26.839844 "/>
<path style=" stroke:none;fill-rule:nonzero;fill:rgb(0%,0%,0%);fill-opacity:1;" d="M 16.148438 26.605469 C 16.171875 26.605469 16.195312 26.605469 16.21875 26.609375 C 16.253906 26.570312 16.289062 26.527344 16.324219 26.488281 C 16.117188 26.433594 15.898438 26.476562 15.726562 26.609375 C 15.558594 26.742188 15.457031 26.945312 15.457031 27.160156 C 15.457031 27.183594 15.457031 27.207031 15.460938 27.226562 C 15.496094 26.875 15.792969 26.605469 16.148438 26.605469 Z M 16.148438 26.605469 "/>
</g>
<mask id="mask10">
  <g filter="url(#alpha)">
<rect x="0" y="0" width="64" height="35" style="fill:rgb(0%,0%,0%);fill-opacity:0.101961;stroke:none;"/>
  </g>
</mask>
<clipPath id="clip11">
  <rect width="64" height="35"/>
</clipPath>
<g id="surface36" clip-path="url(#clip11)">
<path style=" stroke:none;fill-rule:nonzero;fill:rgb(0%,0%,0%);fill-opacity:1;" d="M 12.859375 26.839844 C 12.789062 26.835938 12.71875 26.828125 12.652344 26.820312 C 12.570312 26.8125 12.488281 26.785156 12.417969 26.742188 C 12.261719 26.855469 12.160156 27.035156 12.140625 27.230469 C 12.136719 27.207031 12.136719 27.183594 12.136719 27.160156 C 12.136719 26.9375 12.238281 26.730469 12.414062 26.601562 C 12.484375 26.644531 12.566406 26.671875 12.648438 26.679688 L 12.703125 26.683594 C 12.75 26.742188 12.800781 26.792969 12.859375 26.839844 Z M 12.859375 26.839844 "/>
<path style=" stroke:none;fill-rule:nonzero;fill:rgb(0%,0%,0%);fill-opacity:1;" d="M 12.832031 26.605469 C 12.808594 26.605469 12.785156 26.605469 12.761719 26.609375 C 12.726562 26.570312 12.691406 26.527344 12.652344 26.488281 C 12.859375 26.433594 13.082031 26.476562 13.253906 26.609375 C 13.421875 26.742188 13.523438 26.945312 13.523438 27.160156 C 13.523438 27.183594 13.523438 27.207031 13.519531 27.226562 C 13.484375 26.875 13.1875 26.605469 12.832031 26.605469 Z M 12.832031 26.605469 "/>
</g>
<mask id="mask11">
  <g filter="url(#alpha)">
<rect x="0" y="0" width="64" height="35" style="fill:rgb(0%,0%,0%);fill-opacity:0.101961;stroke:none;"/>
  </g>
</mask>
<clipPath id="clip12">
  <rect width="64" height="35"/>
</clipPath>
<g id="surface39" clip-path="url(#clip12)">
<path style=" stroke:none;fill-rule:nonzero;fill:rgb(0%,0%,0%);fill-opacity:1;" d="M 10.957031 33.445312 L 5.519531 33.445312 C 5.390625 33.445312 5.285156 33.339844 5.285156 33.210938 L 5.285156 30.632812 C 5.285156 30.550781 5.328125 30.476562 5.394531 30.4375 C 5.460938 30.394531 5.546875 30.386719 5.617188 30.421875 C 7.179688 31.164062 8.863281 31.421875 10.847656 30.433594 C 10.917969 30.398438 11.003906 30.402344 11.074219 30.445312 C 11.140625 30.488281 11.183594 30.5625 11.183594 30.640625 L 11.183594 33.207031 C 11.183594 33.335938 11.082031 33.441406 10.957031 33.445312 Z M 10.957031 33.445312 "/>
</g>
<mask id="mask12">
  <g filter="url(#alpha)">
<rect x="0" y="0" width="64" height="35" style="fill:rgb(0%,0%,0%);fill-opacity:0.101961;stroke:none;"/>
  </g>
</mask>
<clipPath id="clip13">
  <rect width="64" height="35"/>
</clipPath>
<g id="surface42" clip-path="url(#clip13)">
<path style=" stroke:none;fill-rule:nonzero;fill:rgb(0%,0%,0%);fill-opacity:1;" d="M 6.648438 25.378906 C 6.648438 25.726562 6.765625 26.0625 6.980469 26.335938 C 6.484375 26.96875 6.554688 27.882812 7.144531 28.429688 C 7.738281 28.976562 8.648438 28.976562 9.238281 28.429688 C 9.828125 27.882812 9.902344 26.96875 9.402344 26.335938 C 9.609375 26.074219 6.648438 25.207031 6.648438 25.378906 Z M 6.648438 25.378906 "/>
</g>
<mask id="mask13">
  <g filter="url(#alpha)">
<rect x="0" y="0" width="64" height="35" style="fill:rgb(0%,0%,0%);fill-opacity:0.4;stroke:none;"/>
  </g>
</mask>
<clipPath id="clip14">
  <rect width="64" height="35"/>
</clipPath>
<g id="surface45" clip-path="url(#clip14)">
<path style=" stroke:none;fill-rule:nonzero;fill:rgb(0%,0%,0%);fill-opacity:1;" d="M 43.28125 33.347656 L 43.28125 33.875 L 42.878906 33.933594 L 38.957031 31.828125 L 38.957031 31.335938 L 42.699219 33.347656 C 42.699219 33.347656 43.191406 33.394531 43.28125 33.347656 Z M 43.28125 33.347656 "/>
</g>
</defs>
<g id="surface1">
<use xlink:href="#surface6" mask="url(#mask0)"/>
<path style=" stroke:none;fill-rule:nonzero;fill:rgb(27.058824%,29.411765%,41.176471%);fill-opacity:1;" d="M 63.320312 32.5 C 63.074219 33.113281 62.765625 33.703125 62.410156 34.261719 C 62.238281 34.527344 62.054688 34.78125 61.855469 35.023438 L 0.0078125 35.023438 C 0.0625 34.980469 0.390625 34.714844 0.898438 34.261719 C 1.261719 33.933594 1.722656 33.511719 2.234375 33.003906 L 8.753906 31.652344 C 8.835938 31.632812 8.921875 31.625 9.007812 31.625 L 15.957031 31.613281 L 15.964844 31.613281 L 19.40625 31.609375 L 19.414062 31.609375 L 22.320312 31.605469 L 26.167969 31.605469 L 34.152344 31.597656 L 37.585938 31.597656 L 38.957031 31.582031 L 39.410156 31.582031 L 43.394531 31.574219 L 45.28125 31.574219 L 49.886719 31.570312 L 51.257812 31.570312 L 55.621094 31.5625 L 59.300781 31.558594 C 59.40625 31.558594 59.507812 31.570312 59.605469 31.59375 Z M 63.320312 32.5 "/>
<use xlink:href="#surface9" mask="url(#mask1)"/>
<path style=" stroke:none;fill-rule:nonzero;fill:rgb(27.058824%,29.411765%,41.176471%);fill-opacity:1;" d="M 40.804688 16.898438 L 40.683594 16.921875 L 35.097656 18 C 33.472656 18.3125 31.828125 18.625 30.179688 18.507812 C 28.988281 18.417969 27.871094 18.0625 26.726562 17.753906 C 26.078125 17.578125 25.390625 17.507812 25.167969 16.777344 C 24.867188 15.773438 25.359375 14.285156 25.476562 13.269531 C 25.585938 12.269531 25.652344 11.242188 25.453125 10.257812 C 25.410156 10.035156 25.351562 9.816406 25.28125 9.601562 C 25.082031 9.011719 24.769531 8.394531 24.9375 7.796875 C 25.070312 7.320312 25.476562 6.980469 25.855469 6.664062 C 26.601562 6.050781 27.359375 5.363281 27.65625 4.441406 C 27.800781 3.996094 27.828125 3.515625 27.984375 3.070312 C 28.277344 2.226562 29.019531 1.597656 29.847656 1.265625 C 30.671875 0.929688 31.582031 0.859375 32.472656 0.859375 C 33.257812 0.859375 34.042969 0.910156 34.824219 1.015625 C 35.675781 1.128906 36.53125 1.3125 37.28125 1.734375 C 38.027344 2.15625 38.65625 2.851562 38.832031 3.695312 C 39.078125 4.890625 38.394531 6.164062 38.761719 7.324219 C 38.945312 7.910156 39.371094 8.386719 39.667969 8.921875 C 40.15625 9.832031 40.257812 10.898438 39.949219 11.882812 C 39.59375 12.984375 38.722656 14.101562 39.167969 15.171875 C 39.453125 15.851562 40.175781 16.214844 40.679688 16.753906 C 40.722656 16.800781 40.765625 16.851562 40.804688 16.898438 Z M 40.804688 16.898438 "/>
<use xlink:href="#surface12" mask="url(#mask2)"/>
<path style=" stroke:none;fill-rule:nonzero;fill:rgb(93.72549%,71.764706%,72.54902%);fill-opacity:1;" d="M 30.21875 13.996094 C 30.28125 14.34375 30.3125 14.722656 30.136719 15.023438 C 29.902344 15.429688 29.390625 15.558594 28.933594 15.648438 L 27.347656 15.964844 C 27.238281 15.988281 27.125 16.011719 27.042969 16.085938 C 26.949219 16.171875 26.917969 16.308594 26.902344 16.433594 C 26.839844 17.011719 27.042969 17.578125 27.226562 18.128906 C 27.601562 19.238281 27.917969 20.375 28.390625 21.445312 C 28.863281 22.519531 29.515625 23.542969 30.441406 24.257812 C 31.371094 24.976562 32.597656 25.355469 33.734375 25.078125 C 34.722656 24.832031 35.535156 24.132812 36.234375 23.390625 C 36.8125 22.777344 37.351562 22.105469 37.628906 21.308594 C 37.824219 20.761719 37.886719 20.179688 37.945312 19.601562 C 38.039062 18.71875 38.132812 17.832031 38.230469 16.949219 C 38.273438 16.53125 38.300781 16.066406 38.03125 15.746094 C 37.914062 15.605469 37.753906 15.511719 37.589844 15.425781 C 36.980469 15.101562 36.339844 14.832031 35.773438 14.441406 C 35.207031 14.050781 34.707031 13.515625 34.535156 12.847656 C 34.429688 12.445312 34.449219 12.007812 34.273438 11.636719 C 34.078125 11.21875 33.660156 10.933594 33.214844 10.808594 C 32.769531 10.683594 32.300781 10.703125 31.84375 10.753906 C 31.382812 10.804688 29.617188 10.9375 29.425781 11.457031 C 29.324219 11.734375 29.746094 12.335938 29.847656 12.609375 C 30.011719 13.058594 30.136719 13.523438 30.21875 13.996094 Z M 30.21875 13.996094 "/>
<use xlink:href="#surface15" mask="url(#mask3)"/>
<path style=" stroke:none;fill-rule:nonzero;fill:rgb(100%,100%,100%);fill-opacity:1;" d="M 34.035156 20.066406 L 34.964844 18.089844 C 35.402344 17.167969 35.847656 16.195312 35.800781 15.171875 C 35.792969 14.96875 35.789062 14.714844 35.96875 14.621094 C 36.046875 14.589844 36.128906 14.578125 36.210938 14.589844 C 37.191406 14.640625 38.15625 14.835938 39.078125 15.171875 C 39.257812 15.238281 39.441406 15.3125 39.566406 15.457031 C 39.691406 15.597656 39.742188 15.789062 39.785156 15.972656 C 39.929688 16.597656 40.035156 17.230469 40.101562 17.863281 C 40.269531 19.441406 40.1875 21.03125 40.101562 22.609375 L 39.855469 27.433594 C 39.859375 27.503906 39.84375 27.570312 39.816406 27.632812 C 39.753906 27.746094 39.617188 27.78125 39.492188 27.804688 C 39.015625 27.886719 38.527344 27.867188 38.042969 27.851562 C 34.636719 27.722656 31.210938 27.523438 27.828125 27.9375 C 27.84375 27.433594 27.835938 26.933594 27.804688 26.429688 C 27.671875 24.257812 27.109375 22.140625 26.558594 20.035156 C 26.238281 18.808594 25.925781 17.46875 26.441406 16.3125 C 26.519531 16.128906 26.628906 15.960938 26.765625 15.820312 C 26.984375 15.605469 27.285156 15.488281 27.582031 15.410156 C 28.09375 15.269531 28.625 15.207031 29.15625 15.230469 L 32.664062 22.890625 C 32.824219 23.242188 32.957031 23.613281 33.117188 23.957031 C 33.261719 23.359375 33.089844 22.660156 33.261719 22.011719 C 33.445312 21.339844 33.738281 20.695312 34.035156 20.066406 Z M 34.035156 20.066406 "/>
<path style=" stroke:none;fill-rule:nonzero;fill:rgb(11.372549%,38.431373%,9.411765%);fill-opacity:1;" d="M 33.667969 25.339844 C 34.296875 25.378906 34.90625 25.054688 35.339844 24.601562 C 35.769531 24.144531 36.054688 23.566406 36.296875 22.980469 C 36.644531 22.148438 36.917969 21.285156 37.121094 20.40625 C 37.285156 19.660156 37.40625 18.886719 37.289062 18.125 C 37.132812 17.082031 36.539062 16.128906 36.441406 15.074219 C 36.421875 14.890625 36.433594 14.675781 36.582031 14.5625 C 36.671875 14.496094 36.792969 14.484375 36.90625 14.480469 C 37.957031 14.417969 39.109375 14.429688 39.921875 15.097656 C 40.167969 15.300781 40.371094 15.554688 40.613281 15.761719 C 41.1875 16.265625 42.003906 16.519531 42.375 17.1875 C 42.503906 17.421875 42.566406 17.683594 42.65625 17.933594 C 42.867188 18.527344 43.234375 19.046875 43.601562 19.558594 C 43.246094 21.058594 42.839844 22.558594 42.484375 24.058594 C 42.277344 24.941406 42.066406 25.824219 41.742188 26.667969 C 41.527344 27.21875 41.257812 27.785156 41.324219 28.375 C 41.351562 28.609375 41.429688 28.832031 41.496094 29.054688 C 41.730469 29.84375 41.84375 30.664062 41.824219 31.484375 L 25.945312 31.523438 C 26.703125 30.429688 26.929688 29.089844 26.851562 27.757812 C 26.8125 27.117188 26.667969 26.476562 26.351562 25.925781 C 25.84375 25.058594 24.957031 24.496094 24.085938 24.011719 C 23.472656 23.679688 22.816406 25.5625 22.152344 25.347656 C 22.257812 24.589844 22.308594 21.660156 22.265625 20.898438 C 22.25 20.648438 22.226562 20.390625 22.304688 20.152344 C 22.355469 19.988281 22.453125 19.84375 22.519531 19.683594 C 22.777344 19.046875 22.53125 18.234375 22.953125 17.691406 C 23.242188 17.3125 23.753906 17.207031 24.171875 16.976562 C 24.597656 16.734375 24.925781 16.359375 25.300781 16.039062 C 26.027344 15.417969 26.921875 15.019531 27.867188 14.890625 C 28.144531 15.328125 28.3125 15.824219 28.359375 16.339844 C 28.386719 16.664062 28.367188 16.996094 28.410156 17.316406 C 28.472656 17.753906 28.652344 18.164062 28.832031 18.570312 C 29.578125 20.253906 30.324219 21.945312 31.265625 23.527344 C 31.53125 23.972656 31.824219 24.417969 32.207031 24.765625 C 32.59375 25.113281 33.152344 25.363281 33.667969 25.339844 Z M 33.667969 25.339844 "/>
<use xlink:href="#surface18" mask="url(#mask4)"/>
<path style=" stroke:none;fill-rule:nonzero;fill:rgb(93.72549%,71.764706%,72.54902%);fill-opacity:1;" d="M 37.601562 9.085938 C 37.601562 11.726562 35.464844 13.871094 32.828125 13.871094 C 30.195312 13.871094 28.058594 11.726562 28.058594 9.085938 C 28.058594 6.441406 30.195312 4.300781 32.828125 4.300781 C 35.464844 4.300781 37.601562 6.441406 37.601562 9.085938 Z M 37.601562 9.085938 "/>
<path style=" stroke:none;fill-rule:nonzero;fill:rgb(27.058824%,29.411765%,41.176471%);fill-opacity:1;" d="M 30.328125 15.460938 C 30.457031 14.222656 29.945312 13.011719 29.363281 11.910156 C 29.085938 11.386719 28.785156 10.863281 28.648438 10.285156 C 28.507812 9.707031 28.546875 9.050781 28.90625 8.578125 C 29.207031 8.171875 29.691406 7.953125 30.136719 7.71875 C 31.394531 7.046875 32.542969 6.0625 33.097656 4.746094 C 32.785156 4.917969 32.867188 5.425781 33.140625 5.652344 C 33.417969 5.875 33.792969 5.917969 34.132812 6.027344 C 35.371094 6.417969 36.113281 7.65625 36.710938 8.8125 C 36.808594 9 36.90625 9.199219 36.90625 9.414062 C 36.902344 9.625 36.808594 9.816406 36.707031 9.996094 C 36.410156 10.519531 36.050781 11.023438 35.917969 11.609375 C 35.765625 12.28125 35.925781 12.984375 36.136719 13.640625 C 36.359375 14.339844 36.65625 15.046875 37.191406 15.546875 C 37.722656 16.046875 38.550781 16.296875 39.210938 15.972656 C 38.554688 14.839844 37.875 13.578125 38.128906 12.292969 C 38.253906 11.679688 38.585938 11.121094 38.726562 10.511719 C 38.996094 9.347656 38.546875 8.148438 38.109375 7.035156 L 36.792969 3.71875 C 36.589844 3.210938 36.363281 2.667969 35.902344 2.382812 C 35.589844 2.1875 35.210938 2.136719 34.847656 2.101562 C 33.671875 1.996094 32.453125 2.03125 31.359375 2.46875 C 29.367188 3.269531 28.117188 5.238281 27.125 7.148438 C 26.828125 7.722656 26.535156 8.328125 26.546875 8.972656 C 26.554688 9.328125 26.652344 9.671875 26.734375 10.019531 C 27.058594 11.421875 27.078125 12.878906 27.09375 14.320312 C 27.105469 15.425781 27.046875 16.46875 26.566406 17.476562 C 27.226562 17.609375 28.1875 17.964844 28.839844 17.703125 C 29.695312 17.363281 30.21875 16.324219 30.328125 15.460938 Z M 30.328125 15.460938 "/>
<use xlink:href="#surface21" mask="url(#mask5)"/>
<path style=" stroke:none;fill-rule:nonzero;fill:rgb(100%,100%,100%);fill-opacity:1;" d="M 37.070312 28.800781 C 36.210938 28.664062 35.335938 28.398438 34.484375 28.574219 C 33.992188 28.679688 33.539062 28.925781 33.128906 29.222656 C 33.355469 29.40625 33.617188 29.566406 33.761719 29.820312 C 33.851562 29.992188 33.917969 30.179688 33.960938 30.371094 C 34.050781 30.707031 34.140625 31.046875 34.15625 31.394531 C 34.167969 31.742188 34.101562 32.105469 33.894531 32.386719 C 34.976562 32.496094 36.027344 32.226562 37.085938 31.964844 C 37.207031 31.941406 37.320312 31.898438 37.421875 31.828125 C 37.589844 31.695312 37.640625 31.460938 37.640625 31.246094 C 37.640625 30.867188 37.53125 30.492188 37.425781 30.128906 C 37.296875 29.6875 37.199219 29.234375 37.070312 28.800781 Z M 37.070312 28.800781 "/>
<path style=" stroke:none;fill-rule:nonzero;fill:rgb(11.372549%,38.431373%,9.411765%);fill-opacity:1;" d="M 42.875 19.382812 C 43.300781 19.441406 43.632812 19.785156 43.878906 20.140625 C 44.5625 21.128906 44.855469 22.328125 45.183594 23.484375 C 45.59375 24.921875 46.074219 26.339844 46.625 27.734375 C 46.742188 28.054688 46.886719 28.367188 47.054688 28.664062 C 47.195312 28.894531 47.359375 29.117188 47.421875 29.378906 C 47.566406 30.011719 47.046875 30.605469 46.503906 30.960938 C 46.214844 31.15625 45.898438 31.308594 45.566406 31.414062 C 45.242188 31.511719 44.90625 31.546875 44.570312 31.582031 L 41.480469 31.917969 C 40.058594 32.074219 38.625 32.230469 37.203125 32.078125 C 37.113281 31.765625 37.289062 31.546875 37.273438 31.21875 C 37.265625 30.988281 37.164062 30.769531 37.074219 30.554688 C 36.90625 30.175781 36.792969 29.769531 36.742188 29.355469 C 36.726562 29.203125 36.722656 29.046875 36.664062 28.90625 C 36.605469 28.761719 36.480469 28.636719 36.328125 28.625 C 37.164062 28.542969 37.796875 28.386719 38.632812 28.300781 C 38.941406 28.269531 39.265625 28.234375 39.527344 28.070312 C 39.855469 27.863281 40.039062 27.496094 40.1875 27.136719 C 40.546875 26.25 40.78125 25.269531 40.589844 24.332031 C 40.433594 23.558594 40 22.84375 40.003906 22.054688 C 40.003906 21.585938 40.160156 21.132812 40.347656 20.707031 C 40.546875 20.253906 40.808594 19.789062 41.246094 19.558594 C 41.683594 19.328125 42.382812 19.316406 42.875 19.382812 Z M 42.875 19.382812 "/>
<use xlink:href="#surface24" mask="url(#mask6)"/>
<path style=" stroke:none;fill-rule:nonzero;fill:rgb(93.72549%,71.764706%,72.54902%);fill-opacity:1;" d="M 23.53125 18.660156 C 23.730469 18.175781 23.9375 17.679688 23.941406 17.160156 C 23.949219 16.59375 23.71875 16.058594 23.546875 15.523438 C 23.328125 14.867188 23.1875 14.191406 23.117188 13.503906 C 23.101562 13.4375 23.113281 13.367188 23.144531 13.308594 C 23.191406 13.242188 23.28125 13.230469 23.359375 13.214844 C 23.742188 13.125 24.035156 12.8125 24.273438 12.5 C 24.648438 12.011719 24.960938 11.484375 25.214844 10.925781 C 25.398438 10.515625 25.648438 10.011719 26.097656 10.007812 C 25.914062 10.863281 25.691406 11.707031 25.425781 12.535156 C 25.894531 12.414062 26.339844 12.238281 26.8125 12.117188 C 26.902344 12.089844 27 12.078125 27.097656 12.082031 C 27.378906 12.109375 27.550781 12.492188 27.386719 12.722656 C 27.617188 12.996094 28 13.066406 28.300781 13.253906 C 28.601562 13.4375 28.816406 13.898438 28.550781 14.128906 C 28.496094 14.175781 28.429688 14.207031 28.394531 14.265625 C 28.261719 14.464844 28.578125 14.695312 28.554688 14.929688 C 28.53125 15.125 28.285156 15.214844 28.097656 15.164062 C 27.910156 15.113281 27.761719 14.972656 27.597656 14.867188 C 27.429688 14.765625 27.210938 14.699219 27.050781 14.808594 C 27.003906 15.332031 26.960938 15.867188 26.734375 16.347656 C 26.648438 16.519531 26.542969 16.683594 26.476562 16.867188 C 26.414062 17.0625 26.371094 17.269531 26.359375 17.476562 L 26.15625 19.328125 C 25.191406 19.523438 24.328125 19.234375 23.53125 18.660156 Z M 23.53125 18.660156 "/>
<path style=" stroke:none;fill-rule:nonzero;fill:rgb(100%,100%,100%);fill-opacity:1;" d="M 23.292969 20.320312 L 23.117188 19.113281 C 23.101562 19.015625 23.089844 18.917969 23.089844 18.816406 C 23.089844 18.539062 23.210938 18.273438 23.328125 18.019531 C 24.3125 18.476562 25.375 18.640625 26.457031 18.640625 C 26.601562 18.640625 26.765625 18.628906 26.851562 18.515625 C 27.035156 18.730469 27.042969 19.070312 26.964844 19.339844 C 26.886719 19.613281 26.734375 19.855469 26.632812 20.117188 C 26.582031 20.253906 26.542969 20.398438 26.445312 20.5 C 26.296875 20.664062 26.050781 20.691406 25.832031 20.691406 C 25.597656 20.6875 25.363281 20.664062 25.136719 20.625 C 24.542969 20.511719 23.886719 20.214844 23.292969 20.320312 Z M 23.292969 20.320312 "/>
<path style=" stroke:none;fill-rule:nonzero;fill:rgb(11.372549%,38.431373%,9.411765%);fill-opacity:1;" d="M 26.957031 20.269531 C 26.195312 20.183594 25.4375 20.058594 24.6875 19.902344 C 24.316406 19.824219 23.945312 19.738281 23.570312 19.753906 C 23.324219 19.761719 23.0625 19.8125 22.84375 19.691406 C 23.054688 20.40625 23.066406 21.160156 22.816406 21.863281 C 22.667969 22.28125 22.441406 22.671875 22.332031 23.105469 C 22.105469 24.003906 22.417969 24.988281 22.132812 25.875 C 22.101562 25.988281 22.042969 26.09375 21.960938 26.183594 C 21.875 26.261719 21.757812 26.304688 21.675781 26.390625 C 21.558594 26.515625 21.550781 26.707031 21.550781 26.882812 L 21.546875 28.417969 C 21.542969 29.398438 21.554688 30.4375 22.070312 31.265625 C 22.660156 32.214844 23.894531 32.707031 24.972656 32.417969 C 25.257812 32.34375 25.527344 32.214844 25.761719 32.03125 C 26.132812 31.734375 26.371094 31.304688 26.605469 30.882812 C 26.882812 30.378906 27.164062 29.867188 27.25 29.300781 C 27.316406 28.902344 27.28125 28.492188 27.234375 28.089844 C 26.980469 25.859375 26.4375 23.644531 26.554688 21.402344 C 26.570312 20.992188 26.710938 20.597656 26.957031 20.269531 Z M 26.957031 20.269531 "/>
<path style=" stroke:none;fill-rule:nonzero;fill:rgb(93.72549%,71.764706%,72.54902%);fill-opacity:1;" d="M 30.144531 29.535156 C 29.757812 29.558594 29.367188 29.582031 28.984375 29.535156 C 28.707031 29.503906 28.433594 29.433594 28.15625 29.386719 C 26.632812 29.140625 25.074219 29.574219 23.894531 30.574219 C 23.683594 30.757812 23.464844 31.039062 23.582031 31.296875 C 23.710938 31.570312 24.097656 31.5625 24.398438 31.511719 C 24.074219 31.667969 23.789062 31.890625 23.5625 32.167969 C 23.480469 32.269531 23.398438 32.390625 23.417969 32.523438 C 23.449219 32.800781 23.824219 32.847656 24.101562 32.824219 C 24.011719 32.921875 24.070312 33.09375 24.1875 33.160156 C 24.300781 33.226562 24.441406 33.210938 24.574219 33.1875 C 24.859375 33.136719 25.136719 33.039062 25.394531 32.902344 C 25.339844 33.039062 25.433594 33.199219 25.5625 33.269531 C 25.691406 33.335938 25.847656 33.332031 25.988281 33.308594 C 26.671875 33.195312 27.238281 32.722656 27.902344 32.535156 C 28.960938 32.238281 30.070312 32.710938 31.175781 32.746094 C 31.519531 32.757812 31.875 32.722656 32.1875 32.578125 C 32.574219 32.402344 32.882812 32.074219 33.292969 31.957031 C 33.742188 31.824219 34.261719 31.976562 34.675781 31.75 C 34.976562 31.589844 34.707031 30.335938 34.628906 30.09375 C 34.488281 29.65625 34.347656 29.363281 33.878906 29.316406 C 32.691406 29.199219 31.339844 29.46875 30.144531 29.535156 Z M 30.144531 29.535156 "/>
<path style=" stroke:none;fill-rule:nonzero;fill:rgb(100%,100%,100%);fill-opacity:1;" d="M 33.105469 29.195312 C 33.105469 29.195312 34.902344 30.722656 33.867188 32.386719 L 35.871094 31.691406 L 35.871094 30.234375 C 35.871094 30.164062 35.109375 29.125 35.109375 29.125 L 34.210938 28.988281 Z M 33.105469 29.195312 "/>
<path style=" stroke:none;fill-rule:nonzero;fill:rgb(24.705882%,23.921569%,33.72549%);fill-opacity:1;" d="M 14.289062 29.101562 L 14.964844 29.101562 C 15.734375 29.101562 16.355469 29.726562 16.355469 30.496094 L 16.355469 32.566406 L 12.898438 32.566406 L 12.898438 30.496094 C 12.898438 29.726562 13.523438 29.101562 14.289062 29.101562 Z M 14.289062 29.101562 "/>
<use xlink:href="#surface27" mask="url(#mask7)"/>
<path style=" stroke:none;fill-rule:nonzero;fill:rgb(24.705882%,23.921569%,33.72549%);fill-opacity:1;" d="M 14.765625 29.585938 C 14.765625 29.738281 14.640625 29.863281 14.488281 29.863281 C 14.335938 29.863281 14.214844 29.738281 14.214844 29.585938 C 14.214844 29.433594 14.335938 29.308594 14.488281 29.308594 C 14.640625 29.308594 14.765625 29.433594 14.765625 29.585938 Z M 14.765625 29.585938 "/>
<path style=" stroke:none;fill-rule:nonzero;fill:rgb(24.705882%,23.921569%,33.72549%);fill-opacity:1;" d="M 14.765625 29.238281 C 14.765625 29.390625 14.640625 29.515625 14.488281 29.515625 C 14.335938 29.515625 14.214844 29.390625 14.214844 29.238281 C 14.214844 29.085938 14.335938 28.960938 14.488281 28.960938 C 14.640625 28.960938 14.765625 29.085938 14.765625 29.238281 Z M 14.765625 29.238281 "/>
<path style=" stroke:none;fill-rule:nonzero;fill:rgb(24.705882%,23.921569%,33.72549%);fill-opacity:1;" d="M 14.765625 28.894531 C 14.765625 29.046875 14.640625 29.171875 14.488281 29.171875 C 14.335938 29.171875 14.214844 29.046875 14.214844 28.894531 C 14.214844 28.738281 14.335938 28.613281 14.488281 28.613281 C 14.640625 28.613281 14.765625 28.738281 14.765625 28.894531 Z M 14.765625 28.894531 "/>
<path style=" stroke:none;fill-rule:nonzero;fill:rgb(24.705882%,23.921569%,33.72549%);fill-opacity:1;" d="M 14.765625 28.546875 C 14.765625 28.699219 14.640625 28.824219 14.488281 28.824219 C 14.335938 28.824219 14.214844 28.699219 14.214844 28.546875 C 14.214844 28.394531 14.335938 28.269531 14.488281 28.269531 C 14.640625 28.269531 14.765625 28.394531 14.765625 28.546875 Z M 14.765625 28.546875 "/>
<path style=" stroke:none;fill-rule:nonzero;fill:rgb(24.705882%,23.921569%,33.72549%);fill-opacity:1;" d="M 14.765625 28.199219 C 14.765625 28.351562 14.640625 28.476562 14.488281 28.476562 C 14.335938 28.476562 14.214844 28.351562 14.214844 28.199219 C 14.214844 28.046875 14.335938 27.921875 14.488281 27.921875 C 14.640625 27.921875 14.765625 28.046875 14.765625 28.199219 Z M 14.765625 28.199219 "/>
<path style=" stroke:none;fill-rule:nonzero;fill:rgb(24.705882%,23.921569%,33.72549%);fill-opacity:1;" d="M 14.765625 27.851562 C 14.765625 28.003906 14.640625 28.128906 14.488281 28.128906 C 14.335938 28.128906 14.214844 28.003906 14.214844 27.851562 C 14.214844 27.699219 14.335938 27.574219 14.488281 27.574219 C 14.640625 27.574219 14.765625 27.699219 14.765625 27.851562 Z M 14.765625 27.851562 "/>
<path style=" stroke:none;fill-rule:nonzero;fill:rgb(24.705882%,23.921569%,33.72549%);fill-opacity:1;" d="M 14.765625 27.503906 C 14.765625 27.660156 14.640625 27.78125 14.488281 27.78125 C 14.335938 27.78125 14.214844 27.660156 14.214844 27.503906 C 14.214844 27.351562 14.335938 27.226562 14.488281 27.226562 C 14.640625 27.226562 14.765625 27.351562 14.765625 27.503906 Z M 14.765625 27.503906 "/>
<path style=" stroke:none;fill-rule:nonzero;fill:rgb(24.705882%,23.921569%,33.72549%);fill-opacity:1;" d="M 15.179688 27.644531 C 15.179688 27.796875 15.058594 27.921875 14.90625 27.921875 C 14.753906 27.921875 14.628906 27.796875 14.628906 27.644531 C 14.628906 27.492188 14.753906 27.367188 14.90625 27.367188 C 15.058594 27.367188 15.179688 27.492188 15.179688 27.644531 Z M 15.179688 27.644531 "/>
<path style=" stroke:none;fill-rule:nonzero;fill:rgb(24.705882%,23.921569%,33.72549%);fill-opacity:1;" d="M 15.457031 27.503906 C 15.457031 27.660156 15.335938 27.78125 15.179688 27.78125 C 15.027344 27.78125 14.90625 27.660156 14.90625 27.503906 C 14.90625 27.351562 15.027344 27.226562 15.179688 27.226562 C 15.335938 27.226562 15.457031 27.351562 15.457031 27.503906 Z M 15.457031 27.503906 "/>
<path style=" stroke:none;fill-rule:nonzero;fill:rgb(24.705882%,23.921569%,33.72549%);fill-opacity:1;" d="M 15.734375 27.367188 C 15.734375 27.519531 15.609375 27.644531 15.457031 27.644531 C 15.304688 27.644531 15.179688 27.519531 15.179688 27.367188 C 15.179688 27.214844 15.304688 27.089844 15.457031 27.089844 C 15.609375 27.089844 15.734375 27.214844 15.734375 27.367188 Z M 15.734375 27.367188 "/>
<path style=" stroke:none;fill-rule:nonzero;fill:rgb(24.705882%,23.921569%,33.72549%);fill-opacity:1;" d="M 14.765625 27.160156 C 14.765625 27.3125 14.640625 27.4375 14.488281 27.4375 C 14.335938 27.4375 14.214844 27.3125 14.214844 27.160156 C 14.214844 27.003906 14.335938 26.882812 14.488281 26.882812 C 14.640625 26.882812 14.765625 27.003906 14.765625 27.160156 Z M 14.765625 27.160156 "/>
<path style=" stroke:none;fill-rule:nonzero;fill:rgb(24.705882%,23.921569%,33.72549%);fill-opacity:1;" d="M 14.765625 26.8125 C 14.765625 26.964844 14.640625 27.089844 14.488281 27.089844 C 14.335938 27.089844 14.214844 26.964844 14.214844 26.8125 C 14.214844 26.660156 14.335938 26.535156 14.488281 26.535156 C 14.640625 26.535156 14.765625 26.660156 14.765625 26.8125 Z M 14.765625 26.8125 "/>
<path style=" stroke:none;fill-rule:nonzero;fill:rgb(24.705882%,23.921569%,33.72549%);fill-opacity:1;" d="M 14.765625 26.464844 C 14.765625 26.617188 14.640625 26.742188 14.488281 26.742188 C 14.335938 26.742188 14.214844 26.617188 14.214844 26.464844 C 14.214844 26.3125 14.335938 26.1875 14.488281 26.1875 C 14.640625 26.1875 14.765625 26.3125 14.765625 26.464844 Z M 14.765625 26.464844 "/>
<path style=" stroke:none;fill-rule:nonzero;fill:rgb(24.705882%,23.921569%,33.72549%);fill-opacity:1;" d="M 14.765625 26.117188 C 14.765625 26.273438 14.640625 26.394531 14.488281 26.394531 C 14.335938 26.394531 14.214844 26.273438 14.214844 26.117188 C 14.214844 25.964844 14.335938 25.839844 14.488281 25.839844 C 14.640625 25.839844 14.765625 25.964844 14.765625 26.117188 Z M 14.765625 26.117188 "/>
<path style=" stroke:none;fill-rule:nonzero;fill:rgb(11.372549%,38.431373%,9.411765%);fill-opacity:1;" d="M 15.636719 25.222656 C 15.570312 25.234375 15.5 25.242188 15.429688 25.246094 C 15.496094 25.191406 15.554688 25.128906 15.609375 25.0625 C 15.570312 24.945312 15.515625 24.835938 15.441406 24.738281 C 15.375 24.777344 15.296875 24.800781 15.21875 24.808594 C 15.152344 24.816406 15.082031 24.824219 15.011719 24.828125 C 15.105469 24.753906 15.1875 24.644531 15.277344 24.550781 C 14.867188 24.175781 14.25 24.144531 13.800781 24.46875 C 13.351562 24.796875 13.191406 25.394531 13.414062 25.902344 C 13.640625 26.410156 14.191406 26.691406 14.734375 26.574219 C 15.277344 26.460938 15.664062 25.980469 15.664062 25.421875 C 15.664062 25.355469 15.65625 25.285156 15.644531 25.21875 Z M 15.636719 25.222656 "/>
<path style=" stroke:none;fill-rule:nonzero;fill:rgb(11.372549%,38.431373%,9.411765%);fill-opacity:1;" d="M 16.558594 26.601562 C 16.488281 26.644531 16.410156 26.671875 16.328125 26.679688 C 16.257812 26.691406 16.191406 26.699219 16.121094 26.703125 C 16.195312 26.636719 16.261719 26.566406 16.324219 26.488281 C 15.980469 26.398438 15.625 26.585938 15.5 26.921875 C 15.378906 27.261719 15.53125 27.632812 15.855469 27.789062 C 16.175781 27.941406 16.5625 27.824219 16.746094 27.515625 C 16.929688 27.207031 16.847656 26.8125 16.558594 26.601562 Z M 16.558594 26.601562 "/>
<path style=" stroke:none;fill-rule:nonzero;fill:rgb(24.705882%,23.921569%,33.72549%);fill-opacity:1;" d="M 14.351562 27.644531 C 14.351562 27.796875 14.226562 27.921875 14.074219 27.921875 C 13.921875 27.921875 13.796875 27.796875 13.796875 27.644531 C 13.796875 27.492188 13.921875 27.367188 14.074219 27.367188 C 14.226562 27.367188 14.351562 27.492188 14.351562 27.644531 Z M 14.351562 27.644531 "/>
<path style=" stroke:none;fill-rule:nonzero;fill:rgb(24.705882%,23.921569%,33.72549%);fill-opacity:1;" d="M 14.074219 27.503906 C 14.074219 27.660156 13.949219 27.78125 13.796875 27.78125 C 13.644531 27.78125 13.523438 27.660156 13.523438 27.503906 C 13.523438 27.351562 13.644531 27.226562 13.796875 27.226562 C 13.949219 27.226562 14.074219 27.351562 14.074219 27.503906 Z M 14.074219 27.503906 "/>
<path style=" stroke:none;fill-rule:nonzero;fill:rgb(24.705882%,23.921569%,33.72549%);fill-opacity:1;" d="M 13.796875 27.367188 C 13.796875 27.519531 13.675781 27.644531 13.523438 27.644531 C 13.367188 27.644531 13.246094 27.519531 13.246094 27.367188 C 13.246094 27.214844 13.367188 27.089844 13.523438 27.089844 C 13.675781 27.089844 13.796875 27.214844 13.796875 27.367188 Z M 13.796875 27.367188 "/>
<path style=" stroke:none;fill-rule:nonzero;fill:rgb(11.372549%,38.431373%,9.411765%);fill-opacity:1;" d="M 12.417969 26.601562 C 12.488281 26.644531 12.570312 26.671875 12.652344 26.679688 C 12.71875 26.691406 12.789062 26.699219 12.859375 26.703125 C 12.785156 26.636719 12.714844 26.566406 12.652344 26.488281 C 13 26.398438 13.355469 26.585938 13.480469 26.921875 C 13.601562 27.261719 13.449219 27.632812 13.125 27.789062 C 12.804688 27.941406 12.417969 27.824219 12.234375 27.515625 C 12.050781 27.207031 12.132812 26.8125 12.417969 26.601562 Z M 12.417969 26.601562 "/>
<path style=" stroke:none;fill-rule:nonzero;fill:rgb(24.705882%,23.921569%,33.72549%);fill-opacity:1;" d="M 14.289062 29.304688 L 14.964844 29.304688 C 15.734375 29.304688 16.355469 29.929688 16.355469 30.703125 L 16.355469 32.535156 C 16.355469 32.667969 16.25 32.773438 16.121094 32.773438 L 13.132812 32.773438 C 13.003906 32.773438 12.898438 32.667969 12.898438 32.535156 L 12.898438 30.703125 C 12.898438 30.332031 13.042969 29.976562 13.304688 29.714844 C 13.566406 29.453125 13.921875 29.304688 14.289062 29.304688 Z M 14.289062 29.304688 "/>
<use xlink:href="#surface30" mask="url(#mask8)"/>
<use xlink:href="#surface33" mask="url(#mask9)"/>
<use xlink:href="#surface36" mask="url(#mask10)"/>
<path style=" stroke:none;fill-rule:nonzero;fill:rgb(11.372549%,38.431373%,9.411765%);fill-opacity:1;" d="M 10.957031 33.445312 L 5.519531 33.445312 C 5.390625 33.445312 5.285156 33.339844 5.285156 33.210938 L 5.285156 30.632812 C 5.285156 30.550781 5.328125 30.476562 5.394531 30.4375 C 5.460938 30.394531 5.546875 30.386719 5.617188 30.421875 C 7.179688 31.164062 8.863281 31.421875 10.847656 30.433594 C 10.917969 30.398438 11.003906 30.402344 11.074219 30.445312 C 11.140625 30.488281 11.183594 30.5625 11.183594 30.640625 L 11.183594 33.207031 C 11.183594 33.335938 11.082031 33.441406 10.957031 33.445312 Z M 10.957031 33.445312 "/>
<use xlink:href="#surface39" mask="url(#mask11)"/>
<path style=" stroke:none;fill-rule:nonzero;fill:rgb(24.705882%,23.921569%,33.72549%);fill-opacity:1;" d="M 8.519531 31.058594 C 8.519531 30.828125 8.375 30.636719 8.199219 30.636719 C 8.019531 30.636719 7.878906 30.828125 7.878906 31.058594 C 7.878906 31.292969 8.019531 31.480469 8.199219 31.480469 C 8.375 31.480469 8.519531 31.292969 8.519531 31.058594 Z M 8.519531 31.058594 "/>
<path style=" stroke:none;fill-rule:nonzero;fill:rgb(24.705882%,23.921569%,33.72549%);fill-opacity:1;" d="M 8.519531 30.542969 C 8.519531 30.308594 8.375 30.121094 8.199219 30.121094 C 8.019531 30.121094 7.878906 30.308594 7.878906 30.542969 C 7.878906 30.777344 8.019531 30.964844 8.199219 30.964844 C 8.375 30.964844 8.519531 30.777344 8.519531 30.542969 Z M 8.519531 30.542969 "/>
<path style=" stroke:none;fill-rule:nonzero;fill:rgb(24.705882%,23.921569%,33.72549%);fill-opacity:1;" d="M 8.519531 30.027344 C 8.519531 29.792969 8.375 29.605469 8.199219 29.605469 C 8.019531 29.605469 7.878906 29.792969 7.878906 30.027344 C 7.878906 30.257812 8.019531 30.449219 8.199219 30.449219 C 8.375 30.449219 8.519531 30.257812 8.519531 30.027344 Z M 8.519531 30.027344 "/>
<path style=" stroke:none;fill-rule:nonzero;fill:rgb(24.705882%,23.921569%,33.72549%);fill-opacity:1;" d="M 8.519531 29.511719 C 8.519531 29.277344 8.375 29.085938 8.199219 29.085938 C 8.019531 29.085938 7.878906 29.277344 7.878906 29.511719 C 7.878906 29.742188 8.019531 29.933594 8.199219 29.933594 C 8.375 29.933594 8.519531 29.742188 8.519531 29.511719 Z M 8.519531 29.511719 "/>
<path style=" stroke:none;fill-rule:nonzero;fill:rgb(24.705882%,23.921569%,33.72549%);fill-opacity:1;" d="M 8.519531 28.992188 C 8.519531 28.757812 8.375 28.570312 8.199219 28.570312 C 8.019531 28.570312 7.878906 28.757812 7.878906 28.992188 C 7.878906 29.226562 8.019531 29.414062 8.199219 29.414062 C 8.375 29.414062 8.519531 29.226562 8.519531 28.992188 Z M 8.519531 28.992188 "/>
<path style=" stroke:none;fill-rule:nonzero;fill:rgb(24.705882%,23.921569%,33.72549%);fill-opacity:1;" d="M 8.519531 28.476562 C 8.519531 28.242188 8.375 28.054688 8.199219 28.054688 C 8.019531 28.054688 7.878906 28.242188 7.878906 28.476562 C 7.878906 28.710938 8.019531 28.898438 8.199219 28.898438 C 8.375 28.898438 8.519531 28.710938 8.519531 28.476562 Z M 8.519531 28.476562 "/>
<path style=" stroke:none;fill-rule:nonzero;fill:rgb(24.705882%,23.921569%,33.72549%);fill-opacity:1;" d="M 8.519531 27.960938 C 8.519531 27.726562 8.375 27.539062 8.199219 27.539062 C 8.019531 27.539062 7.878906 27.726562 7.878906 27.960938 C 7.878906 28.191406 8.019531 28.382812 8.199219 28.382812 C 8.375 28.382812 8.519531 28.191406 8.519531 27.960938 Z M 8.519531 27.960938 "/>
<path style=" stroke:none;fill-rule:nonzero;fill:rgb(11.372549%,38.431373%,9.411765%);fill-opacity:1;" d="M 9.40625 24.425781 C 9.449219 24.367188 9.488281 24.308594 9.523438 24.246094 L 8.679688 24.109375 L 9.59375 24.113281 C 9.773438 23.726562 9.78125 23.28125 9.625 22.886719 L 8.394531 23.523438 L 9.527344 22.6875 C 9.238281 22.1875 8.695312 21.890625 8.121094 21.917969 C 7.542969 21.945312 7.03125 22.292969 6.789062 22.820312 C 6.550781 23.347656 6.625 23.964844 6.980469 24.417969 C 6.914062 24.503906 6.851562 24.601562 6.804688 24.699219 L 7.902344 25.277344 L 6.734375 24.882812 C 6.566406 25.375 6.660156 25.921875 6.984375 26.332031 C 6.484375 26.96875 6.558594 27.878906 7.148438 28.425781 C 7.738281 28.972656 8.648438 28.972656 9.242188 28.425781 C 9.832031 27.878906 9.902344 26.96875 9.40625 26.332031 C 9.847656 25.773438 9.847656 24.980469 9.40625 24.421875 Z M 9.40625 24.425781 "/>
<use xlink:href="#surface42" mask="url(#mask12)"/>
<path style=" stroke:none;fill-rule:nonzero;fill:rgb(11.372549%,38.431373%,9.411765%);fill-opacity:1;" d="M 10.957031 33.582031 L 5.519531 33.582031 C 5.390625 33.582031 5.285156 33.476562 5.285156 33.347656 L 5.285156 30.632812 C 5.285156 30.550781 5.328125 30.476562 5.394531 30.4375 C 5.460938 30.394531 5.546875 30.386719 5.617188 30.421875 C 7.179688 31.164062 8.417969 32.03125 10.847656 30.433594 C 10.992188 30.339844 11.183594 30.46875 11.183594 30.640625 L 11.183594 33.347656 C 11.183594 33.476562 11.082031 33.578125 10.957031 33.582031 Z M 10.957031 33.582031 "/>
<path style=" stroke:none;fill-rule:nonzero;fill:rgb(61.176471%,61.176471%,63.137255%);fill-opacity:1;" d="M 51.300781 32.8125 L 43.28125 33.875 L 42.878906 33.929688 L 38.957031 31.828125 L 38.957031 31.335938 L 51.210938 29.996094 Z M 51.300781 32.8125 "/>
<path style=" stroke:none;fill-rule:nonzero;fill:rgb(57.647059%,58.039216%,59.607843%);fill-opacity:1;" d="M 41.230469 32.050781 L 49.921875 31.023438 L 49.832031 32.632812 L 43.0625 33.132812 Z M 41.230469 32.050781 "/>
<use xlink:href="#surface45" mask="url(#mask13)"/>
<path style=" stroke:none;fill-rule:nonzero;fill:rgb(24.705882%,23.921569%,33.72549%);fill-opacity:1;" d="M 44.820312 24.964844 L 43.019531 33.34375 C 42.980469 33.511719 43.03125 33.691406 43.148438 33.820312 C 43.265625 33.945312 43.4375 34.007812 43.609375 33.984375 L 55.003906 32.472656 C 55.207031 32.445312 55.375 32.304688 55.441406 32.113281 L 57.898438 24.675781 C 57.953125 24.507812 57.921875 24.324219 57.816406 24.183594 C 57.710938 24.042969 57.542969 23.964844 57.367188 23.972656 L 45.316406 24.546875 C 45.074219 24.558594 44.871094 24.730469 44.820312 24.964844 Z M 44.820312 24.964844 "/>
<path style=" stroke:none;fill-rule:nonzero;fill:rgb(100%,100%,100%);fill-opacity:1;" d="M 50.820312 27.542969 C 50.652344 27.523438 50.488281 27.726562 50.460938 27.992188 C 50.433594 28.257812 50.550781 28.488281 50.71875 28.507812 C 50.890625 28.523438 51.050781 28.324219 51.082031 28.058594 C 51.109375 27.789062 50.992188 27.558594 50.820312 27.542969 Z M 50.820312 27.542969 "/>
</g>
</svg>
