<?xml version="1.0" encoding="UTF-8"?>
<svg xmlns="http://www.w3.org/2000/svg" xmlns:xlink="http://www.w3.org/1999/xlink" width="59pt" height="42pt" viewBox="0 0 59 42" version="1.1">
<g id="surface1">
<path style=" stroke:none;fill-rule:nonzero;fill:rgb(11.372549%,38.431373%,9.411765%);fill-opacity:1;" d="M 33.332031 38.683594 C 33.332031 40.476562 31.894531 41.929688 30.121094 41.929688 C 28.347656 41.929688 26.910156 40.476562 26.910156 38.683594 C 26.910156 36.890625 28.347656 35.433594 30.121094 35.433594 C 31.894531 35.433594 33.332031 36.890625 33.332031 38.683594 Z M 33.332031 38.683594 "/>
<path style=" stroke:none;fill-rule:nonzero;fill:rgb(94.901961%,94.901961%,94.901961%);fill-opacity:1;" d="M 49.308594 41.746094 C 51.105469 41.203125 53.015625 40.632812 54.441406 39.335938 C 55.714844 38.175781 56.574219 36.40625 56.046875 34.667969 C 55.519531 32.933594 53.941406 31.777344 52.316406 31.203125 C 51.390625 30.875 50.425781 30.695312 49.460938 30.554688 C 48.410156 30.398438 47.355469 30.273438 46.300781 30.148438 C 42.035156 29.65625 37.75 29.355469 33.453125 29.246094 C 31.328125 29.191406 29.207031 29.191406 27.085938 29.222656 C 25.191406 29.253906 23.195312 29.25 21.4375 28.4375 C 20.070312 27.804688 18.832031 26.652344 18.449219 25.136719 C 18.011719 23.390625 18.820312 21.613281 19.984375 20.347656 C 20.597656 19.679688 21.3125 19.117188 22.054688 18.601562 C 22.855469 18.042969 23.6875 17.519531 24.535156 17.035156 C 26.203125 16.078125 27.949219 15.265625 29.753906 14.601562 C 30.644531 14.273438 31.546875 13.992188 32.457031 13.730469 C 33.226562 13.511719 34 13.292969 34.742188 12.992188 C 36.179688 12.414062 37.546875 11.433594 37.910156 9.824219 C 38.257812 8.300781 37.675781 6.644531 36.652344 5.511719 C 35.464844 4.203125 33.679688 3.628906 31.96875 3.535156 C 30.046875 3.433594 28.167969 3.917969 26.363281 4.535156 C 24.433594 5.195312 22.550781 5.949219 20.582031 6.484375 C 18.632812 7.011719 16.640625 7.386719 14.632812 7.601562 C 13.648438 7.707031 12.636719 7.828125 11.648438 7.746094 C 10.820312 7.679688 9.996094 7.433594 9.382812 6.835938 C 8.859375 6.328125 8.546875 5.625 8.65625 4.886719 C 8.675781 4.753906 8.875 4.808594 8.855469 4.941406 C 8.726562 5.84375 9.332031 6.671875 10.078125 7.097656 C 10.941406 7.589844 11.988281 7.589844 12.949219 7.535156 C 15.03125 7.40625 17.097656 7.105469 19.128906 6.628906 C 21.125 6.167969 23.050781 5.511719 24.972656 4.808594 C 26.800781 4.136719 28.667969 3.484375 30.617188 3.339844 C 32.3125 3.214844 34.09375 3.464844 35.566406 4.359375 C 36.863281 5.144531 37.816406 6.457031 38.121094 7.960938 C 38.417969 9.429688 38.003906 10.910156 36.90625 11.933594 C 35.765625 12.996094 34.203125 13.453125 32.746094 13.871094 C 30.898438 14.398438 29.09375 15.019531 27.34375 15.824219 C 25.570312 16.640625 23.867188 17.605469 22.257812 18.714844 C 20.707031 19.789062 19.171875 21.136719 18.683594 23.050781 C 18.453125 23.945312 18.496094 24.890625 18.878906 25.730469 C 19.21875 26.480469 19.78125 27.109375 20.433594 27.597656 C 21.992188 28.757812 23.957031 28.996094 25.839844 29.019531 C 27.953125 29.042969 30.066406 28.972656 32.183594 29.007812 C 36.492188 29.078125 40.792969 29.34375 45.085938 29.804688 C 46.160156 29.917969 47.234375 30.046875 48.308594 30.183594 C 49.273438 30.308594 50.242188 30.433594 51.191406 30.65625 C 52.878906 31.054688 54.519531 31.8125 55.570312 33.261719 C 56.035156 33.886719 56.324219 34.628906 56.402344 35.410156 C 56.476562 36.222656 56.277344 37.039062 55.914062 37.761719 C 55.109375 39.363281 53.601562 40.382812 52 41.050781 C 51.140625 41.410156 50.253906 41.679688 49.363281 41.953125 C 49.234375 41.992188 49.179688 41.785156 49.308594 41.746094 Z M 49.308594 41.746094 "/>
<path style=" stroke:none;fill-rule:nonzero;fill:rgb(94.901961%,94.901961%,94.901961%);fill-opacity:1;" d="M 10.464844 4.90625 C 10.464844 5.839844 9.714844 6.601562 8.789062 6.601562 C 7.863281 6.601562 7.113281 5.839844 7.113281 4.90625 C 7.113281 3.96875 7.863281 3.210938 8.789062 3.210938 C 9.714844 3.210938 10.464844 3.96875 10.464844 4.90625 Z M 10.464844 4.90625 "/>
<path style=" stroke:none;fill-rule:nonzero;fill:rgb(94.901961%,94.901961%,94.901961%);fill-opacity:1;" d="M 22.089844 8.117188 C 22.089844 9.054688 21.339844 9.8125 20.414062 9.8125 C 19.488281 9.8125 18.738281 9.054688 18.738281 8.117188 C 18.738281 7.183594 19.488281 6.421875 20.414062 6.421875 C 21.339844 6.421875 22.089844 7.183594 22.089844 8.117188 Z M 22.089844 8.117188 "/>
<path style=" stroke:none;fill-rule:nonzero;fill:rgb(94.901961%,94.901961%,94.901961%);fill-opacity:1;" d="M 31.9375 1.695312 C 31.9375 2.628906 31.1875 3.386719 30.261719 3.386719 C 29.335938 3.386719 28.585938 2.628906 28.585938 1.695312 C 28.585938 0.757812 29.335938 0 30.261719 0 C 31.1875 0 31.9375 0.757812 31.9375 1.695312 Z M 31.9375 1.695312 "/>
<path style=" stroke:none;fill-rule:nonzero;fill:rgb(94.901961%,94.901961%,94.901961%);fill-opacity:1;" d="M 38.082031 8.894531 C 38.082031 9.828125 37.332031 10.589844 36.40625 10.589844 C 35.480469 10.589844 34.730469 9.828125 34.730469 8.894531 C 34.730469 7.957031 35.480469 7.199219 36.40625 7.199219 C 37.332031 7.199219 38.082031 7.957031 38.082031 8.894531 Z M 38.082031 8.894531 "/>
<path style=" stroke:none;fill-rule:nonzero;fill:rgb(94.901961%,94.901961%,94.901961%);fill-opacity:1;" d="M 29.773438 17.222656 C 29.773438 18.160156 29.023438 18.917969 28.097656 18.917969 C 27.171875 18.917969 26.421875 18.160156 26.421875 17.222656 C 26.421875 16.289062 27.171875 15.53125 28.097656 15.53125 C 29.023438 15.53125 29.773438 16.289062 29.773438 17.222656 Z M 29.773438 17.222656 "/>
<path style=" stroke:none;fill-rule:nonzero;fill:rgb(94.901961%,94.901961%,94.901961%);fill-opacity:1;" d="M 19.230469 21.246094 C 19.230469 22.183594 18.476562 22.941406 17.554688 22.941406 C 16.628906 22.941406 15.878906 22.183594 15.878906 21.246094 C 15.878906 20.3125 16.628906 19.554688 17.554688 19.554688 C 18.476562 19.554688 19.230469 20.3125 19.230469 21.246094 Z M 19.230469 21.246094 "/>
<path style=" stroke:none;fill-rule:nonzero;fill:rgb(94.901961%,94.901961%,94.901961%);fill-opacity:1;" d="M 30.398438 27.53125 C 30.398438 28.464844 29.648438 29.222656 28.722656 29.222656 C 27.800781 29.222656 27.046875 28.464844 27.046875 27.53125 C 27.046875 26.59375 27.800781 25.835938 28.722656 25.835938 C 29.648438 25.835938 30.398438 26.59375 30.398438 27.53125 Z M 30.398438 27.53125 "/>
<path style=" stroke:none;fill-rule:nonzero;fill:rgb(94.901961%,94.901961%,94.901961%);fill-opacity:1;" d="M 42.410156 31.058594 C 42.410156 31.996094 41.660156 32.753906 40.734375 32.753906 C 39.808594 32.753906 39.058594 31.996094 39.058594 31.058594 C 39.058594 30.125 39.808594 29.363281 40.734375 29.363281 C 41.660156 29.363281 42.410156 30.125 42.410156 31.058594 Z M 42.410156 31.058594 "/>
<path style=" stroke:none;fill-rule:nonzero;fill:rgb(94.901961%,94.901961%,94.901961%);fill-opacity:1;" d="M 56.445312 30.28125 C 56.445312 31.21875 55.695312 31.976562 54.769531 31.976562 C 53.84375 31.976562 53.09375 31.21875 53.09375 30.28125 C 53.09375 29.347656 53.84375 28.589844 54.769531 28.589844 C 55.695312 28.589844 56.445312 29.347656 56.445312 30.28125 Z M 56.445312 30.28125 "/>
<path style=" stroke:none;fill-rule:nonzero;fill:rgb(11.372549%,38.431373%,9.411765%);fill-opacity:1;" d="M 29.777344 4.800781 C 24.757812 4.835938 20.648438 8.960938 20.574219 14.035156 C 20.574219 14.082031 20.574219 14.410156 20.574219 14.839844 C 20.574219 16.15625 21.628906 17.222656 22.929688 17.222656 C 24.234375 17.222656 25.289062 16.15625 25.289062 14.835938 C 25.289062 14.542969 25.289062 14.34375 25.289062 14.328125 C 25.289062 12.164062 26.808594 10.300781 28.914062 9.890625 C 31.015625 9.484375 33.113281 10.640625 33.90625 12.652344 C 34.703125 14.664062 33.972656 16.964844 32.167969 18.132812 C 32.167969 18.132812 28.8125 20.316406 27.792969 23.308594 C 27.613281 23.925781 27.523438 24.558594 27.523438 25.199219 C 27.523438 25.464844 27.539062 27.765625 27.566406 29.632812 C 27.589844 30.972656 28.671875 32.046875 29.996094 32.046875 C 30.644531 32.046875 31.261719 31.785156 31.71875 31.320312 C 32.175781 30.859375 32.429688 30.230469 32.425781 29.574219 C 32.414062 27.867188 32.410156 25.875 32.410156 25.730469 C 32.410156 23.890625 34.164062 22.058594 35.605469 20.863281 C 37.265625 19.488281 38.457031 17.613281 38.9375 15.5 C 39.042969 15.066406 39.101562 14.617188 39.113281 14.171875 C 39.113281 11.671875 38.128906 9.28125 36.375 7.519531 C 34.621094 5.761719 32.246094 4.78125 29.777344 4.800781 Z M 29.777344 4.800781 "/>
<path style=" stroke:none;fill-rule:nonzero;fill:rgb(24.705882%,23.921569%,33.72549%);fill-opacity:1;" d="M 58.894531 42.019531 L 0.0820312 42.019531 C 0.0390625 42.019531 0 41.980469 0 41.933594 C 0 41.886719 0.0390625 41.851562 0.0820312 41.851562 L 58.894531 41.851562 C 58.941406 41.851562 58.976562 41.886719 58.976562 41.933594 C 58.976562 41.980469 58.941406 42.019531 58.894531 42.019531 Z M 58.894531 42.019531 "/>
<path style=" stroke:none;fill-rule:nonzero;fill:rgb(18.431373%,18.039216%,25.490196%);fill-opacity:1;" d="M 45.972656 17.152344 C 45.972656 18.320312 45.035156 19.269531 43.878906 19.269531 C 42.722656 19.269531 41.785156 18.320312 41.785156 17.152344 C 41.785156 15.984375 42.722656 15.035156 43.878906 15.035156 C 45.035156 15.035156 45.972656 15.984375 45.972656 17.152344 Z M 45.972656 17.152344 "/>
<path style=" stroke:none;fill-rule:nonzero;fill:rgb(62.745098%,38.039216%,41.568627%);fill-opacity:1;" d="M 40.007812 41.089844 L 39.152344 41.089844 L 38.746094 37.753906 L 40.007812 37.753906 Z M 40.007812 41.089844 "/>
<path style=" stroke:none;fill-rule:nonzero;fill:rgb(18.431373%,18.039216%,25.490196%);fill-opacity:1;" d="M 38.542969 40.84375 L 40.191406 40.84375 L 40.191406 41.894531 L 37.503906 41.894531 C 37.503906 41.316406 37.96875 40.84375 38.542969 40.84375 Z M 38.542969 40.84375 "/>
<path style=" stroke:none;fill-rule:nonzero;fill:rgb(62.745098%,38.039216%,41.568627%);fill-opacity:1;" d="M 46.640625 41.089844 L 45.785156 41.089844 L 45.378906 37.753906 L 46.640625 37.753906 Z M 46.640625 41.089844 "/>
<path style=" stroke:none;fill-rule:nonzero;fill:rgb(18.431373%,18.039216%,25.490196%);fill-opacity:1;" d="M 45.175781 40.84375 L 46.824219 40.84375 L 46.824219 41.894531 L 44.136719 41.894531 C 44.136719 41.316406 44.601562 40.84375 45.175781 40.84375 Z M 45.175781 40.84375 "/>
<path style=" stroke:none;fill-rule:nonzero;fill:rgb(62.745098%,38.039216%,41.568627%);fill-opacity:1;" d="M 45.277344 17.550781 C 45.277344 18.507812 44.507812 19.28125 43.5625 19.28125 C 42.613281 19.28125 41.847656 18.507812 41.847656 17.550781 C 41.847656 16.589844 42.613281 15.816406 43.5625 15.816406 C 44.507812 15.816406 45.277344 16.589844 45.277344 17.550781 Z M 45.277344 17.550781 "/>
<path style=" stroke:none;fill-rule:nonzero;fill:rgb(18.431373%,18.039216%,25.490196%);fill-opacity:1;" d="M 44.582031 24.875 L 45.351562 23.09375 C 45.734375 22.238281 45.539062 21.230469 44.867188 20.582031 C 44.796875 20.511719 44.726562 20.449219 44.652344 20.390625 C 44.273438 20.09375 43.804688 19.929688 43.324219 19.929688 C 43.003906 19.929688 42.683594 20 42.390625 20.136719 C 42.363281 20.148438 42.339844 20.160156 42.316406 20.171875 C 42.265625 20.195312 42.21875 20.222656 42.171875 20.25 C 41.5625 20.601562 41.15625 21.226562 41.078125 21.933594 L 40.738281 24.804688 C 40.652344 25.027344 37.613281 33.160156 38.675781 39.367188 C 38.699219 39.503906 38.808594 39.609375 38.945312 39.628906 L 40.023438 39.777344 C 40.183594 39.796875 40.335938 39.6875 40.371094 39.527344 L 42.179688 30.816406 C 42.203125 30.703125 42.296875 30.621094 42.410156 30.617188 C 42.523438 30.613281 42.625 30.6875 42.652344 30.796875 L 45.207031 39.960938 C 45.246094 40.097656 45.367188 40.191406 45.507812 40.191406 C 45.527344 40.191406 45.550781 40.1875 45.570312 40.1875 L 46.886719 39.929688 C 47.042969 39.898438 47.152344 39.753906 47.140625 39.589844 C 46.945312 37.410156 45.917969 26.488281 44.582031 24.875 Z M 44.582031 24.875 "/>
<path style=" stroke:none;fill-rule:nonzero;fill:rgb(62.745098%,38.039216%,41.568627%);fill-opacity:1;" d="M 36.898438 18.992188 C 36.871094 19.199219 36.941406 19.410156 37.085938 19.5625 C 37.226562 19.714844 37.429688 19.796875 37.636719 19.78125 L 38.59375 22.113281 L 39.320312 21.023438 L 38.300781 18.980469 C 38.253906 18.621094 37.949219 18.351562 37.59375 18.355469 C 37.234375 18.359375 36.9375 18.632812 36.898438 18.992188 Z M 36.898438 18.992188 "/>
<path style=" stroke:none;fill-rule:nonzero;fill:rgb(62.745098%,38.039216%,41.568627%);fill-opacity:1;" d="M 43.464844 27.21875 C 43.671875 27.195312 43.859375 27.078125 43.972656 26.902344 C 44.085938 26.726562 44.117188 26.511719 44.054688 26.308594 L 46.070312 24.824219 L 44.855469 24.363281 L 43.128906 25.84375 C 42.792969 25.972656 42.605469 26.332031 42.691406 26.683594 C 42.78125 27.035156 43.113281 27.265625 43.464844 27.21875 Z M 43.464844 27.21875 "/>
<path style=" stroke:none;fill-rule:nonzero;fill:rgb(18.431373%,18.039216%,25.490196%);fill-opacity:1;" d="M 40.179688 23.664062 C 40.101562 23.664062 40.023438 23.65625 39.949219 23.640625 C 39.574219 23.570312 39.261719 23.316406 39.113281 22.960938 L 37.769531 21.308594 C 37.714844 21.234375 37.6875 21.144531 37.703125 21.054688 C 37.71875 20.964844 37.773438 20.882812 37.847656 20.835938 L 38.804688 20.238281 C 38.875 20.191406 38.960938 20.179688 39.042969 20.199219 C 39.125 20.21875 39.195312 20.269531 39.238281 20.34375 L 40.183594 21.917969 L 41.996094 20.566406 C 42.296875 20.40625 42.664062 20.492188 42.863281 20.769531 C 43.058594 21.042969 43.027344 21.425781 42.785156 21.664062 L 40.976562 23.332031 C 40.765625 23.542969 40.476562 23.664062 40.179688 23.664062 Z M 40.179688 23.664062 "/>
<path style=" stroke:none;fill-rule:nonzero;fill:rgb(18.431373%,18.039216%,25.490196%);fill-opacity:1;" d="M 45.078125 26.152344 C 45.074219 26.152344 45.070312 26.152344 45.070312 26.152344 C 44.980469 26.152344 44.894531 26.113281 44.839844 26.042969 L 43.988281 25.042969 C 43.929688 24.972656 43.902344 24.882812 43.914062 24.789062 C 43.929688 24.699219 43.976562 24.621094 44.054688 24.570312 L 45.644531 23.496094 L 44.203125 21.746094 C 44.027344 21.453125 44.09375 21.078125 44.355469 20.863281 C 44.617188 20.648438 44.992188 20.65625 45.242188 20.886719 L 46.992188 22.617188 C 47.273438 22.875 47.410156 23.257812 47.359375 23.636719 C 47.308594 24.015625 47.074219 24.34375 46.738281 24.519531 L 45.304688 26.054688 C 45.246094 26.117188 45.164062 26.152344 45.078125 26.152344 Z M 45.078125 26.152344 "/>
<path style=" stroke:none;fill-rule:nonzero;fill:rgb(90.196078%,90.196078%,90.196078%);fill-opacity:1;" d="M 43.125 22.460938 C 43.113281 22.460938 43.097656 22.460938 43.085938 22.460938 C 42.964844 22.445312 42.863281 22.359375 42.824219 22.242188 L 42.1875 20.265625 C 42.152344 20.160156 42.203125 20.046875 42.296875 20 L 42.320312 19.992188 C 42.339844 19.984375 42.355469 19.972656 42.375 19.964844 C 42.671875 19.824219 42.996094 19.753906 43.324219 19.75 C 43.75 19.753906 44.167969 19.878906 44.523438 20.117188 C 44.621094 20.183594 44.652344 20.316406 44.585938 20.417969 L 43.390625 22.316406 C 43.332031 22.40625 43.234375 22.460938 43.125 22.460938 Z M 43.125 22.460938 "/>
<path style=" stroke:none;fill-rule:nonzero;fill:rgb(18.431373%,18.039216%,25.490196%);fill-opacity:1;" d="M 46.214844 15.515625 C 46.214844 15.898438 45.910156 16.207031 45.53125 16.207031 C 45.152344 16.207031 44.847656 15.898438 44.847656 15.515625 C 44.847656 15.132812 45.152344 14.820312 45.53125 14.820312 C 45.910156 14.820312 46.214844 15.132812 46.214844 15.515625 Z M 46.214844 15.515625 "/>
<path style=" stroke:none;fill-rule:nonzero;fill:rgb(18.431373%,18.039216%,25.490196%);fill-opacity:1;" d="M 43.179688 14.753906 C 42.179688 14.753906 41.367188 15.574219 41.367188 16.589844 L 41.367188 17.363281 L 42.3125 17.363281 L 42.761719 16.589844 L 42.898438 17.363281 L 45.765625 17.363281 L 44.996094 16.589844 C 44.996094 15.574219 44.183594 14.753906 43.179688 14.753906 Z M 43.179688 14.753906 "/>
<path style=" stroke:none;fill-rule:nonzero;fill:rgb(18.431373%,18.039216%,25.490196%);fill-opacity:1;" d="M 45.882812 15.039062 C 46.039062 14.546875 46.527344 14.234375 47.035156 14.304688 C 47.472656 14.378906 47.816406 14.734375 48.023438 15.132812 C 48.226562 15.527344 48.324219 15.972656 48.460938 16.398438 C 48.601562 16.820312 48.796875 17.25 49.144531 17.523438 C 49.496094 17.800781 50.03125 17.875 50.375 17.589844 C 50.292969 18.195312 49.839844 18.683594 49.246094 18.796875 C 48.652344 18.914062 48.050781 18.632812 47.757812 18.097656 C 47.574219 17.773438 47.527344 17.390625 47.476562 17.023438 C 47.421875 16.652344 47.351562 16.269531 47.136719 15.96875 C 46.917969 15.664062 46.515625 15.464844 46.171875 15.605469 Z M 45.882812 15.039062 "/>
<path style=" stroke:none;fill-rule:nonzero;fill:rgb(24.705882%,23.921569%,33.72549%);fill-opacity:1;" d="M 23.597656 16.097656 C 22.296875 16.097656 21.242188 15.03125 21.238281 13.714844 C 21.238281 13.285156 21.242188 12.953125 21.242188 12.90625 C 21.261719 11.433594 21.628906 9.980469 22.3125 8.679688 C 21.1875 10.234375 20.570312 12.109375 20.542969 14.035156 C 20.542969 14.082031 20.542969 14.414062 20.542969 14.84375 C 20.542969 16.160156 21.597656 17.226562 22.898438 17.226562 C 23.953125 17.226562 24.878906 16.515625 25.167969 15.492188 C 24.734375 15.882812 24.175781 16.097656 23.597656 16.097656 Z M 23.597656 16.097656 "/>
<path style=" stroke:none;fill-rule:nonzero;fill:rgb(24.705882%,23.921569%,33.72549%);fill-opacity:1;" d="M 29.9375 9.820312 C 31.402344 9.890625 32.742188 10.683594 33.515625 11.945312 C 34.292969 13.203125 34.40625 14.769531 33.824219 16.132812 C 34.960938 14.78125 35.210938 12.882812 34.460938 11.277344 C 33.714844 9.671875 32.105469 8.660156 30.351562 8.683594 C 28.597656 8.710938 27.019531 9.777344 26.320312 11.402344 C 27.21875 10.335938 28.554688 9.75 29.9375 9.820312 Z M 29.9375 9.820312 "/>
<path style=" stroke:none;fill-rule:nonzero;fill:rgb(24.705882%,23.921569%,33.72549%);fill-opacity:1;" d="M 30.660156 30.921875 C 29.335938 30.921875 28.253906 29.84375 28.230469 28.503906 C 28.203125 26.636719 28.1875 24.335938 28.1875 24.074219 C 28.1875 23.433594 28.277344 22.796875 28.457031 22.183594 C 28.5625 21.875 28.691406 21.574219 28.839844 21.285156 C 28.382812 21.902344 28.019531 22.585938 27.757812 23.3125 C 27.578125 23.925781 27.488281 24.5625 27.488281 25.203125 C 27.488281 25.464844 27.503906 27.765625 27.535156 29.632812 C 27.554688 30.976562 28.636719 32.050781 29.964844 32.050781 C 31.042969 32.050781 31.992188 31.328125 32.296875 30.28125 C 31.847656 30.695312 31.265625 30.921875 30.660156 30.921875 Z M 30.660156 30.921875 "/>
<path style=" stroke:none;fill-rule:nonzero;fill:rgb(100%,72.156863%,72.156863%);fill-opacity:1;" d="M 8.835938 41.125 L 9.691406 41.125 L 10.097656 37.785156 L 8.835938 37.785156 Z M 8.835938 41.125 "/>
<path style=" stroke:none;fill-rule:nonzero;fill:rgb(18.431373%,18.039216%,25.490196%);fill-opacity:1;" d="M 11.34375 41.925781 L 8.652344 41.925781 L 8.652344 40.875 L 10.304688 40.875 C 10.875 40.875 11.34375 41.347656 11.34375 41.925781 Z M 11.34375 41.925781 "/>
<path style=" stroke:none;fill-rule:nonzero;fill:rgb(100%,72.156863%,72.156863%);fill-opacity:1;" d="M 5.761719 41.125 L 6.621094 41.125 L 7.027344 37.785156 L 5.761719 37.785156 Z M 5.761719 41.125 "/>
<path style=" stroke:none;fill-rule:nonzero;fill:rgb(18.431373%,18.039216%,25.490196%);fill-opacity:1;" d="M 8.269531 41.925781 L 5.578125 41.925781 L 5.578125 40.875 L 7.230469 40.875 C 7.804688 40.875 8.269531 41.347656 8.269531 41.925781 Z M 8.269531 41.925781 "/>
<path style=" stroke:none;fill-rule:nonzero;fill:rgb(18.431373%,18.039216%,25.490196%);fill-opacity:1;" d="M 6.511719 40.097656 L 5.675781 40.050781 C 5.589844 40.046875 5.507812 40.007812 5.449219 39.941406 C 5.390625 39.875 5.359375 39.789062 5.367188 39.703125 L 6.367188 28.515625 L 10.96875 29.773438 L 11.410156 29.648438 L 10.023438 39.550781 C 10 39.707031 9.875 39.820312 9.71875 39.832031 L 8.820312 39.871094 C 8.726562 39.878906 8.640625 39.84375 8.574219 39.78125 C 8.507812 39.714844 8.472656 39.625 8.476562 39.535156 L 8.636719 33.589844 C 8.640625 33.535156 8.597656 33.484375 8.542969 33.480469 C 8.484375 33.472656 8.433594 33.507812 8.421875 33.566406 L 6.847656 39.835938 C 6.816406 39.988281 6.683594 40.097656 6.527344 40.097656 C 6.523438 40.097656 6.515625 40.097656 6.511719 40.097656 Z M 6.511719 40.097656 "/>
<path style=" stroke:none;fill-rule:nonzero;fill:rgb(100%,72.156863%,72.156863%);fill-opacity:1;" d="M 10.703125 17.628906 C 10.703125 18.585938 9.9375 19.363281 8.988281 19.363281 C 8.042969 19.363281 7.273438 18.585938 7.273438 17.628906 C 7.273438 16.671875 8.042969 15.894531 8.988281 15.894531 C 9.9375 15.894531 10.703125 16.671875 10.703125 17.628906 Z M 10.703125 17.628906 "/>
<path style=" stroke:none;fill-rule:nonzero;fill:rgb(80%,80%,80%);fill-opacity:1;" d="M 6.132812 22.722656 L 6.324219 26.835938 L 6.390625 28.332031 C 6.394531 28.464844 6.480469 28.582031 6.605469 28.628906 L 11.027344 30.246094 C 11.0625 30.261719 11.101562 30.265625 11.140625 30.265625 C 11.226562 30.265625 11.3125 30.230469 11.371094 30.167969 C 11.433594 30.105469 11.46875 30.019531 11.464844 29.929688 L 11.285156 22.535156 C 11.257812 21.28125 10.359375 20.226562 9.136719 20.015625 C 9.09375 20.007812 9.050781 20.003906 9.007812 19.996094 C 8.265625 19.902344 7.519531 20.148438 6.972656 20.664062 C 6.402344 21.191406 6.097656 21.945312 6.132812 22.722656 Z M 6.132812 22.722656 "/>
<path style=" stroke:none;fill-rule:nonzero;fill:rgb(100%,72.156863%,72.156863%);fill-opacity:1;" d="M 13.140625 29.425781 C 12.929688 29.359375 12.757812 29.195312 12.6875 28.984375 C 12.613281 28.773438 12.640625 28.539062 12.765625 28.351562 L 11.265625 26.335938 L 12.558594 26.253906 L 13.785156 28.179688 C 14.054688 28.394531 14.136719 28.769531 13.980469 29.078125 C 13.820312 29.382812 13.464844 29.53125 13.140625 29.425781 Z M 13.140625 29.425781 "/>
<path style=" stroke:none;fill-rule:nonzero;fill:rgb(80%,80%,80%);fill-opacity:1;" d="M 12.085938 27.988281 C 12.003906 27.953125 11.941406 27.890625 11.910156 27.808594 L 9.648438 22.367188 C 9.460938 21.917969 9.671875 21.402344 10.113281 21.214844 C 10.558594 21.027344 11.066406 21.238281 11.253906 21.6875 L 13.511719 27.128906 C 13.582031 27.296875 13.503906 27.488281 13.339844 27.558594 L 12.335938 27.984375 C 12.253906 28.019531 12.164062 28.019531 12.085938 27.988281 Z M 12.085938 27.988281 "/>
<path style=" stroke:none;fill-rule:nonzero;fill:rgb(24.705882%,23.921569%,33.72549%);fill-opacity:1;" d="M 8.4375 27.796875 L 10.609375 23.59375 C 10.695312 23.425781 10.898438 23.359375 11.066406 23.449219 L 14.214844 25.113281 C 14.382812 25.199219 14.449219 25.40625 14.359375 25.574219 L 12.191406 29.777344 C 12.105469 29.945312 11.898438 30.011719 11.730469 29.921875 L 8.582031 28.257812 C 8.414062 28.171875 8.351562 27.964844 8.4375 27.796875 Z M 8.4375 27.796875 "/>
<path style=" stroke:none;fill-rule:nonzero;fill:rgb(100%,72.156863%,72.156863%);fill-opacity:1;" d="M 9.894531 25.875 C 9.816406 25.664062 9.644531 25.503906 9.429688 25.441406 C 9.214844 25.382812 8.984375 25.425781 8.808594 25.5625 L 6.730469 24.167969 L 6.726562 25.476562 L 8.703125 26.601562 C 8.925781 26.863281 9.304688 26.921875 9.597656 26.742188 C 9.890625 26.5625 10.015625 26.199219 9.894531 25.875 Z M 9.894531 25.875 "/>
<path style=" stroke:none;fill-rule:nonzero;fill:rgb(80%,80%,80%);fill-opacity:1;" d="M 7.265625 26.171875 L 5.566406 24.808594 C 5.191406 24.683594 4.902344 24.378906 4.796875 23.996094 C 4.6875 23.613281 4.769531 23.203125 5.019531 22.894531 L 6.5625 20.851562 C 6.785156 20.578125 7.171875 20.507812 7.46875 20.691406 C 7.769531 20.871094 7.890625 21.25 7.757812 21.574219 L 6.535156 23.59375 L 8.332031 24.457031 C 8.414062 24.496094 8.476562 24.570312 8.503906 24.660156 C 8.53125 24.753906 8.515625 24.851562 8.46875 24.929688 L 7.742188 26.089844 C 7.691406 26.167969 7.613281 26.222656 7.523438 26.238281 C 7.519531 26.238281 7.519531 26.238281 7.515625 26.238281 C 7.425781 26.25 7.335938 26.226562 7.265625 26.171875 Z M 7.265625 26.171875 "/>
<path style=" stroke:none;fill-rule:nonzero;fill:rgb(18.431373%,18.039216%,25.490196%);fill-opacity:1;" d="M 7.691406 18.789062 C 7.679688 18.746094 7.683594 18.699219 7.710938 18.660156 C 7.734375 18.621094 7.777344 18.59375 7.824219 18.59375 C 7.917969 18.597656 8.003906 18.640625 8.066406 18.714844 C 8.128906 18.785156 8.199219 18.847656 8.28125 18.898438 C 8.363281 18.941406 8.476562 18.933594 8.523438 18.855469 C 8.566406 18.777344 8.535156 18.679688 8.511719 18.589844 C 8.441406 18.367188 8.402344 18.132812 8.394531 17.898438 C 8.386719 17.640625 8.425781 17.367188 8.566406 17.164062 C 8.753906 16.898438 9.082031 16.800781 9.394531 16.808594 C 9.707031 16.8125 10.015625 16.910156 10.324219 16.972656 C 10.429688 16.996094 10.554688 17.003906 10.628906 16.921875 C 10.703125 16.832031 10.675781 16.6875 10.644531 16.570312 C 10.558594 16.257812 10.472656 15.933594 10.277344 15.683594 C 10.066406 15.421875 9.765625 15.25 9.433594 15.203125 C 9.117188 15.164062 8.792969 15.199219 8.492188 15.3125 C 8.003906 15.46875 7.574219 15.769531 7.257812 16.179688 C 6.933594 16.617188 6.796875 17.164062 6.871094 17.707031 C 6.941406 18.175781 7.1875 18.601562 7.558594 18.894531 Z M 7.691406 18.789062 "/>
<path style=" stroke:none;fill-rule:nonzero;fill:rgb(24.705882%,23.921569%,33.72549%);fill-opacity:1;" d="M 29.414062 41.136719 C 28.488281 40.730469 27.804688 39.90625 27.570312 38.914062 C 27.335938 37.921875 27.578125 36.878906 28.222656 36.089844 C 27.21875 36.832031 26.726562 38.09375 26.960938 39.328125 C 27.195312 40.5625 28.113281 41.546875 29.320312 41.859375 C 30.523438 42.171875 31.796875 41.75 32.589844 40.78125 C 31.667969 41.464844 30.460938 41.597656 29.414062 41.136719 Z M 29.414062 41.136719 "/>
</g>
</svg>
